<svg width="117" height="85" viewBox="0 0 117 85" fill="none" xmlns="http://www.w3.org/2000/svg">
<g clip-path="url(#clip0)">
<path opacity="0.1" d="M115.018 67.9148C112.12 73.8866 106.232 77.8798 100.133 80.5132C95.2499 82.6077 90.0881 83.9833 84.8091 84.5968C83.798 84.7167 82.7837 84.8097 81.7661 84.8758C79.1658 85.045 76.5571 85.0421 73.9573 84.8671C72.3934 84.7632 70.835 84.5972 69.282 84.3691C63.886 83.583 58.6253 82.0532 53.6502 79.8235C52.2144 79.1778 50.8076 78.4729 49.43 77.7087C47.1289 76.4351 44.9242 74.9952 42.8333 73.4007C42.3707 73.0476 41.9139 72.687 41.463 72.3187L41.2775 72.1673C40.9229 71.8753 40.5715 71.5768 40.2148 71.2869C39.6217 70.7909 38.9922 70.34 38.3316 69.9381C38.2868 69.9119 38.2421 69.8858 38.1963 69.8607C38.0741 69.7899 37.9497 69.7234 37.8231 69.6602C37.5624 69.529 37.2951 69.4111 37.0223 69.3072C35.7621 68.8278 34.4124 68.6535 33.0442 68.6829C32.8173 68.6829 32.5904 68.6982 32.3623 68.7134C32.0437 68.7352 31.724 68.7679 31.4054 68.8093L31.2876 68.8256C30.2724 68.9691 29.2686 69.1843 28.2839 69.4696C26.7629 69.9054 25.2693 70.4502 23.7658 70.9415C23.1275 71.1518 22.4881 71.3523 21.8433 71.5321L21.7015 71.5713C20.7844 71.8289 19.8508 72.024 18.9072 72.1553C16.763 72.429 14.5852 72.2539 12.5124 71.641L12.4404 71.6203L12.3073 71.5811L12.1251 71.5245C11.8196 71.4286 11.5167 71.3236 11.2163 71.2096L11.034 71.1398C10.7431 71.028 10.4583 70.9078 10.1797 70.7792L9.99752 70.6964C9.70657 70.5613 9.4218 70.4186 9.14322 70.2682C9.04284 70.2159 8.94355 70.1592 8.84535 70.1059C8.54858 69.9403 8.25763 69.7667 7.97249 69.5851C7.6699 69.3926 7.37386 69.1917 7.08436 68.9825C6.95052 68.8867 6.81814 68.7882 6.68721 68.6873C5.93246 68.1108 5.22568 67.4742 4.5738 66.7838C4.5378 66.7479 4.50398 66.7108 4.47015 66.6749C4.29667 66.4875 4.12646 66.2968 3.96171 66.1018C3.90061 66.0299 3.83951 65.958 3.7795 65.8839C3.58384 65.6456 3.39508 65.4019 3.21324 65.1528C3.18596 65.1168 3.15978 65.0798 3.13359 65.0438C2.3881 64.0143 1.77007 62.8985 1.29295 61.7207C1.27768 61.6847 1.26349 61.6477 1.2504 61.6117C1.10492 61.2377 0.972175 60.8574 0.852158 60.471C0.803059 60.3097 0.756143 60.1441 0.714682 59.9829C0.700498 59.9349 0.687405 59.8859 0.675404 59.838C0.0731318 57.4704 0.00439453 55.0091 0.00439453 52.562C0.00439453 52.2765 0.00439453 51.9914 0.00439453 51.7067C0.0218517 47.7483 0.0829515 43.7225 0.667766 39.8186C0.667766 39.7914 0.675404 39.7641 0.679768 39.738C0.875502 38.4238 1.14174 37.121 1.47734 35.8352C1.82858 34.4861 2.27746 33.1643 2.82045 31.8802C4.16574 28.7205 6.12204 25.8452 8.29436 23.1801C10.9129 19.9736 13.9134 17.0144 17.2553 14.5727C17.7354 14.2219 18.222 13.8812 18.7152 13.5507L18.9432 13.4014C19.0229 13.3481 19.1025 13.2925 19.1822 13.2456C19.3458 13.1367 19.5095 13.0343 19.6753 12.9308L19.8608 12.8153L20.2143 12.5974L20.3234 12.5353L20.5122 12.4263L20.6988 12.3173C20.917 12.1888 21.1377 12.0631 21.361 11.9404C22.3146 11.4094 23.2908 10.9242 24.2895 10.4847C24.5841 10.3547 24.8805 10.2294 25.1787 10.1088C26.5327 9.55816 27.9235 9.1027 29.3411 8.7458C29.8649 8.61361 30.3918 8.49739 30.9221 8.39715C31.5476 8.27657 32.1765 8.1767 32.8086 8.09752C33.8144 7.97114 34.8261 7.89587 35.8396 7.87199C42.9664 7.69875 50.1653 10.0151 55.7505 14.455C57.9763 16.2245 59.9763 18.3197 62.4759 19.6761C64.6581 20.8572 67.2122 21.3464 69.5493 20.417C71.4805 19.6489 72.7374 19.2676 74.9065 19.3841C79.3948 19.6366 83.8197 20.5607 88.0332 22.1254C88.2034 22.1876 88.3736 22.2518 88.5427 22.3161C99.5309 26.5163 108.978 34.8568 113.886 45.5747C114.016 45.858 114.142 46.1434 114.265 46.4311C117.192 53.2571 118.248 61.2598 115.018 67.9148Z" fill="#6C63FF"/>
<path opacity="0.1" d="M21.84 30.223V71.5343L21.6982 71.5735C20.7811 71.8311 19.8475 72.0262 18.9039 72.1575C16.7597 72.4312 14.5819 72.2561 12.5091 71.6432L12.4371 71.6225L12.304 71.5833L12.1218 71.5266C11.8163 71.4308 11.5134 71.3258 11.213 71.2118L11.0307 71.142C10.7398 71.0302 10.455 70.91 10.1764 70.7814L9.99423 70.6986C9.70327 70.5635 9.41851 70.4208 9.13992 70.2704C9.03954 70.2181 8.94025 70.1614 8.84206 70.1081C8.54528 69.9424 8.25433 69.7688 7.9692 69.5873C7.66661 69.3948 7.37056 69.1939 7.08107 68.9847C6.94723 68.8889 6.81484 68.7904 6.68391 68.6895C5.92916 68.113 5.22238 67.4764 4.57051 66.786C4.5345 66.7501 4.50068 66.713 4.46686 66.6771C4.29338 66.4897 4.12317 66.299 3.95842 66.104C3.89732 66.0321 3.83622 65.9602 3.77621 65.8861C3.58054 65.6478 3.39179 65.4041 3.20994 65.155C3.18266 65.119 3.15648 65.082 3.13029 65.046C2.3848 64.0165 1.76677 62.9007 1.28965 61.7229C1.27438 61.6869 1.2602 61.6499 1.2471 61.6139C1.10163 61.2399 0.96888 60.8596 0.848862 60.4732C0.799763 60.3119 0.752847 60.1463 0.711386 59.9851C0.697202 59.9371 0.684109 59.8881 0.672108 59.8402C0.0698359 57.4726 0.00109863 55.0113 0.00109863 52.5642C0.00109863 52.2787 0.00109863 51.9936 0.00109863 51.7089C0.0185558 47.7505 0.0796556 43.7247 0.66447 39.8208C0.66447 39.7936 0.672108 39.7663 0.676472 39.7402C0.872206 38.4259 1.13845 37.1231 1.47405 35.8374H12.6161V30.223H14.8375V25.7133H19.6186V30.223H21.84Z" fill="#6C63FF"/>
<path opacity="0.1" d="M115.018 67.9148C112.12 73.8866 106.232 77.8798 100.133 80.5133C95.2499 82.6078 90.088 83.9833 84.809 84.5969C83.7979 84.7167 82.7836 84.8097 81.766 84.8758C79.1657 85.045 76.5571 85.0421 73.9572 84.8671C72.3933 84.7632 70.8349 84.5972 69.2819 84.3692C63.8859 83.5831 58.6252 82.0533 53.6502 79.8236C52.2143 79.1778 50.8075 78.4729 49.4299 77.7088C47.1288 76.4351 44.9241 74.9953 42.8333 73.4007C42.3707 73.0477 41.9139 72.687 41.4629 72.3188L41.2774 72.1673C40.9228 71.8753 40.5715 71.5768 40.2147 71.287C39.6217 70.7909 38.9922 70.34 38.3315 69.9381C38.2868 69.9119 38.242 69.8858 38.1962 69.8607C38.074 69.7899 37.9496 69.7235 37.8231 69.6603C37.5623 69.529 37.295 69.4112 37.0222 69.3072V52.4073H57.2714V56.1695H66.1582V28.6497H76.6183V39.6541H81.7922V33.1386H86.067V26.1786H88.0309V22.1255C88.2011 22.1876 88.3713 22.2518 88.5405 22.3161V26.1786H90.452V33.143H94.7236V39.6585H101.022V64.4816H111.034V46.4289H114.26C117.192 53.2571 118.248 61.2598 115.018 67.9148Z" fill="black"/>
<path opacity="0.1" d="M73.9594 32.791H69.2842V37.4598H73.9594V32.791Z" fill="#6C63FF"/>
<path opacity="0.1" d="M73.9594 42.4684H69.2842V47.1371H73.9594V42.4684Z" fill="#6C63FF"/>
<path opacity="0.1" d="M73.9594 52.1469H69.2842V56.8156H73.9594V52.1469Z" fill="#6C63FF"/>
<path opacity="0.1" d="M73.9594 61.8253H69.2842V66.494H73.9594V61.8253Z" fill="#6C63FF"/>
<path opacity="0.1" d="M73.9594 71.5027H69.2842V76.1714H73.9594V71.5027Z" fill="#6C63FF"/>
<path opacity="0.1" d="M73.9594 81.179V84.866C72.3956 84.7621 70.8371 84.5962 69.2842 84.3681V81.179H73.9594Z" fill="#6C63FF"/>
<path opacity="0.1" d="M54.929 58.4412H38.564V60.556H54.929V58.4412Z" fill="#6C63FF"/>
<path opacity="0.1" d="M54.929 64.8641H38.564V66.9789H54.929V64.8641Z" fill="#6C63FF"/>
<path opacity="0.1" d="M54.9289 71.287V73.4007H42.8355C42.3729 73.0477 41.9161 72.687 41.4651 72.3188L41.2796 72.1673C40.925 71.8753 40.5737 71.5768 40.2169 71.287H54.9289Z" fill="#6C63FF"/>
<path opacity="0.1" d="M54.9289 77.7087V79.8235H53.6524C52.2165 79.1778 50.8098 78.4729 49.4321 77.7087H54.9289Z" fill="#6C63FF"/>
<path opacity="0.1" d="M84.8112 45.4331H81.7682V48.4718H84.8112V45.4331Z" fill="#6C63FF"/>
<path opacity="0.1" d="M18.9104 31.2711H15.8674V34.3099H18.9104V31.2711Z" fill="#6C63FF"/>
<path opacity="0.1" d="M18.9104 38.3314H15.8674V41.3701H18.9104V38.3314Z" fill="#6C63FF"/>
<path opacity="0.1" d="M18.9104 45.3906H15.8674V48.4293H18.9104V45.3906Z" fill="#6C63FF"/>
<path opacity="0.1" d="M18.9104 52.4508H15.8674V55.4896H18.9104V52.4508Z" fill="#6C63FF"/>
<path opacity="0.1" d="M18.9104 59.5111H15.8674V62.5499H18.9104V59.5111Z" fill="#6C63FF"/>
<path opacity="0.1" d="M18.9104 66.5703H15.8674V69.609H18.9104V66.5703Z" fill="#6C63FF"/>
<path opacity="0.1" d="M96.43 45.4331H93.387V48.4718H96.43V45.4331Z" fill="#6C63FF"/>
<path opacity="0.1" d="M84.8112 52.9291H81.7682V55.9679H84.8112V52.9291Z" fill="#6C63FF"/>
<path opacity="0.1" d="M96.43 52.9291H93.387V55.9679H96.43V52.9291Z" fill="#6C63FF"/>
<path opacity="0.1" d="M84.8112 60.4263H81.7682V63.4651H84.8112V60.4263Z" fill="#6C63FF"/>
<path opacity="0.1" d="M96.43 60.4263H93.387V63.4651H96.43V60.4263Z" fill="#6C63FF"/>
<path opacity="0.1" d="M84.8112 67.9235H81.7682V70.9623H84.8112V67.9235Z" fill="#6C63FF"/>
<path opacity="0.1" d="M96.43 67.9235H93.387V70.9623H96.43V67.9235Z" fill="#6C63FF"/>
<path opacity="0.1" d="M84.8112 75.4196H81.7682V78.4584H84.8112V75.4196Z" fill="#6C63FF"/>
<path opacity="0.1" d="M96.43 75.4196H93.387V78.4584H96.43V75.4196Z" fill="#6C63FF"/>
<path opacity="0.1" d="M81.7682 84.8758V82.9157H84.8112V84.5969L81.7682 84.8758Z" fill="#6C63FF"/>
<path opacity="0.1" d="M0.665527 39.7413V41.4845H12.304V39.7413H0.665527ZM1.70205 41.3756H0.847736V39.8502H1.70205V41.3756ZM2.73856 41.3756H1.88425V39.8502H2.73856V41.3756ZM3.77508 41.3756H2.92077V39.8502H3.77508V41.3756ZM4.8116 41.3756H3.95729V39.8502H4.8116V41.3756ZM5.84812 41.3756H4.99381V39.8502H5.84812V41.3756ZM6.88464 41.3756H6.03033V39.8502H6.88464V41.3756ZM7.92115 41.3756H7.06685V39.8502H7.92115V41.3756ZM8.95767 41.3756H8.10336V39.8502H8.95767V41.3756ZM9.99419 41.3756H9.13988V39.8502H9.99419V41.3756ZM11.0307 41.3756H10.1764V39.8502H11.0307V41.3756ZM12.1218 41.3756H11.2129V39.8502H12.1218V41.3756Z" fill="#6C63FF"/>
<path opacity="0.1" d="M0.665527 44.8033V46.5411H12.304V44.8033H0.665527ZM1.70205 46.4322H0.847736V44.9123H1.70205V46.4322ZM2.73856 46.4322H1.88425V44.9123H2.73856V46.4322ZM3.77508 46.4322H2.92077V44.9123H3.77508V46.4322ZM4.8116 46.4322H3.95729V44.9123H4.8116V46.4322ZM5.84812 46.4322H4.99381V44.9123H5.84812V46.4322ZM6.88464 46.4322H6.03033V44.9123H6.88464V46.4322ZM7.92115 46.4322H7.06685V44.9123H7.92115V46.4322ZM8.95767 46.4322H8.10336V44.9123H8.95767V46.4322ZM9.99419 46.4322H9.13988V44.9123H9.99419V46.4322ZM11.0307 46.4322H10.1764V44.9123H11.0307V46.4322ZM12.1218 46.4322H11.2129V44.9123H12.1218V46.4322Z" fill="#6C63FF"/>
<path opacity="0.1" d="M0.665527 49.8643V51.6021H12.304V49.8643H0.665527ZM1.70205 51.4931H0.847736V49.9732H1.70205V51.4931ZM2.73856 51.4931H1.88425V49.9732H2.73856V51.4931ZM3.77508 51.4931H2.92077V49.9732H3.77508V51.4931ZM4.8116 51.4931H3.95729V49.9732H4.8116V51.4931ZM5.84812 51.4931H4.99381V49.9732H5.84812V51.4931ZM6.88464 51.4931H6.03033V49.9732H6.88464V51.4931ZM7.92115 51.4931H7.06685V49.9732H7.92115V51.4931ZM8.95767 51.4931H8.10336V49.9732H8.95767V51.4931ZM9.99419 51.4931H9.13988V49.9732H9.99419V51.4931ZM11.0307 51.4931H10.1764V49.9732H11.0307V51.4931ZM12.1218 51.4931H11.2129V49.9732H12.1218V51.4931Z" fill="#6C63FF"/>
<path opacity="0.1" d="M0.665527 54.9208V56.6641H12.304V54.9208H0.665527ZM1.70205 56.5552H0.847736V55.0298H1.70205V56.5552ZM2.73856 56.5552H1.88425V55.0298H2.73856V56.5552ZM3.77508 56.5552H2.92077V55.0298H3.77508V56.5552ZM4.8116 56.5552H3.95729V55.0298H4.8116V56.5552ZM5.84812 56.5552H4.99381V55.0298H5.84812V56.5552ZM6.88464 56.5552H6.03033V55.0298H6.88464V56.5552ZM7.92115 56.5552H7.06685V55.0298H7.92115V56.5552ZM8.95767 56.5552H8.10336V55.0298H8.95767V56.5552ZM9.99419 56.5552H9.13988V55.0298H9.99419V56.5552ZM11.0307 56.5552H10.1764V55.0298H11.0307V56.5552ZM12.1218 56.5552H11.2129V55.0298H12.1218V56.5552Z" fill="#6C63FF"/>
<path opacity="0.1" d="M0.710327 59.9861C0.751788 60.1496 0.798704 60.313 0.847802 60.4743V60.0951H1.70211V61.6205H1.24604C1.25914 61.6564 1.27332 61.6935 1.2886 61.7294H12.3084V59.9861H0.710327ZM2.73863 61.6205H1.88432V60.0951H2.73863V61.6205ZM3.77515 61.6205H2.92084V60.0951H3.77515V61.6205ZM4.81167 61.6205H3.95736V60.0951H4.81167V61.6205ZM5.84819 61.6205H4.99388V60.0951H5.84819V61.6205ZM6.8847 61.6205H6.03039V60.0951H6.8847V61.6205ZM7.92122 61.6205H7.06691V60.0951H7.92122V61.6205ZM8.95774 61.6205H8.10343V60.0951H8.95774V61.6205ZM9.99426 61.6205H9.13995V60.0951H9.99426V61.6205ZM11.0308 61.6205H10.1765V60.0951H11.0308V61.6205ZM12.1218 61.6205H11.213V60.0951H12.1218V61.6205Z" fill="#6C63FF"/>
<path opacity="0.1" d="M3.12915 65.0471C3.15534 65.0831 3.18152 65.1201 3.2088 65.1561H3.77506V65.8872C3.83507 65.9602 3.89617 66.0321 3.95727 66.1051V65.1572H4.81158V66.6825H4.46571C4.49954 66.7185 4.53336 66.7555 4.56936 66.7915H12.304V65.0482L3.12915 65.0471ZM5.8481 66.6814H4.99379V65.1561H5.8481V66.6814ZM6.88462 66.6814H6.03031V65.1561H6.88462V66.6814ZM7.92114 66.6814H7.06683V65.1561H7.92114V66.6814ZM8.95766 66.6814H8.10335V65.1561H8.95766V66.6814ZM9.99417 66.6814H9.13987V65.1561H9.99417V66.6814ZM11.0307 66.6814H10.1764V65.1561H11.0307V66.6814ZM12.1218 66.6814H11.2129V65.1561H12.1218V66.6814Z" fill="#6C63FF"/>
<path opacity="0.1" d="M8.84204 70.1081C8.94024 70.1636 9.03953 70.217 9.1399 70.2704V70.217H9.99421V70.6986L10.1764 70.7814V70.217H11.0307V71.142L11.2129 71.2118V70.217H12.1218V71.5245L12.304 71.5811V70.1081H8.84204Z" fill="#6C63FF"/>
<path opacity="0.1" d="M44.7296 24.6499C44.7296 24.6499 42.1285 24.493 42.4384 26.3126C42.4225 26.4051 42.4363 26.5002 42.4778 26.5843C42.5194 26.6685 42.5865 26.7374 42.6697 26.7811C42.6697 26.7811 42.6697 26.646 42.9359 26.6918C43.0293 26.7071 43.1241 26.7115 43.2185 26.7048C43.3461 26.6964 43.4675 26.6467 43.5643 26.5632C43.5643 26.5632 44.2954 26.2614 44.5801 25.0683C44.5801 25.0683 44.7896 24.8079 44.782 24.7415L44.3455 24.9289C44.3455 24.9289 44.4961 25.2448 44.3783 25.5074C44.3783 25.5074 44.3641 24.9408 44.279 24.9539C44.2626 24.9539 44.051 25.0629 44.051 25.0629C44.051 25.0629 44.3095 25.6142 44.1142 26.0141C44.1142 26.0141 44.1884 25.3364 43.9713 25.1032L43.6549 25.2851C43.6549 25.2851 43.9571 25.8539 43.752 26.318C43.752 26.318 43.8055 25.6066 43.5905 25.3298L43.3101 25.5477C43.3101 25.5477 43.5938 26.1078 43.4192 26.4935C43.4192 26.4935 43.3963 25.6643 43.2479 25.6011C43.1415 25.6907 43.0465 25.7932 42.9653 25.9062C42.9653 25.9062 43.1596 26.3126 43.0395 26.5272C43.0395 26.5272 42.9653 25.9759 42.9042 25.9726C42.9042 25.9726 42.6609 26.3387 42.6358 26.5893C42.6471 26.3568 42.7193 26.1314 42.8453 25.9356C42.7048 25.9622 42.5751 26.0292 42.4722 26.1285C42.4722 26.1285 42.5104 25.8702 42.9086 25.8474C42.9086 25.8474 43.1105 25.5706 43.165 25.5532C43.165 25.5532 42.7711 25.5205 42.5322 25.6262C42.5322 25.6262 42.7428 25.3821 43.237 25.4932L43.5131 25.2677C43.5131 25.2677 42.9948 25.1969 42.7755 25.2753C42.7755 25.2753 43.0275 25.0574 43.5873 25.2165L43.8884 25.0367C43.6571 24.9861 43.4202 24.9656 43.1836 24.9757C43.1836 24.9757 43.4607 24.8264 43.9768 24.9888L44.195 24.8918C44.195 24.8918 43.8677 24.8286 43.7771 24.8188C43.6865 24.809 43.6767 24.7829 43.6767 24.7829C43.8817 24.7487 44.092 24.7721 44.2844 24.8504C44.2844 24.8504 44.7372 24.6783 44.7296 24.6499Z" fill="#6C63FF"/>
<path opacity="0.1" d="M37.9017 33.5047C37.9017 33.5047 37.0124 35.9496 38.8476 36.173C38.9317 36.2143 39.0266 36.228 39.1189 36.2121C39.2112 36.1963 39.2961 36.1517 39.3615 36.0847C39.3615 36.0847 39.2339 36.0422 39.3517 35.8036C39.393 35.7189 39.4245 35.6297 39.4455 35.5378C39.4731 35.413 39.4593 35.2826 39.4062 35.1662C39.4062 35.1662 39.3244 34.3807 38.2595 33.7694C38.2595 33.7694 38.0697 33.4938 38.0031 33.4829L38.0577 33.9568C38.0577 33.9568 38.4036 33.9024 38.6229 34.0898C38.6229 34.0898 38.0773 33.9427 38.0631 34.0277C38.0631 34.044 38.1035 34.2772 38.1035 34.2772C38.1035 34.2772 38.7058 34.1857 39.0342 34.4864C39.0342 34.4864 38.4036 34.2227 38.1188 34.3654L38.2039 34.7119C38.2039 34.7119 38.8356 34.5855 39.2229 34.9124C39.2229 34.9124 38.5552 34.6607 38.2279 34.7871L38.3577 35.1139C38.3577 35.1139 38.9764 35.005 39.2971 35.2763C39.2971 35.2763 38.4941 35.0584 38.3926 35.187C38.4485 35.3138 38.5196 35.4334 38.6043 35.5432C38.6043 35.5432 39.0506 35.4735 39.2219 35.6522C39.2219 35.6522 38.6709 35.5661 38.6512 35.6228C38.6512 35.6228 38.9338 35.9605 39.1673 36.0586C38.948 35.9811 38.7528 35.8478 38.601 35.6718C38.5866 35.8143 38.6143 35.9578 38.6807 36.0847C38.6807 36.0847 38.4428 35.9758 38.5334 35.589C38.5334 35.589 38.3239 35.3177 38.3239 35.2621C38.3239 35.2621 38.1799 35.6293 38.2148 35.8886C38.2148 35.8886 38.0402 35.6173 38.2868 35.1761L38.1493 34.8492C38.1493 34.8492 37.9311 35.3253 37.9464 35.5585C37.9464 35.5585 37.8111 35.2545 38.121 34.7631L38.0348 34.4243C37.9206 34.6301 37.8337 34.8498 37.7762 35.078C37.7762 35.078 37.7107 34.7697 38.0129 34.3218L37.9813 34.0887C37.9813 34.0887 37.8286 34.3807 37.7926 34.4689C37.7565 34.5572 37.7293 34.5539 37.7293 34.5539C37.7544 34.3479 37.8364 34.1529 37.966 33.9906C37.966 33.9906 37.9311 33.5047 37.9017 33.5047Z" fill="#6C63FF"/>
<path opacity="0.1" d="M55.1438 31.4433C55.1438 31.4433 54.2557 33.8926 56.0898 34.1105C56.1741 34.1517 56.2693 34.1653 56.3618 34.1492C56.4543 34.1332 56.5393 34.0884 56.6048 34.0211C56.6048 34.0211 56.476 33.9786 56.5949 33.7411C56.6366 33.6562 56.6677 33.5666 56.6877 33.4742C56.7156 33.3495 56.7022 33.2191 56.6495 33.1026C56.6495 33.1026 56.5677 32.3171 55.5028 31.7058C55.5028 31.7058 55.3118 31.4313 55.2453 31.4204L55.3009 31.8932C55.3009 31.8932 55.6468 31.8399 55.8661 32.0273C55.8661 32.0273 55.3206 31.8802 55.3053 31.9641C55.3053 31.9815 55.3457 32.2136 55.3457 32.2136C55.3457 32.2136 55.9479 32.1231 56.2774 32.4228C56.2774 32.4228 55.6468 32.1602 55.3609 32.3018L55.4471 32.6494C55.4471 32.6494 56.0789 32.5219 56.4662 32.8499C56.4662 32.8499 55.7974 32.5971 55.47 32.7235L55.5999 33.0503C55.5999 33.0503 56.2185 32.9414 56.5393 33.2127C56.5393 33.2127 55.7374 32.9948 55.6348 33.1244C55.6924 33.2518 55.7657 33.3715 55.853 33.4807C55.853 33.4807 56.2982 33.4099 56.4706 33.5897C56.4706 33.5897 55.9196 33.5036 55.8999 33.5613C55.8999 33.5613 56.1814 33.898 56.4149 33.9972C56.1958 33.92 56.0009 33.7866 55.8497 33.6104C55.8353 33.7527 55.8626 33.8962 55.9283 34.0233C55.9283 34.0233 55.6915 33.9144 55.7821 33.5287C55.7821 33.5287 55.5726 33.2563 55.5715 33.2018C55.5715 33.2018 55.4286 33.5701 55.4624 33.8283C55.4624 33.8283 55.2878 33.5581 55.5344 33.1157L55.3969 32.7889C55.3969 32.7889 55.1787 33.265 55.194 33.4971C55.194 33.4971 55.0587 33.1942 55.3686 32.7028L55.2813 32.3628C55.1671 32.5686 55.0802 32.7884 55.0227 33.0166C55.0227 33.0166 54.9583 32.7082 55.2606 32.2604L55.2289 32.0273C55.2289 32.0273 55.0762 32.3193 55.0391 32.4075C55.002 32.4958 54.9758 32.4925 54.9758 32.4925C55.0016 32.2864 55.0839 32.0915 55.2136 31.9292C55.2136 31.9292 55.1744 31.4443 55.1438 31.4433Z" fill="#6C63FF"/>
<path opacity="0.1" d="M30.4965 51.4343C30.4965 51.4343 29.6073 53.8803 31.4425 54.1037C31.5266 54.145 31.6216 54.1586 31.714 54.1426C31.8063 54.1265 31.8912 54.0816 31.9564 54.0143C31.9564 54.0143 31.8287 53.9718 31.9465 53.7343C31.9885 53.6494 32.02 53.5598 32.0404 53.4674C32.0685 53.3426 32.0547 53.212 32.0011 53.0959C32.0011 53.0959 31.9193 52.3103 30.8544 51.7001C30.8544 51.7001 30.6645 51.4245 30.598 51.4136L30.6525 51.8865C30.6525 51.8865 30.9995 51.8331 31.2177 52.0205C31.2177 52.0205 30.6722 51.8734 30.658 51.9573C30.658 51.9747 30.6984 52.2068 30.6984 52.2068C30.6984 52.2068 31.3006 52.1163 31.629 52.416C31.629 52.416 30.9984 52.1534 30.7136 52.295L30.7987 52.6426C30.7987 52.6426 31.4305 52.5151 31.8178 52.8431C31.8178 52.8431 31.1501 52.5903 30.8227 52.7167L30.9526 53.0436C30.9526 53.0436 31.5712 52.9346 31.892 53.2059C31.892 53.2059 31.0901 52.988 30.9875 53.1176C31.0434 53.2445 31.1144 53.3641 31.1992 53.4739C31.1992 53.4739 31.6454 53.4031 31.8178 53.5829C31.8178 53.5829 31.2657 53.4968 31.2461 53.5546C31.2461 53.5546 31.5287 53.8912 31.7622 53.9904C31.5428 53.9135 31.3476 53.7805 31.1959 53.6047C31.1815 53.7468 31.2091 53.89 31.2755 54.0165C31.2755 54.0165 31.0377 53.9076 31.1282 53.5219C31.1282 53.5219 30.9198 53.2495 30.9188 53.195C30.9188 53.195 30.7747 53.5633 30.8096 53.8215C30.8096 53.8215 30.6351 53.5513 30.8817 53.1089L30.7442 52.7821C30.7442 52.7821 30.526 53.2582 30.5423 53.4903C30.5423 53.4903 30.407 53.1874 30.7169 52.696L30.6296 52.3571C30.5152 52.5628 30.4283 52.7826 30.371 53.0109C30.371 53.0109 30.3056 52.7014 30.6078 52.2547L30.5762 52.0205C30.5762 52.0205 30.4234 52.3125 30.3874 52.4007C30.3514 52.489 30.3241 52.4857 30.3241 52.4857C30.3493 52.2795 30.4317 52.0844 30.562 51.9224C30.562 51.9224 30.526 51.4343 30.4965 51.4343Z" fill="#6C63FF"/>
<path opacity="0.1" d="M26.968 28.3805C26.968 28.3805 26.0799 30.8255 27.914 31.0488C27.9982 31.09 28.0933 31.1037 28.1858 31.0879C28.2782 31.072 28.3633 31.0275 28.429 30.9606C28.429 30.9606 28.3002 30.9181 28.4192 30.6795C28.4603 30.5944 28.4914 30.5048 28.5119 30.4125C28.5398 30.2882 28.5264 30.1582 28.4737 30.0421C28.4737 30.0421 28.3919 29.2565 27.3259 28.6453C27.3259 28.6453 27.1361 28.3696 27.0695 28.3587L27.1251 28.8327C27.1251 28.8327 27.471 28.7782 27.6892 28.9656C27.6892 28.9656 27.1437 28.8185 27.1295 28.9035C27.1295 28.9199 27.1699 29.153 27.1699 29.153C27.1699 29.153 27.7721 29.0615 28.1017 29.3622C28.1017 29.3622 27.471 29.0986 27.1852 29.2413L27.2703 29.5878C27.2703 29.5878 27.902 29.4603 28.2904 29.7882C28.2904 29.7882 27.6216 29.5355 27.2943 29.6629L27.4241 29.9898C27.4241 29.9898 28.0427 29.8808 28.3635 30.1532C28.3635 30.1532 27.5616 29.9353 27.459 30.0639C27.5149 30.1908 27.586 30.3104 27.6707 30.4202C27.6707 30.4202 28.1169 30.3504 28.2893 30.5291C28.2893 30.5291 27.7383 30.4431 27.7187 30.4997C27.7187 30.4997 28.0002 30.8375 28.2337 30.9355C28.0145 30.8578 27.8194 30.7245 27.6674 30.5487C27.6529 30.6912 27.6806 30.8348 27.7471 30.9617C27.7471 30.9617 27.5092 30.8527 27.6008 30.4659C27.6008 30.4659 27.3914 30.1946 27.3903 30.1391C27.3903 30.1391 27.2473 30.5062 27.2812 30.7656C27.2812 30.7656 27.1055 30.4943 27.3532 30.053L27.2146 29.7261C27.2146 29.7261 26.9964 30.2023 27.0128 30.4354C27.0128 30.4354 26.8775 30.1314 27.1873 29.6401L27.1 29.3012C26.9859 29.507 26.8989 29.7268 26.8415 29.9549C26.8415 29.9549 26.7771 29.6466 27.0782 29.1988L27.0477 28.9656C27.0477 28.9656 26.8938 29.2576 26.8578 29.3448C26.8218 29.432 26.7945 29.4309 26.7945 29.4309C26.8198 29.2246 26.9021 29.0296 27.0324 28.8676C27.0324 28.8676 26.9986 28.3805 26.968 28.3805Z" fill="#6C63FF"/>
<path opacity="0.1" d="M33.5625 41.6948C33.5625 41.6948 34.2488 44.2008 35.8767 43.3291C35.9692 43.3144 36.0547 43.2709 36.1209 43.2048C36.1871 43.1386 36.2307 43.0533 36.2454 42.9609C36.2454 42.9609 36.1167 43.0001 36.0763 42.7375C36.0609 42.6443 36.0346 42.5532 35.9978 42.4662C35.9494 42.3479 35.8631 42.2491 35.7523 42.1851C35.7523 42.1851 35.2318 41.5902 34.0066 41.7035C34.0066 41.7035 33.6923 41.5891 33.6312 41.6185L33.9498 41.9727C33.9498 41.9727 34.2019 41.7297 34.4888 41.7547C34.4888 41.7547 33.9553 41.9509 33.9946 42.026C34.0033 42.0413 34.1713 42.2069 34.1713 42.2069C34.1713 42.2069 34.6077 41.7852 35.0529 41.8408C35.0529 41.8408 34.3863 41.989 34.2357 42.2701L34.5052 42.5044C34.5052 42.5044 34.9482 42.0369 35.4544 42.0805C35.4544 42.0805 34.7616 42.2592 34.5674 42.5512L34.8641 42.7462C34.8641 42.7462 35.3006 42.2984 35.7261 42.3387C35.7261 42.3387 34.9471 42.6253 34.9351 42.7865C35.0542 42.8581 35.1818 42.9148 35.3148 42.9554C35.3148 42.9554 35.6421 42.6416 35.881 42.6863C35.881 42.6863 35.3802 42.9336 35.3977 42.9914C35.3977 42.9914 35.8232 43.1003 36.0687 43.048C35.8452 43.1113 35.6089 43.1151 35.3835 43.0589C35.4537 43.1836 35.5592 43.2849 35.6868 43.3498C35.6868 43.3498 35.4293 43.3967 35.2809 43.0295C35.2809 43.0295 34.9536 42.9282 34.9187 42.8824C34.9187 42.8824 35.0147 43.266 35.1915 43.4577C35.1915 43.4577 34.8925 43.3368 34.8391 42.8334L34.5368 42.6449C34.5368 42.6449 34.6361 43.1581 34.7801 43.34C34.7801 43.34 34.4943 43.1701 34.4637 42.5904L34.1975 42.3638C34.2234 42.5989 34.2799 42.8297 34.3655 43.0502C34.3655 43.0502 34.1353 42.8323 34.1233 42.2962L33.9629 42.123C33.9629 42.123 34.0066 42.4499 34.0273 42.5425C34.048 42.6351 34.0273 42.6514 34.0273 42.6514C33.929 42.4684 33.8837 42.2617 33.8964 42.0544C33.8964 42.0544 33.5876 41.6785 33.5625 41.6948Z" fill="#6C63FF"/>
<path opacity="0.1" d="M52.1805 43.9327C52.1805 43.9327 52.8668 46.4387 54.4936 45.5671C54.5864 45.5527 54.6722 45.5094 54.7387 45.4432C54.8052 45.377 54.8489 45.2914 54.8635 45.1988C54.8635 45.1988 54.7337 45.238 54.6933 44.9809C54.6788 44.8876 54.6527 44.7965 54.6158 44.7096C54.5667 44.5915 54.48 44.4927 54.3692 44.4285C54.3692 44.4285 53.8488 43.8336 52.6235 43.948C52.6235 43.948 52.3093 43.8325 52.2493 43.8619L52.5668 44.216C52.5668 44.216 52.8188 43.9731 53.1058 43.9981C53.1058 43.9981 52.5722 44.1942 52.6126 44.2694C52.6202 44.2847 52.7894 44.4503 52.7894 44.4503C52.7894 44.4503 53.2258 44.0286 53.6709 44.0842C53.6709 44.0842 53.0032 44.2324 52.8526 44.5135L53.1232 44.7477C53.1232 44.7477 53.5597 44.2803 54.0714 44.3239C54.0714 44.3239 53.3796 44.5026 53.1854 44.7946L53.4822 44.9896C53.4822 44.9896 53.9186 44.5418 54.3431 44.5821C54.3431 44.5821 53.564 44.8687 53.5531 45.0299C53.6719 45.1015 53.799 45.1583 53.9317 45.1988C53.9317 45.1988 54.259 44.885 54.498 44.9297C54.498 44.9297 53.9983 45.177 54.0146 45.2348C54.0146 45.2348 54.4402 45.3437 54.6867 45.2914C54.4628 45.3546 54.2263 45.3584 54.0005 45.3023C54.071 45.4267 54.1764 45.5279 54.3038 45.5932C54.3038 45.5932 54.0463 45.6401 53.8979 45.2729C53.8979 45.2729 53.5706 45.1716 53.5367 45.1258C53.5367 45.1258 53.6317 45.5093 53.8084 45.7011C53.8084 45.7011 53.5095 45.5801 53.456 45.0768L53.1538 44.8861C53.1538 44.8861 53.2531 45.3993 53.3982 45.5812C53.3982 45.5812 53.1123 45.4113 53.0818 44.8316L52.8145 44.605C52.8403 44.8402 52.8972 45.071 52.9836 45.2914C52.9836 45.2914 52.7523 45.0735 52.7403 44.5374L52.5799 44.3642C52.5799 44.3642 52.6235 44.6911 52.6442 44.7837C52.665 44.8763 52.6442 44.8926 52.6442 44.8926C52.546 44.7096 52.5006 44.5029 52.5133 44.2956C52.5133 44.2956 52.2056 43.9164 52.1805 43.9327Z" fill="#6C63FF"/>
<path d="M45.1955 69.0992C45.1955 69.0992 50.856 67.1957 49.6842 60.4514L42.494 58.5872L40.8247 64.121L45.1955 69.0992Z" fill="#CED7E7"/>
<path opacity="0.1" d="M40.8247 64.121L45.1944 69.0991C45.1944 69.0991 50.8549 67.1957 49.6831 60.4514L40.8247 64.121Z" fill="black"/>
<path d="M17.0392 14.296C17.0392 14.296 17.803 15.537 18.8471 14.917C19.8913 14.297 18.8897 12.5843 18.8897 12.5843C18.8897 12.5843 16.8898 12.3108 17.0392 14.296Z" fill="#FED253"/>
<path opacity="0.1" d="M18.8472 14.917C18.724 14.9966 18.5859 15.0502 18.4412 15.0746C18.2966 15.0989 18.1484 15.0935 18.006 15.0587C17.623 14.9617 17.3284 14.6675 17.1702 14.4747C17.123 14.4182 17.0793 14.3588 17.0393 14.2971C16.9858 13.5888 17.2062 13.1672 17.5117 12.9188C17.9318 12.5777 18.5133 12.5636 18.7643 12.5745C18.8417 12.5745 18.8865 12.5854 18.8865 12.5854L18.9072 12.6202C18.9366 12.6758 19.001 12.7989 19.0698 12.9634C19.3032 13.5028 19.5815 14.4801 18.8472 14.917Z" fill="black"/>
<path d="M45.752 60.1343L49.6798 60.4514L56.99 60.5113L51.2302 67.5934C51.2302 67.5934 49.4027 67.6925 49.0263 67.9497C48.6498 68.2068 43.3647 68.0695 43.3647 68.0695L42.5115 64.4391L45.752 60.1343Z" fill="#FFA2A2"/>
<path opacity="0.05" d="M45.752 60.1343L49.6798 60.4514L56.99 60.5113L51.2302 67.5934C51.2302 67.5934 49.4027 67.6925 49.0263 67.9497C48.6498 68.2068 43.3647 68.0695 43.3647 68.0695L42.5115 64.4391L45.752 60.1343Z" fill="black"/>
<path d="M41.7794 41.0934L42.6926 42.6406L42.8912 45.3383C42.8912 45.3383 43.5273 47.6383 44.0041 48.3127C44.4808 48.9872 44.6794 50.7729 44.6794 50.7729C44.6794 50.7729 44.878 52.4389 45.1159 52.7951C45.3537 53.1514 45.6723 55.7369 45.6723 55.7369C45.6723 55.7369 47.7781 59.9415 49.6842 60.4568C49.6842 60.4568 40.23 63.5512 45.1955 69.1046C45.1955 69.1046 41.6604 69.9762 40.8258 68.9858C39.9911 67.9954 37.8068 53.317 37.8068 53.317L38.4821 40.9398L41.7794 41.0934Z" fill="#CED7E7"/>
<path opacity="0.05" d="M41.7794 41.0934L42.6926 42.6406L42.8912 45.3383C42.8912 45.3383 43.5273 47.6383 44.0041 48.3127C44.4808 48.9872 44.6794 50.7729 44.6794 50.7729C44.6794 50.7729 44.878 52.4389 45.1159 52.7951C45.3537 53.1514 45.6723 55.7369 45.6723 55.7369C45.6723 55.7369 47.7781 59.9415 49.6842 60.4568C49.6842 60.4568 40.23 63.5512 45.1955 69.1046C45.1955 69.1046 41.6604 69.9762 40.8258 68.9858C39.9911 67.9954 37.8068 53.317 37.8068 53.317L38.4821 40.9398L41.7794 41.0934Z" fill="black"/>
<path d="M30.3089 26.0151C30.0436 27.3894 30.1223 28.8079 30.538 30.1445L29.0673 34.3491C29.0673 34.3491 17.8652 28.1212 18.8188 26.6133C19.3589 25.758 19.4277 23.495 19.384 21.6973C19.3524 20.331 19.2553 19.2349 19.2553 19.2349C19.2553 19.2349 33.0028 20.5848 31.173 23.7184C30.759 24.4306 30.4669 25.2069 30.3089 26.0151Z" fill="#FFA2A2"/>
<path opacity="0.1" d="M31.173 23.7184C30.759 24.4306 30.4669 25.2069 30.3089 26.0151C28.2687 26.6669 26.0655 26.5929 24.0738 25.8057C22.0821 25.0185 20.4249 23.5668 19.384 21.6973C19.3524 20.331 19.2552 19.2349 19.2552 19.2349C19.2552 19.2349 32.9995 20.5848 31.173 23.7184Z" fill="black"/>
<path d="M36.7343 16.9741C36.7352 18.4285 36.3925 19.8626 35.7339 21.1598C35.0754 22.457 34.1196 23.5808 32.9442 24.4397C31.7689 25.2986 30.4072 25.8685 28.9698 26.1029C27.5324 26.3374 26.0599 26.2298 24.6719 25.789C23.284 25.3481 22.0198 24.5865 20.9822 23.5659C19.9445 22.5454 19.1626 21.2947 18.7001 19.9156C18.2376 18.5365 18.1075 17.0678 18.3204 15.629C18.5332 14.1902 19.0831 12.8219 19.9252 11.6353C20.0561 11.4515 20.194 11.2721 20.3387 11.097C21.1635 10.096 22.1898 9.27931 23.3512 8.70003C23.9812 8.38526 24.6458 8.14467 25.3315 7.98311C26.5696 7.69021 27.8548 7.65485 29.1071 7.87922C30.3595 8.1036 31.5522 8.58292 32.6111 9.28736C33.67 9.99181 34.5725 10.9063 35.2623 11.974C35.9521 13.0416 36.4145 14.2396 36.6208 15.4934C36.6978 15.9831 36.7358 16.4783 36.7343 16.9741Z" fill="#FFA2A2"/>
<path d="M40.3882 54.9786C40.2497 55.7173 40.4231 57.0673 40.6861 58.4412C40.697 58.5011 40.709 58.561 40.721 58.621C40.733 58.6809 40.7505 58.7735 40.7657 58.8487C40.8868 59.4392 41.0189 60.0243 41.1476 60.556C41.2764 61.0877 41.392 61.5431 41.4902 61.9179C41.6386 62.479 41.7401 62.8321 41.7401 62.8321C41.7401 62.8321 41.7532 63.1785 41.7706 63.7298C41.7804 64.048 41.7913 64.4359 41.8023 64.8641C41.8023 64.9883 41.8099 65.1147 41.8132 65.2454C41.8186 65.4731 41.8241 65.7096 41.8295 65.9514C41.8295 66.0299 41.8295 66.1083 41.835 66.1879C41.835 66.4483 41.8448 66.7141 41.8492 66.9789C41.8546 67.3428 41.859 67.7067 41.8612 68.0597C41.8612 68.1948 41.8612 68.3277 41.8612 68.4585C41.8612 68.7962 41.8612 69.1198 41.8612 69.4173C41.8492 70.2617 41.8153 70.8991 41.7433 71.0832C41.7182 71.1464 41.6953 71.215 41.6735 71.287C41.5789 71.6252 41.5103 71.9701 41.4684 72.3188L41.2829 72.1673C40.9283 71.8753 40.577 71.5768 40.2202 71.287C39.6272 70.7909 38.9977 70.34 38.337 69.9381C38.2923 69.9119 38.2475 69.8858 38.2017 69.8607C38.0795 69.7899 37.9551 69.7234 37.8286 69.6603C37.5678 69.529 37.3005 69.4112 37.0277 69.3072C35.7675 68.8278 34.4179 68.6535 33.0497 68.6829C32.5041 68.891 32.1495 69.0403 32.1495 69.0403L31.4556 69.2495L31.34 69.2844C30.5882 69.5132 29.531 69.8379 29.1502 69.973C28.5348 70.1909 23.1918 71.3011 23.1918 71.3011C22.7037 71.4342 22.2051 71.5253 21.7014 71.5735C20.7843 71.8311 19.8508 72.0262 18.9072 72.1575C16.763 72.4312 14.5852 72.2561 12.5124 71.6432C12.4506 71.6469 12.3885 71.6451 12.3269 71.6378C12.3651 71.6378 12.4022 71.6291 12.4361 71.6225L12.3029 71.5833L12.1207 71.5266C11.8152 71.4308 11.5123 71.3258 11.2119 71.2118L11.0297 71.142C10.7387 71.0302 10.4539 70.91 10.1754 70.7814L9.99314 70.6986C9.70219 70.5635 9.41742 70.4208 9.13883 70.2704C9.03845 70.2181 8.93917 70.1614 8.84097 70.1081C8.5442 69.9424 8.25325 69.7688 7.96811 69.5873C7.92011 69.1765 7.89501 68.9019 7.89501 68.9019L7.46949 66.786L7.44767 66.6771L7.14217 65.1517L7.12035 65.0428L6.45589 61.724L6.43407 61.615L6.12857 60.0897L6.10674 59.9807L5.43355 56.6641L5.41173 56.5552L5.10623 55.0298L5.08441 54.9208L4.41667 51.5977L4.39485 51.4888L4.08935 49.9688L4.06753 49.8599L3.94642 49.2606L3.76421 48.3531C3.76421 48.3531 3.18267 47.5228 2.52803 46.5411L2.45493 46.4322C2.26835 46.1565 2.07632 45.87 1.88975 45.5889C1.82756 45.4963 1.76755 45.4047 1.70754 45.3143C1.61662 45.177 1.52861 45.043 1.4435 44.9123L1.38458 44.8218L1.37258 44.8033C0.43208 43.3498 1.06163 42.7179 1.06163 42.7179C1.06163 42.7179 1.4566 42.184 1.96613 41.478C1.99122 41.442 2.01741 41.4061 2.04468 41.369C2.2629 41.064 2.50293 40.7306 2.73861 40.3972L2.92081 40.1379C2.98955 40.0409 3.0572 39.9439 3.12266 39.848C3.14885 39.8121 3.17394 39.775 3.19795 39.7391C3.70093 39.0134 4.11554 38.3804 4.20064 38.156C4.33375 37.8019 5.18261 36.7548 6.02819 35.8363C6.69483 35.1107 7.3582 34.4657 7.65607 34.311C8.33144 33.9547 8.60966 32.803 8.60966 32.803C8.60966 32.803 10.0793 32.2888 10.2779 31.8922C10.4765 31.4956 13.2576 29.7131 13.2576 29.7131C13.2576 29.7131 14.3825 28.9896 14.8375 28.5538C14.9019 28.4968 14.9581 28.4312 15.0044 28.3588C15.1626 28.0755 16.1959 27.8423 16.6159 27.7584C16.7251 27.7366 16.7927 27.7246 16.7927 27.7246C16.9623 27.4169 17.1767 27.136 17.4288 26.8911C17.6001 26.7397 17.8139 26.2178 17.994 25.7122C18.1893 25.1609 18.3409 24.6303 18.3409 24.6303C18.6595 23.5593 19.2945 23.8764 19.2945 23.8764C19.2937 24.0226 19.3076 24.1687 19.336 24.3122C19.6011 25.6196 21.0413 26.1644 21.7974 26.7756C22.6321 27.449 23.9425 29.1955 24.9757 29.5518C25.8311 29.8471 26.8229 30.9606 27.1372 31.3321L27.1612 31.3605C27.2135 31.4215 27.2397 31.4563 27.2397 31.4563C27.2397 31.4563 27.8256 31.4258 28.1824 31.4193H28.3122C28.3848 31.412 28.4538 31.384 28.5108 31.3387C28.8654 31.0979 29.3935 30.3919 29.6237 30.2295C29.9008 30.0301 30.1802 26.817 30.1802 26.817L30.1943 26.8105C31.1839 26.3474 32.2456 30.9824 32.2456 30.9824C32.2456 30.9824 34.1124 31.5381 34.2717 31.9347C34.3022 32.0131 34.443 32.1526 34.6546 32.3214C35.6184 33.057 36.6442 33.7077 37.7206 34.2663C37.7446 34.2783 37.7675 34.2903 37.7915 34.3001C37.8131 34.3117 37.8353 34.3223 37.858 34.3317C37.8984 34.3513 37.9377 34.3687 37.9748 34.385C38.0337 34.4112 38.0882 34.433 38.1384 34.4504L38.2039 34.4733C38.3603 34.5253 38.5075 34.6014 38.6403 34.6988C38.6796 34.7272 38.7189 34.7566 38.7571 34.7882C38.9057 34.9117 39.0423 35.0488 39.1651 35.1978C39.1837 35.2196 39.2011 35.2425 39.2186 35.2643C39.3015 35.3678 39.3757 35.4702 39.4368 35.565C39.5371 35.7113 39.6285 35.8633 39.7107 36.0205C39.7107 36.0205 41.3386 38.7977 41.8557 39.1137C42.3729 39.4297 42.6904 42.6449 42.6904 42.6449L40.9447 49.107C40.9447 49.107 40.8628 50.7413 40.7101 52.4083C40.625 53.3432 40.517 54.2944 40.3882 54.9786Z" fill="#CED7E7"/>
<path d="M27.2396 31.6525C27.2396 31.6525 26.0689 32.2866 25.1546 32.3465C25.0349 32.3521 24.915 32.3451 24.7967 32.3258C23.8388 32.1809 22.4335 31.3942 22.4335 31.3942L24.0821 29.5889L26.0875 30.5814L26.825 31.2668L27.2396 31.6525Z" fill="#FF4C01"/>
<path opacity="0.1" d="M36.6163 15.4934C36.5748 15.552 36.5277 15.6063 36.4756 15.6557C35.9017 16.2005 34.8826 15.975 34.1003 15.8486C33.4205 15.7376 32.7564 15.5459 32.1222 15.2776C31.5701 15.0423 30.9078 14.7547 30.4114 15.0924C30.2204 15.221 30.0895 15.4269 29.8909 15.5402C29.6924 15.6535 29.4392 15.6612 29.2047 15.6644C28.4409 15.6644 27.6772 15.6732 26.932 15.501C25.8202 15.2417 24.6702 14.5891 23.6129 15.0194C22.7859 15.355 22.3375 16.2539 22.1138 17.1179C22.0047 17.5417 21.9239 17.9895 21.6774 18.3491C21.4308 18.7086 20.954 18.9636 20.5481 18.7947C19.9491 18.5452 19.8607 17.5297 19.1384 17.4785C18.3452 17.423 18.355 18.2412 18.5863 18.8328C18.9289 19.7045 19.3774 20.5761 19.397 21.4848C18.5445 19.9601 18.1417 18.2255 18.2352 16.4817C18.3286 14.7379 18.9145 13.0561 19.9251 11.6309C20.101 11.5222 20.2386 11.3615 20.319 11.1711C20.3271 11.1454 20.3336 11.1192 20.3386 11.0927C20.3986 10.7887 20.2295 10.4695 20.2197 10.1513C20.1815 9.37448 21.0238 8.83297 21.7963 8.73491C22.3102 8.66954 22.8361 8.71966 23.3511 8.70332C23.6105 8.69761 23.8684 8.66326 24.1203 8.6009C24.5547 8.47089 24.9615 8.26223 25.3204 7.9853C26.5585 7.6924 27.8437 7.65704 29.0961 7.88142C30.3485 8.1058 31.5412 8.58512 32.6001 9.28956C33.659 9.994 34.5614 10.9085 35.2512 11.9761C35.9411 13.0438 36.4035 14.2418 36.6098 15.4956L36.6163 15.4934Z" fill="black"/>
<path d="M36.803 14.8516C36.7486 15.0671 36.6352 15.2633 36.4756 15.4182C35.9017 15.963 34.8827 15.7363 34.1004 15.6099C33.4206 15.5014 32.7564 15.3112 32.1223 15.0434C31.5702 14.8091 30.9079 14.5215 30.4115 14.8592C30.2205 14.9878 30.0896 15.1937 29.891 15.3071C29.6925 15.4204 29.4393 15.428 29.2047 15.4302C28.441 15.4356 27.6772 15.44 26.932 15.2678C25.8202 15.0074 24.6702 14.3559 23.613 14.7852C22.786 15.1207 22.3375 16.0207 22.1139 16.8847C22.0048 17.3086 21.924 17.7564 21.6774 18.1148C21.4309 18.4733 20.9541 18.7304 20.5482 18.5615C19.9492 18.312 19.8608 17.2966 19.1385 17.2454C18.3453 17.1898 18.3551 18.008 18.5864 18.5997C18.9923 19.6315 19.5444 20.6578 19.3633 21.7517C19.1832 21.7517 18.8854 21.7452 18.7086 21.7408C18.8461 21.5066 18.5842 21.2277 18.3235 21.1481C18.0627 21.0686 17.7583 21.0697 17.5597 20.8801C17.3612 20.6905 17.3601 20.3974 17.3808 20.1348C17.4261 19.5736 17.5636 19.0237 17.7878 18.5071C17.9307 18.1802 18.1151 17.8261 18.006 17.484C17.9405 17.3289 17.8616 17.1798 17.7703 17.0383C17.5434 16.6025 17.5968 16.0577 17.791 15.6078C17.874 15.416 17.934 15.2351 18.0027 15.063C18.0895 14.8183 18.2151 14.5891 18.3748 14.3842C18.6246 14.0737 18.869 13.6063 18.593 13.3175C18.5231 13.2445 18.6628 13.1944 18.6181 13.0996C18.6102 13.0834 18.6047 13.0662 18.6017 13.0484C18.5889 12.9336 18.6167 12.818 18.6803 12.7216C18.6931 12.6965 18.7074 12.6721 18.7228 12.6486C18.7354 12.6237 18.7496 12.5996 18.7654 12.5766C19.007 12.1738 19.3281 11.8243 19.7091 11.5492C19.9459 11.3781 20.223 11.2136 20.3169 10.9369C20.426 10.61 20.2339 10.2624 20.2176 9.91706C20.1794 9.14021 21.0217 8.59871 21.7942 8.50065C22.5667 8.40259 23.3675 8.56493 24.1203 8.36554C25.1885 8.08444 25.9392 7.14307 26.9091 6.61464C27.4397 6.33131 28.0282 6.17283 28.6295 6.1513C29.2309 6.12978 29.8292 6.24577 30.3787 6.49043C31.5113 7.00688 32.3656 8.05066 33.5483 8.4429C33.9673 8.58236 34.4212 8.63793 34.7987 8.86891C35.2351 9.13694 35.5002 9.60545 35.7272 10.0674C36.073 10.768 36.1429 11.4718 36.3818 12.2138C36.5717 12.8022 36.8346 13.5714 36.8564 14.2491C36.8687 14.4515 36.8507 14.6546 36.803 14.8516Z" fill="#896363"/>
<g opacity="0.1">
<path opacity="0.1" d="M18.7348 13.4864C18.7522 13.4167 18.754 13.344 18.7398 13.2735C18.7256 13.203 18.696 13.1366 18.6529 13.0789C18.6813 13.1639 18.558 13.213 18.6257 13.2838C18.6796 13.3404 18.7172 13.4103 18.7348 13.4864Z" fill="black"/>
<path opacity="0.1" d="M18.6497 12.8294C18.6369 12.8675 18.6292 12.907 18.6268 12.9471C18.6476 12.9122 18.6759 12.8763 18.6497 12.8294Z" fill="black"/>
<path opacity="0.1" d="M36.5063 15.1523C35.9313 15.6971 34.9133 15.4716 34.1288 15.3441C33.4495 15.2349 32.7859 15.0435 32.1529 14.7743C31.5997 14.5389 30.9385 14.2513 30.441 14.589C30.2511 14.7176 30.1202 14.9235 29.9206 15.0369C29.7209 15.1502 29.4688 15.1578 29.2343 15.16C28.4705 15.16 27.7068 15.1698 26.9605 14.9965C25.8498 14.7372 24.6998 14.0868 23.6425 14.515C22.8155 14.8516 22.3671 15.7505 22.1434 16.6145C22.0343 17.0384 21.9546 17.4862 21.707 17.8457C21.4593 18.2053 20.9825 18.4602 20.5777 18.2924C19.9787 18.0418 19.8903 17.0275 19.168 16.9762C18.604 16.9359 18.4468 17.3391 18.485 17.7869C18.5178 17.4448 18.7032 17.1811 19.168 17.2138C19.8903 17.265 19.9787 18.2804 20.5777 18.5299C20.9825 18.6988 21.4604 18.445 21.707 18.0832C21.9535 17.7215 22.0343 17.2759 22.1434 16.8531C22.3671 15.9891 22.8155 15.0891 23.6425 14.7536C24.6998 14.3243 25.8498 14.9715 26.9605 15.2351C27.7024 15.4084 28.4727 15.4029 29.2343 15.3975C29.4688 15.3975 29.7165 15.391 29.9206 15.2755C30.1246 15.16 30.2479 14.9562 30.441 14.8266C30.9385 14.4899 31.5997 14.7775 32.1529 15.0118C32.7861 15.2809 33.4495 15.4726 34.1288 15.5827C34.9133 15.7091 35.9313 15.9368 36.5063 15.3899C36.8183 15.0924 36.9121 14.662 36.8914 14.1914C36.874 14.5651 36.7648 14.9039 36.5063 15.1523Z" fill="black"/>
<path opacity="0.1" d="M20.2557 9.71986C20.2497 9.77412 20.2475 9.82873 20.2492 9.8833C20.2601 10.1099 20.3463 10.3365 20.3736 10.5577C20.414 10.2864 20.2885 10.0031 20.2557 9.71986Z" fill="black"/>
<path opacity="0.1" d="M18.0387 17.4502C18.0477 17.4828 18.0546 17.5159 18.0594 17.5493C18.0771 17.437 18.07 17.3221 18.0387 17.2127C17.9736 17.057 17.8948 16.9075 17.803 16.766C17.721 16.6048 17.6724 16.4288 17.6601 16.2484C17.6379 16.5088 17.6873 16.7702 17.803 17.0046C17.895 17.1457 17.9739 17.2948 18.0387 17.4502Z" fill="black"/>
<path opacity="0.1" d="M19.3928 21.4794L18.7545 21.4695C18.7694 21.5081 18.7754 21.5494 18.772 21.5906C18.7686 21.6317 18.7559 21.6715 18.7349 21.7071C18.9149 21.7071 19.2138 21.7136 19.3895 21.718C19.42 21.5315 19.4306 21.3423 19.4212 21.1536C19.4187 21.2627 19.4092 21.3715 19.3928 21.4794Z" fill="black"/>
<path opacity="0.1" d="M18.3486 20.8768C18.0878 20.7984 17.7845 20.7973 17.5903 20.6066C17.476 20.4817 17.4115 20.3193 17.4092 20.1501C17.3928 20.4007 17.4092 20.6709 17.5903 20.8452C17.7845 21.0359 18.0878 21.037 18.3486 21.1155C18.4334 21.1401 18.5123 21.1818 18.5804 21.238C18.6486 21.2942 18.7044 21.3638 18.7447 21.4423C18.8549 21.2168 18.6017 20.952 18.3486 20.8768Z" fill="black"/>
</g>
<path opacity="0.1" d="M38.1984 69.8607C38.0762 69.7899 37.9518 69.7235 37.8252 69.6603C37.5645 69.529 37.2972 69.4112 37.0244 69.3073C35.7642 68.8279 34.4145 68.6535 33.0463 68.6829C32.5008 68.891 32.1462 69.0403 32.1462 69.0403L31.4523 69.2495L31.3366 69.2844C31.329 69.2081 31.3202 69.1318 31.3126 69.0545C31.305 68.9771 31.2962 68.903 31.2875 68.8268C31.0431 66.5158 30.8511 64.1417 30.8511 64.1417V62.0912V61.8526L30.838 55.811L30.7289 53.8193L30.6776 52.9379L30.6678 52.7701L30.6481 52.4258L30.6372 52.221C30.6132 52.1561 30.5928 52.0899 30.5761 52.0227C30.5685 51.9954 30.5609 51.9649 30.5543 51.9333C30.527 51.8244 30.4976 51.6838 30.467 51.5313C30.2674 50.5289 30.0175 48.839 30.0022 48.4958C29.9826 48.0382 29.5854 45.3012 29.5854 45.3012C29.5451 43.7944 28.2762 40.9572 27.9565 40.4222C27.6368 39.8873 27.28 36.6731 27.4 36.4999C27.4622 36.4073 27.5026 35.8592 27.5277 35.3537C27.5277 35.2959 27.5331 35.2393 27.5353 35.1837C27.5517 34.7882 27.5593 34.4581 27.5593 34.4581L28.8075 34.2118L29.1425 34.1464L29.1687 34.141L29.1796 34.1628C29.2156 34.2292 29.3279 34.4417 29.46 34.7206C29.4752 34.75 29.4894 34.7816 29.5047 34.8132C29.5112 34.8285 29.5189 34.8437 29.5265 34.859C29.7709 35.3929 30.0535 36.0956 30.0415 36.4999C30.0219 37.2146 30.8369 38.9405 30.8369 38.9405C30.9155 39.337 32.6437 43.2834 32.6437 43.2834C32.6437 43.2834 34.0545 47.1513 33.9748 47.7865C33.8952 48.4217 34.6502 52.6263 34.6502 52.6263L35.4249 56.9507C35.8013 57.8027 36.2977 59.7661 36.2977 59.7661L36.4865 60.8796L36.5225 61.0921L37.0255 64.0633L37.272 65.5189C37.272 65.5189 37.3757 66.2925 37.5328 67.1532C37.5459 67.2306 37.5612 67.309 37.5765 67.3875C37.6732 67.9541 37.8107 68.513 37.9878 69.0599C38.0756 69.3219 38.1459 69.5895 38.1984 69.8607Z" fill="black"/>
<path d="M38.3337 69.9381C38.2889 69.9119 38.2442 69.8858 38.1984 69.8607C38.0762 69.7899 37.9518 69.7234 37.8252 69.6603C37.5645 69.529 37.2972 69.4112 37.0244 69.3072C35.7642 68.8278 34.4145 68.6535 33.0463 68.6829C32.5008 68.891 32.1462 69.0403 32.1462 69.0403L31.4523 69.2495C31.4435 69.1732 31.4359 69.097 31.4272 69.0196C31.4185 68.9422 31.4119 68.8801 31.4054 68.8104C31.161 66.5049 30.9689 64.1417 30.9689 64.1417V62.0715V61.8329L30.9558 55.8066L30.8467 53.9043L30.8249 53.5099L30.8096 53.2429L30.79 52.8899L30.7704 52.5315L30.7562 52.2732V52.2166C30.7562 52.2111 30.7562 52.2046 30.7485 52.1981C30.7278 52.1392 30.7027 52.0499 30.6754 51.9366L30.6623 51.8821C30.6569 51.857 30.6503 51.8298 30.6449 51.8026C30.4398 50.8732 30.1386 48.8695 30.1223 48.4936C30.1026 48.036 29.7055 45.299 29.7055 45.299C29.6651 43.7922 28.3962 40.955 28.0765 40.4201C27.7568 39.8851 27.4011 36.6709 27.5201 36.4977C27.5888 36.3887 27.6292 35.7274 27.6553 35.1815C27.6553 35.1379 27.6553 35.0954 27.6553 35.0551C27.6695 34.7184 27.675 34.4559 27.675 34.4559L28.8359 34.2271L29.1305 34.1693L29.1763 34.1606L29.2854 34.1388C29.2854 34.1388 29.4283 34.4025 29.5996 34.7653L29.6215 34.8111C29.8713 35.3493 30.167 36.0815 30.1583 36.4977C30.1386 37.2124 30.9537 38.9383 30.9537 38.9383C31.0322 39.3349 32.7605 43.2812 32.7605 43.2812C32.7605 43.2812 34.1712 47.1491 34.0916 47.7843C34.0119 48.4195 34.767 52.6241 34.767 52.6241L35.5416 56.9485C35.918 57.8005 36.4145 59.7639 36.4145 59.7639L36.5901 60.8011L36.6261 61.0114L37.0222 63.3561L37.3877 65.5167C37.3877 65.5167 37.4968 66.287 37.6474 67.151C37.6616 67.2295 37.6757 67.3079 37.691 67.3874C37.7877 67.9566 37.9251 68.5181 38.1024 69.0675C38.1991 69.3522 38.2764 69.643 38.3337 69.9381Z" fill="#FF4C01"/>
<path d="M37.3496 13.98C37.3496 13.98 36.9328 14.5161 36.5564 14.5161C36.1799 14.5161 34.7146 14.4561 33.9509 14.2186C33.1871 13.9811 29.4426 13.8013 29.4426 13.8013C29.4426 13.8013 24.14 13.8209 23.961 13.6422C23.7821 13.4635 20.6638 12.5113 20.3463 12.5712C20.2798 12.5843 20.1172 12.6126 19.9001 12.6486L19.6513 12.6889C19.2749 12.7488 18.8046 12.8185 18.3747 12.8697C17.8434 12.9318 17.3764 12.9634 17.228 12.909V12.4524C17.228 12.4524 17.8434 11.559 17.8827 11.303C17.9219 11.0469 18.4391 7.33484 19.7899 6.00668C20.3479 4.94144 21.2509 4.09649 22.3517 3.60968C24.1792 2.8154 26.0068 2.14206 26.0068 2.14206L26.3265 2.09629L27.3575 1.94376C27.3889 1.9126 27.4228 1.88417 27.459 1.85877C27.7449 1.64086 28.6112 1.16691 29.7404 2.18564L29.9401 2.50379C29.9401 2.50379 33.4152 3.31659 35.0234 6.15268C36.6316 8.98877 36.7124 11.766 36.8313 13.0354C36.8313 13.0354 36.7517 13.3927 36.911 13.5311C36.9686 13.582 37.0236 13.6358 37.0757 13.6924C37.0899 13.7065 37.1041 13.7207 37.1172 13.7359C37.163 13.7817 37.2056 13.8296 37.2405 13.8689C37.2446 13.8719 37.2483 13.8756 37.2514 13.8798C37.2599 13.8901 37.269 13.8999 37.2787 13.9092L37.3496 13.98Z" fill="#FED253"/>
<path opacity="0.05" d="M37.3495 13.98C37.3495 13.98 36.9327 14.516 36.5563 14.516C36.1799 14.516 34.7146 14.4561 33.9508 14.2186C33.1871 13.9811 29.4425 13.8013 29.4425 13.8013C29.4425 13.8013 24.1399 13.8209 23.961 13.6422C23.7821 13.4635 20.6638 12.5113 20.3463 12.5712C20.2797 12.5843 20.1171 12.6126 19.9 12.6486L19.8433 12.2999L19.8291 12.2138C19.8291 12.2138 25.8475 10.9249 29.8593 11.6004C33.8712 12.2759 36.8313 13.0277 36.8313 13.0277C36.8313 13.0277 36.7516 13.3851 36.9109 13.5235C36.9686 13.5743 37.0236 13.6282 37.0757 13.6847C37.0899 13.6989 37.104 13.713 37.1171 13.7283C37.163 13.7741 37.2055 13.822 37.2404 13.8612C37.2446 13.8643 37.2483 13.868 37.2513 13.8721C37.2599 13.8824 37.269 13.8922 37.2786 13.9015L37.3495 13.98Z" fill="black"/>
<path opacity="0.1" d="M36.803 14.8516C36.0599 14.9094 34.6907 14.7285 34.0917 14.6403C33.9214 14.6152 33.7545 14.5847 33.5865 14.5476C32.9438 14.4082 30.9679 14.017 29.7677 14.1979C28.3177 14.4158 24.2262 14.0192 24.2262 14.0192C24.2262 14.0192 21.7036 13.5039 20.69 13.0876C20.318 12.934 19.6961 12.8861 19.0774 12.9623C18.9197 12.982 18.763 13.01 18.6083 13.0462C17.7638 13.2456 17.0513 13.7 17.1746 14.4746C17.1274 14.4181 17.0837 14.3588 17.0437 14.297C16.9902 13.5888 17.2106 13.1672 17.5161 12.9188L17.5881 12.8893C17.9613 12.7835 18.3411 12.7023 18.725 12.6464C18.785 12.6366 18.8472 12.6279 18.9105 12.6202C19.9961 12.4742 21.5662 12.4415 22.8907 13.1073C22.8907 13.1073 24.1214 13.6836 24.9561 13.6836C25.7908 13.6836 32.5827 13.7436 34.1724 14.199C34.4889 14.2903 34.8116 14.3584 35.138 14.4027C35.7176 14.4773 36.3065 14.4219 36.8619 14.2404C36.8732 14.4459 36.8534 14.652 36.803 14.8516Z" fill="black"/>
<path opacity="0.1" d="M37.3496 13.98C37.3496 13.98 36.9328 14.516 36.5564 14.516C36.1799 14.516 34.7146 14.4561 33.9509 14.2186C33.1871 13.9811 29.4426 13.8013 29.4426 13.8013C29.4426 13.8013 24.14 13.8209 23.961 13.6422C23.7821 13.4635 20.6638 12.5113 20.3463 12.5712C20.2798 12.5843 20.1172 12.6126 19.9001 12.6486L19.6513 12.6889C19.2192 12.6867 18.7892 12.7476 18.3747 12.8697C17.8434 12.9318 17.3764 12.9634 17.228 12.909V12.8185C17.3424 12.7522 17.4617 12.6947 17.5848 12.6464C18.3211 12.4405 19.0792 12.3227 19.8433 12.2956C20.7958 12.2607 21.9098 12.3718 22.8885 12.8643C22.8885 12.8643 24.1192 13.4407 24.9539 13.4407C25.7886 13.4407 32.5805 13.4995 34.1702 13.956C34.4868 14.0465 34.8095 14.1142 35.1358 14.1587C35.8518 14.2488 36.5788 14.1445 37.2405 13.8569C37.2446 13.8599 37.2483 13.8636 37.2514 13.8678C37.2599 13.8781 37.269 13.8879 37.2787 13.8972L37.3496 13.98Z" fill="black"/>
<path d="M17.1899 14.4561C17.1899 14.4561 15.8587 13.4439 17.587 12.7695C17.587 12.7695 20.606 11.8379 22.8907 12.9874C22.8907 12.9874 24.1214 13.5616 24.9561 13.5616C25.7908 13.5616 32.5827 13.6215 34.1724 14.0781C34.489 14.1686 34.8117 14.2363 35.138 14.2807C35.9837 14.3831 36.8404 14.2205 37.5896 13.8155C37.6987 13.7555 37.7969 13.725 37.8264 13.7599C37.9257 13.8798 37.8471 14.5738 36.9732 14.7122C36.2913 14.8211 34.7419 14.6152 34.0906 14.5204C33.9214 14.4954 33.7534 14.4638 33.5865 14.4278C32.9438 14.2883 30.9679 13.8972 29.7623 14.0781C28.3133 14.296 24.2207 13.8994 24.2207 13.8994C24.2207 13.8994 21.6993 13.384 20.6856 12.9667C19.672 12.5494 16.8123 12.909 17.1899 14.4561Z" fill="#FED253"/>
<path opacity="0.1" d="M28.4115 3.82105C28.3024 3.66415 26.9003 2.54301 26.3286 2.08976L27.3597 1.93722C27.391 1.90606 27.425 1.87763 27.4611 1.85223C28.2107 2.6378 28.4115 3.82105 28.4115 3.82105Z" fill="black"/>
<path opacity="0.1" d="M23.8639 9.83427L23.4067 10.5087L25.1546 10.4499L25.1939 9.69589L23.8639 9.83427Z" fill="black"/>
<path opacity="0.1" d="M34.5292 10.6481L34.7278 11.2627L35.8406 11.4413L35.3638 10.707L34.5292 10.6481Z" fill="black"/>
<path opacity="0.1" d="M15.4222 31.2776C15.5412 31.4759 19.4538 36.6164 20.487 36.4737C21.5202 36.331 15.4222 31.2776 15.4222 31.2776Z" fill="black"/>
<path opacity="0.1" d="M28.5315 35.9758C28.5315 35.9758 29.4851 36.8888 29.3454 37.2451C29.2058 37.6014 28.5315 35.9758 28.5315 35.9758Z" fill="black"/>
<path opacity="0.1" d="M18.1237 42.244C18.1237 42.244 17.2891 46.1511 17.7266 46.2753C18.1641 46.3995 18.1237 42.244 18.1237 42.244Z" fill="black"/>
<path opacity="0.1" d="M28.849 57.417C28.9876 57.8136 30.1397 60.3926 30.3983 60.5309C30.6569 60.6693 28.849 57.417 28.849 57.417Z" fill="black"/>
<path opacity="0.1" d="M42.2365 46.8255C42.1961 46.9639 41.2032 47.7778 41.4214 48.0752C41.6397 48.3727 42.2365 46.8255 42.2365 46.8255Z" fill="black"/>
<path opacity="0.1" d="M34.5291 54.0645C34.5095 54.1647 34.3109 56.2436 34.6884 56.6434C35.0659 57.0433 34.5291 54.0645 34.5291 54.0645Z" fill="black"/>
<path opacity="0.1" d="M44.7067 64.8641C44.4187 65.0242 44.1208 65.1789 43.8175 65.3271C43.4902 65.4862 43.1628 65.6376 42.829 65.7804C42.6959 65.8381 42.5627 65.8948 42.4307 65.9492C42.23 66.032 42.0314 66.1116 41.835 66.1879C41.2382 66.421 40.6632 66.6237 40.1515 66.7947C39.9529 66.8612 39.7631 66.9222 39.5863 66.9789C38.696 67.2611 38.1046 67.4147 38.1046 67.4147C37.9695 67.3858 37.8313 67.3745 37.6933 67.3809C37.6551 67.3809 37.6158 67.3809 37.5755 67.3809C37.3907 67.3943 37.2067 67.4176 37.0245 67.4506C35.8057 67.6686 34.084 68.2798 33.0464 68.6797C32.5009 68.8878 32.1463 69.037 32.1463 69.037L31.4524 69.2462L31.3367 69.2811C30.585 69.5099 29.5277 69.8346 29.1469 69.9697C28.5316 70.1876 23.1886 71.2978 23.1886 71.2978C22.7005 71.4309 22.2018 71.522 21.6982 71.5702C20.4571 71.6839 19.2096 71.7123 17.9645 71.6552C16.7142 71.7358 14.6913 71.4613 13.5141 71.276L13.3264 71.2466C12.8714 71.1725 12.5823 71.1192 12.5823 71.1192L12.735 70.9089L15.8675 66.5932L15.886 66.567L18.8047 62.5477L18.9138 62.4017L19.1789 62.0367C19.1789 62.0367 19.3382 61.8188 19.9514 61.8046C20.0234 61.8046 20.1019 61.8046 20.1881 61.8046C20.7032 61.846 21.2113 61.9495 21.7015 62.1129L21.8433 62.1554C23.9567 62.7601 27.2234 62.6087 27.2234 62.6087C27.2234 62.6087 29.256 62.2818 30.8534 62.0857L30.9723 62.0705C31.4943 61.9968 32.0198 61.9513 32.5467 61.9343C33.5199 61.9539 35.6257 61.4385 35.6257 61.4385C36.0785 61.3415 36.2694 61.2598 36.5248 61.0779C36.5586 61.0539 36.5946 61.0278 36.6339 60.9994C36.743 60.9177 36.8684 60.8175 37.0299 60.6933C37.3245 60.4677 37.738 60.1616 38.3883 59.7323C38.445 59.6952 38.505 59.6582 38.5694 59.6233C38.6338 59.5885 38.7156 59.5416 38.7942 59.5024C39.4239 59.2046 40.0879 58.985 40.7712 58.8487C41.338 58.727 41.9132 58.648 42.4918 58.6122H42.578C44.2146 58.5251 45.8862 58.8051 46.8638 59.7236C47.0347 59.885 47.1836 60.0681 47.3067 60.2683C47.3665 60.3634 47.4197 60.4624 47.466 60.5647C47.5552 60.7598 47.6215 60.9645 47.6635 61.1748C47.6715 61.2141 47.6781 61.2533 47.6831 61.2925C47.6831 61.3045 47.6831 61.3154 47.6831 61.3274C47.6831 61.359 47.6897 61.3906 47.6919 61.4222C47.7792 62.7264 46.424 63.9053 44.7067 64.8641Z" fill="black"/>
<path d="M12.5823 70.8849C12.5823 70.8849 16.1173 71.5386 17.9645 71.4199C17.9645 71.4199 21.361 71.5986 23.1886 71.0636C23.1886 71.0636 28.5348 69.9523 29.1469 69.7343C29.759 69.5164 32.1463 68.8017 32.1463 68.8017C32.1463 68.8017 36.7942 66.8579 38.1046 67.175C38.1046 67.175 48.3934 64.5176 47.658 60.9275C46.9227 57.3375 40.4286 58.1514 38.3839 59.4991C36.3393 60.8469 36.6382 60.9875 35.6235 61.2054C35.6235 61.2054 33.5178 61.7207 32.5445 61.7011C31.5713 61.6815 27.2212 62.3755 27.2212 62.3755C27.2212 62.3755 23.805 62.5346 21.7004 61.8798C19.5957 61.225 19.1778 61.8003 19.1778 61.8003L12.5823 70.8849Z" fill="#FFA2A2"/>
<path opacity="0.1" d="M20.2481 61.5671C20.2487 61.5714 20.2487 61.5758 20.2481 61.5802C20.2405 61.6611 20.2195 61.7403 20.1859 61.8144C19.767 62.8408 17.3884 65.6093 17.3884 65.6093C17.28 65.9382 17.1491 66.2593 16.9967 66.5703C16.669 67.2351 16.2915 67.8743 15.8675 68.4824C15.2389 69.3923 14.5527 70.261 13.813 71.0832H13.8075C13.7134 71.1529 13.6154 71.2173 13.514 71.2761C13.2576 71.4286 12.8725 71.6171 12.5092 71.64C12.4473 71.6436 12.3852 71.6418 12.3237 71.6345C12.3619 71.6345 12.399 71.6258 12.4328 71.6193L12.2997 71.58L12.1175 71.5234C11.812 71.4275 11.509 71.3225 11.2086 71.2085L11.0264 71.1388C10.7354 71.0269 10.4507 70.9067 10.1721 70.7781L9.98987 70.6953C9.69892 70.5602 9.41415 70.4175 9.13556 70.2671C9.03518 70.2148 8.9359 70.1582 8.8377 70.1048C8.54093 69.9392 8.24998 69.7656 7.96484 69.584C7.66225 69.3915 7.36621 69.1907 7.07671 68.9815C6.8585 68.5772 6.67847 68.2188 6.58027 68.0259C6.40134 67.6675 6.38606 67.1543 6.40788 66.7828C6.40788 66.7446 6.40788 66.7087 6.41443 66.6738C6.43298 66.4406 6.46135 66.2805 6.46135 66.2805C6.29967 66.0646 6.15382 65.8374 6.02492 65.6006C5.95086 65.483 5.90874 65.3482 5.90272 65.2094C5.90765 65.1538 5.90248 65.0977 5.88744 65.0438C5.80343 64.6995 5.44228 64.1079 5.10842 63.7364C4.85965 63.4629 4.84438 62.4409 4.86838 61.7164C4.88256 61.2805 4.90984 60.9602 4.90984 60.9602C4.86095 60.9287 4.82436 60.8814 4.80619 60.8262C4.71846 60.5877 4.65913 60.3398 4.62944 60.0875C4.62944 60.0515 4.61962 60.0156 4.61416 59.9785C4.54433 59.4784 4.51269 58.9761 4.51269 58.9761C3.7053 58.3889 3.32124 57.4726 3.1423 56.6554L3.11939 56.5465C3.02112 56.0442 2.9794 55.5326 2.99501 55.0211C2.99501 54.9721 2.99501 54.935 2.99501 54.9121C2.99501 54.8892 2.99501 54.8849 2.99501 54.8849C2.99501 54.8849 3.10194 52.5238 3.40089 51.6021C3.41289 51.5629 3.42598 51.5269 3.43908 51.4931C3.4611 51.4352 3.48965 51.38 3.52418 51.3286C3.63329 51.1837 3.71075 50.9102 3.77513 50.5866C3.81986 50.3622 3.85696 50.1127 3.88423 49.8643C3.90933 49.6572 3.92897 49.4513 3.94424 49.2606C3.98679 48.7507 3.99989 48.3531 3.99989 48.3531L3.79804 47.3594C3.74239 47.0881 3.69984 46.8146 3.67038 46.5411C3.67038 46.5052 3.66166 46.4692 3.65729 46.4322C3.60626 45.9272 3.59714 45.4188 3.63001 44.9123C3.63001 44.8752 3.63001 44.8393 3.63656 44.8033C3.72175 43.6496 4.02379 42.5222 4.52688 41.4802L4.58143 41.3712C4.65417 41.226 4.73054 41.0832 4.81055 40.943C4.86838 40.8395 4.92948 40.7371 4.99276 40.6358C5.16052 40.3645 5.34262 40.1022 5.5383 39.8502C5.56667 39.8132 5.59613 39.7772 5.62558 39.7413C5.96604 39.3198 6.3444 38.9303 6.75593 38.5776C7.85792 37.6319 8.86934 37.2211 9.78802 37.1895C13.8053 37.0479 16.0584 44.143 16.4228 45.3862C16.4577 45.5061 16.4752 45.5714 16.4752 45.5714C16.4752 45.5714 18.1031 47.1981 17.6263 47.9118C17.5338 48.0689 17.4776 48.2445 17.4615 48.4261C17.3306 49.3859 17.7059 50.9669 17.7059 50.9669C17.7059 50.9669 17.839 51.4027 18.2275 52.4465L18.342 52.7516C18.5853 53.4053 18.6421 54.5025 18.5024 55.4852C18.3682 56.4266 18.0529 57.259 17.5477 57.4726C16.5145 57.9084 16.7927 58.3442 17.0306 58.7027C17.1719 58.9596 17.2898 59.2287 17.383 59.5068C17.5324 59.9088 17.671 60.3315 17.7234 60.4961C17.7387 60.5418 17.7463 60.5669 17.7463 60.5669C17.891 60.5109 18.0414 60.4708 18.1947 60.447C18.39 60.4198 18.5832 60.4394 18.6202 60.6061C18.6399 60.6955 18.7523 60.8011 18.9105 60.9068C19.3796 61.2293 20.2481 61.5671 20.2481 61.5671Z" fill="black"/>
<path d="M20.0103 61.5671C20.0036 61.65 19.9826 61.7311 19.9481 61.8068C19.5313 62.8342 17.1506 65.6093 17.1506 65.6093C17.0417 65.938 16.9108 66.2591 16.7589 66.5703C16.4956 67.1072 16.1978 67.6265 15.8675 68.1251C15.1835 69.1554 14.4258 70.1349 13.6002 71.056L13.5751 71.0832C13.5751 71.0832 13.4791 71.1562 13.3264 71.2499C13.0534 71.4239 12.7527 71.5499 12.4372 71.6225L12.304 71.5833L12.1218 71.5266C11.8163 71.4308 11.5134 71.3258 11.213 71.2118L11.0308 71.142C10.7398 71.0302 10.455 70.91 10.1765 70.7814L9.99424 70.6986C9.70329 70.5635 9.41852 70.4208 9.13993 70.2704C9.03955 70.2181 8.94027 70.1614 8.84207 70.1081C8.5453 69.9424 8.25434 69.7688 7.96921 69.5872C7.66662 69.3948 7.37058 69.1939 7.08108 68.9847C6.94724 68.8888 6.81486 68.7904 6.68393 68.6895C6.53663 68.4105 6.4188 68.1752 6.3457 68.0292C6.16676 67.6707 6.15149 67.1576 6.17331 66.786C6.17331 66.7479 6.17331 66.7119 6.17985 66.6771C6.1984 66.4439 6.22677 66.2837 6.22677 66.2837C6.22677 66.2837 6.13839 66.165 6.03147 66.0037C5.97146 65.9144 5.90709 65.8109 5.84926 65.7085C5.74015 65.5167 5.65505 65.3228 5.67141 65.2127C5.67363 65.1939 5.67363 65.1749 5.67141 65.1561C5.66978 65.1193 5.66429 65.0828 5.65505 65.0471C5.57104 64.7028 5.2088 64.1112 4.87493 63.7396C4.62617 63.4662 4.61089 62.4442 4.63381 61.7196C4.63381 61.6826 4.63381 61.6466 4.63381 61.6107C4.64908 61.2348 4.67199 60.9635 4.67199 60.9635C4.5487 60.9101 4.45378 60.5146 4.39268 60.0918L4.37631 59.9829C4.30648 59.4828 4.27484 58.9805 4.27484 58.9805C3.46745 58.3932 3.08339 57.4769 2.90555 56.6598C2.78165 56.0874 2.73396 55.5013 2.76371 54.9165C2.76371 54.8991 2.76371 54.8892 2.76371 54.8892C2.76371 54.8892 2.85754 52.5162 3.15649 51.5934C3.1685 51.5541 3.18159 51.5182 3.19468 51.4844C3.22086 51.4279 3.25344 51.3745 3.29179 51.3253C3.45763 51.0944 3.56783 50.5387 3.63984 49.9699L3.65293 49.861C3.74349 49.0983 3.76858 48.3498 3.76858 48.3498L3.56565 47.3561C3.51036 47.0837 3.46781 46.811 3.43799 46.5379C3.43253 46.5019 3.42926 46.4649 3.4249 46.4289C3.37388 45.9239 3.36475 45.4155 3.39762 44.909C3.39762 44.8719 3.39762 44.836 3.40526 44.8C3.48993 43.6462 3.79199 42.5188 4.29557 41.4769C4.31303 41.4399 4.33049 41.4039 4.35013 41.368C4.49041 41.085 4.64631 40.81 4.81711 40.5443C4.87602 40.4516 4.93603 40.3601 4.99931 40.2697C5.0986 40.1259 5.20225 39.9842 5.31027 39.8469L5.39756 39.738C5.7351 39.3181 6.11015 38.9297 6.51809 38.5776C7.71827 37.5502 8.80934 37.1536 9.7913 37.1895C13.6592 37.3279 15.8304 44.1681 16.1872 45.3862C16.2221 45.5061 16.2395 45.5714 16.2395 45.5714C16.2395 45.5714 17.8685 47.1981 17.3917 47.9118C17.2993 48.0689 17.243 48.2445 17.227 48.4261C17.0949 49.3859 17.4714 50.9669 17.4714 50.9669C17.4714 50.9669 17.6045 51.4027 17.9929 52.4465C18.0278 52.5434 18.066 52.6448 18.102 52.7516C18.3453 53.4053 18.402 54.5025 18.2624 55.4852C18.1282 56.4277 17.814 57.259 17.3077 57.4726C16.2755 57.9084 16.5527 58.3442 16.7916 58.7027C16.933 58.9596 17.0509 59.2287 17.144 59.5068C17.3328 60.0199 17.5063 60.5669 17.5063 60.5669C17.5777 60.5394 17.6505 60.5157 17.7245 60.4961C17.8763 60.4462 18.037 60.4295 18.1958 60.447C18.2398 60.4504 18.2815 60.4677 18.315 60.4962C18.3486 60.5248 18.3721 60.5633 18.3824 60.6061C18.4119 60.7369 18.6377 60.8992 18.9116 61.0528C19.2672 61.2461 19.6341 61.4178 20.0103 61.5671Z" fill="#CED7E7"/>
<path opacity="0.1" d="M5.64954 51.09C6.02705 51.0704 10.0793 49.5036 10.914 50.0386C11.7486 50.5736 16.9149 54.0449 16.9149 54.0449C16.9149 54.0449 13.6776 49.8207 10.8572 48.8292C8.0368 47.8377 5.64954 51.09 5.64954 51.09Z" fill="black"/>
<path opacity="0.1" d="M11.4749 57.4769C11.4749 57.4769 15.5271 58.2897 16.1425 58.8454L11.4749 57.4769Z" fill="black"/>
<path opacity="0.1" d="M10.6947 63.5283C10.6358 63.5882 9.16721 66.8797 9.28505 66.8797C9.40288 66.8797 10.6554 64.9185 10.6554 64.9185L10.6947 63.5283Z" fill="black"/>
<path opacity="0.1" d="M13.4562 59.5787C13.4562 59.5787 12.2647 59.996 12.4033 60.0352C12.5419 60.0744 13.4158 59.7573 13.4562 59.5787Z" fill="black"/>
<path opacity="0.1" d="M12.2648 64.5579C12.4633 64.9741 13.0984 66.2238 13.238 66.0255C13.3777 65.8272 12.2648 64.5579 12.2648 64.5579Z" fill="black"/>
<path opacity="0.1" d="M27.1382 31.5686L26.968 31.8105C26.968 31.8105 25.6161 30.8593 25.0608 30.3831C24.5054 29.907 23.1939 32.0883 22.1607 32.6832C21.1275 33.2781 19.3807 33.4371 19.3807 33.4371C19.3807 33.4371 18.0299 32.0883 18.0714 31.6939C18.1128 31.2995 17.4364 31.1785 17.396 30.9007C17.3556 30.6228 17.1178 29.8297 16.8003 29.4331C16.6322 29.2239 16.6082 28.569 16.6235 27.9992C16.7326 27.9774 16.8003 27.9654 16.8003 27.9654C16.9699 27.6577 17.1842 27.3768 17.4364 27.1319C17.7942 26.8149 18.3496 24.8711 18.3496 24.8711C18.6671 23.8001 19.3021 24.1172 19.3021 24.1172C19.3021 25.7438 20.9714 26.3387 21.805 27.0132C22.6386 27.6876 23.9501 29.4331 24.9833 29.7904C25.8311 30.0792 26.8228 31.1959 27.1382 31.5686Z" fill="black"/>
<path d="M27.1383 31.33L26.9681 31.5729C26.9681 31.5729 25.6108 30.6239 25.0554 30.1445C24.5 29.6651 23.1886 31.8497 22.1553 32.4446C21.1221 33.0395 19.3753 33.1996 19.3753 33.1996C19.3753 33.1996 18.0245 31.8497 18.066 31.4563C18.1075 31.063 17.431 30.941 17.3906 30.6621C17.3503 30.3831 17.1124 29.591 16.7949 29.1944C16.6269 28.9852 16.6029 28.3304 16.6181 27.7606L16.7949 27.7279C16.9645 27.4202 17.1788 27.1393 17.431 26.8944C17.7889 26.5763 18.3442 24.6336 18.3442 24.6336C18.6617 23.5626 19.2967 23.8785 19.2967 23.8785C19.2967 25.5052 20.9661 26.1012 21.7996 26.7756C22.6332 27.4501 23.9447 29.1944 24.9779 29.5518C25.8312 29.8449 26.8229 30.9573 27.1383 31.33Z" fill="#CED7E7"/>
<path opacity="0.1" d="M27.2397 31.6525C27.2397 31.6525 26.0689 32.2866 25.1546 32.3465C25.0349 32.3521 24.915 32.3451 24.7968 32.3258C24.7968 32.3258 25.806 31.5729 26.7432 31.4193L27.2397 31.6525Z" fill="black"/>
<path opacity="0.1" d="M29.6237 34.8851C29.6237 34.8851 28.1475 34.311 27.6598 35.175C27.6762 34.7784 27.6827 34.4493 27.6827 34.4493L29.292 34.1312C29.292 34.1312 29.447 34.4177 29.6281 34.8034C29.6237 34.8546 29.6237 34.8851 29.6237 34.8851Z" fill="black"/>
<path d="M24.7968 32.3258C24.7968 32.3258 26.5654 31.2657 27.4153 31.355C28.3067 31.4476 30.0339 31.513 30.0339 31.513C30.0339 31.513 29.4382 32.8619 29.5178 33.1397C29.5975 33.4175 29.6171 34.7664 29.6171 34.7664C29.6171 34.7664 27.8299 34.0723 27.5321 35.3613C27.5321 35.3613 26.5588 33.9133 25.9031 33.4764C25.468 33.1624 25.0932 32.7727 24.7968 32.3258Z" fill="#FF4C01"/>
<path opacity="0.1" d="M34.7877 33.557C34.2716 33.557 32.4441 32.4053 32.047 31.6525C31.6498 30.8996 31.0934 31.7309 30.5773 32.0098C30.25 32.1885 28.9527 31.8148 28.2533 31.5435C28.6079 31.3027 29.3935 30.625 29.6237 30.4627C29.9008 30.2633 30.1801 27.0502 30.1801 27.0502C31.173 26.5349 32.2455 31.2156 32.2455 31.2156C32.2455 31.2156 34.1134 31.7712 34.2716 32.1678C34.3022 32.2463 34.4429 32.3857 34.6546 32.5546C34.8728 33.1037 34.9928 33.557 34.7877 33.557Z" fill="black"/>
<path d="M34.7877 33.3184C34.2716 33.3184 32.4441 32.1678 32.0469 31.4149C31.6498 30.6621 31.0933 31.4934 30.5772 31.7712C30.2499 31.9499 29.2101 31.6045 28.5107 31.3354C28.8653 31.0957 29.3934 30.3897 29.6236 30.2262C29.9008 30.028 30.1801 26.8149 30.1801 26.8149C31.173 26.2995 32.2455 30.9802 32.2455 30.9802C32.2455 30.9802 34.1134 31.5359 34.2716 31.9325C34.3022 32.0109 34.4429 32.1504 34.6546 32.3193C34.8728 32.8651 34.9928 33.3184 34.7877 33.3184Z" fill="#CED7E7"/>
<path d="M41.8459 68.0717L59.1187 53.6896C59.2911 53.5442 59.5107 53.4668 59.7363 53.4717L66.1801 53.6406C66.1801 53.6406 66.6264 53.9675 65.9717 54.6822L49.6777 68.0346C49.5016 68.1784 49.2831 68.2603 49.0557 68.2678L42.0096 68.501C41.959 68.5026 41.9092 68.4883 41.867 68.4603C41.8249 68.4323 41.7926 68.3918 41.7746 68.3446C41.7566 68.2973 41.7538 68.2456 41.7666 68.1967C41.7794 68.1478 41.8071 68.1041 41.8459 68.0717Z" fill="#FF4C01"/>
<path d="M50.2013 66.3023C50.2013 66.3023 53.9742 71.6977 58.1661 66.6793C62.358 61.6608 61.1458 59.0241 59.8747 58.8846C58.6036 58.7452 51.4517 64.2398 50.2013 66.3023Z" fill="#FFA2A2"/>
<path opacity="0.1" d="M75.6483 5.95656C75.6483 5.95656 80.5112 -3.46803 86.259 1.39245C86.259 1.39245 87.5137 1.84897 87.4188 3.17386C87.4188 3.17386 86.9355 2.9091 86.5514 3.92129C86.4103 4.28044 86.2272 4.62166 86.0059 4.93784C85.7117 5.36496 85.2867 5.68532 84.7948 5.85088C84.7948 5.85088 82.2155 7.78047 77.4377 6.29215C77.4377 6.29215 76.0869 6.48608 75.8687 6.31829L77.4388 5.17209C77.4388 5.17209 78.2363 6.35425 79.4027 6.48935C79.4027 6.48935 77.4388 5.25816 77.6635 4.99122C77.7094 4.93675 78.5233 4.42139 78.5233 4.42139C78.5233 4.42139 79.9188 6.47083 81.7278 6.62228C81.7278 6.62228 79.1932 5.46845 78.8299 4.22527L80.1032 3.51598C80.1032 3.51598 81.4714 5.755 83.5259 6.00559C83.5259 6.00559 80.9182 4.70794 80.3923 3.37978L81.7398 2.85462C81.7398 2.85462 83.1178 5.01193 84.8275 5.20913C84.8275 5.20913 81.9667 3.40593 82.0562 2.75438C82.0562 2.75438 83.3229 2.34689 83.7113 2.40028C83.7113 2.40028 84.7359 3.92565 85.7396 3.95289C85.7396 3.95289 83.9557 2.54519 84.0736 2.32837C84.0736 2.32837 85.8651 2.23576 86.8013 2.66831C86.8013 2.66831 85.4701 1.92851 84.0736 2.04836C84.0736 2.04836 84.7053 1.30637 85.5291 1.14294C85.5291 1.14294 84.5416 0.73763 83.6393 2.0756C83.6393 2.0756 82.246 2.20307 82.0736 2.35779C82.0736 2.35779 82.7785 0.910868 83.6459 0.295273C83.6459 0.295273 82.353 0.52299 81.7125 2.48418L80.3465 2.9821C80.3465 2.9821 81.1768 1.02091 81.9089 0.415124C81.9089 0.415124 80.6258 0.850943 80.0126 3.13899L78.7557 3.82105C78.7557 3.82105 79.3416 2.07777 80.0104 1.22684C80.0104 1.22684 78.9073 1.8871 78.4022 4.02915L77.6166 4.58156C77.6166 4.58156 78.0672 3.3155 78.2298 2.96358C78.3924 2.61165 78.3105 2.53865 78.3105 2.53865C77.7645 3.18336 77.4083 3.96676 77.2817 4.80164C77.2817 4.80164 75.7389 6.04373 75.6483 5.95656Z" fill="#6C63FF"/>
<path opacity="0.1" d="M95.7601 10.9968C95.7601 10.9968 97.9575 6.73777 100.554 8.93429C100.554 8.93429 101.122 9.14022 101.078 9.73838C101.078 9.73838 100.86 9.61962 100.686 10.0772C100.623 10.2393 100.541 10.3933 100.442 10.5359C100.309 10.7285 100.118 10.8732 99.8964 10.9489C99.8964 10.9489 98.73 11.8205 96.5708 11.1483C96.5708 11.1483 95.9609 11.2354 95.8627 11.1602L96.5719 10.6416C96.5719 10.6416 96.9319 11.1766 97.46 11.2365C97.46 11.2365 96.5741 10.6808 96.6744 10.5599C96.6941 10.5359 97.0618 10.3028 97.0618 10.3028C97.0618 10.3028 97.6924 11.2289 98.5107 11.2975C98.5107 11.2975 97.3651 10.7756 97.2014 10.208L97.7775 9.88874C97.7775 9.88874 98.3951 10.9009 99.3236 11.0142C99.3236 11.0142 98.1452 10.4281 97.9052 9.82772L98.514 9.5902C98.514 9.5902 99.1359 10.5653 99.9084 10.6547C99.9084 10.6547 98.6155 9.83971 98.6569 9.54553C98.6569 9.54553 99.2286 9.3614 99.4043 9.38537C99.4043 9.38537 99.8669 10.0751 100.321 10.0859C100.321 10.0859 99.5145 9.45074 99.568 9.35268C99.568 9.35268 100.378 9.31128 100.799 9.50631C100.799 9.50631 100.198 9.17182 99.568 9.22629C99.7416 9.02905 99.9691 8.88668 100.223 8.81662C100.223 8.81662 99.7764 8.63358 99.3683 9.23828C99.3683 9.23828 98.7388 9.29602 98.6613 9.36576C98.6613 9.36576 98.9799 8.71203 99.3716 8.43419C99.3716 8.43419 98.7868 8.53661 98.4987 9.4235L97.8877 9.65231C97.8877 9.65231 98.262 8.7665 98.5936 8.49194C98.5936 8.49194 98.0132 8.68915 97.7361 9.72204L97.1687 10.0293C97.1687 10.0293 97.4327 9.24046 97.735 8.85694C97.735 8.85694 97.2364 9.15547 97.0094 10.123L96.6537 10.3725C96.6537 10.3725 96.8577 9.80049 96.9308 9.64141C97.004 9.48234 96.9669 9.44965 96.9669 9.44965C96.7201 9.74199 96.5592 10.0969 96.5021 10.4749C96.5021 10.4749 95.7983 11.036 95.7601 10.9968Z" fill="#6C63FF"/>
<path opacity="0.1" d="M71.9497 15.9521C71.9497 15.9521 74.1471 11.693 76.7504 13.8896C76.7504 13.8896 77.3167 14.0955 77.2741 14.6947C77.2741 14.6947 77.0559 14.5749 76.8824 15.0325C76.8192 15.1944 76.7372 15.3483 76.638 15.4912C76.5039 15.6846 76.3106 15.8295 76.0871 15.9041C76.0871 15.9041 74.9218 16.7758 72.7626 16.1035C72.7626 16.1035 72.1526 16.1918 72.0544 16.1155L72.7636 15.5969C72.7636 15.5969 73.1237 16.1318 73.6507 16.1929C73.6507 16.1929 72.7647 15.6361 72.8651 15.5152C72.8858 15.4912 73.2535 15.258 73.2535 15.258C73.2535 15.258 73.8842 16.1841 74.7014 16.2528C74.7014 16.2528 73.5569 15.7309 73.3921 15.1632L73.9682 14.8451C73.9682 14.8451 74.5868 15.8562 75.5153 15.9695C75.5153 15.9695 74.337 15.3833 74.0969 14.783L74.7058 14.5455C74.7058 14.5455 75.3288 15.5206 76.1012 15.61C76.1012 15.61 74.8083 14.795 74.8487 14.5008C74.8487 14.5008 75.4215 14.3167 75.5972 14.3406C75.5972 14.3406 76.0598 15.0303 76.5137 15.0423C76.5137 15.0423 75.7074 14.406 75.7608 14.3079C75.7608 14.3079 76.5693 14.2665 76.9916 14.4616C76.9916 14.4616 76.3893 14.1271 75.7597 14.1816C75.9334 13.9843 76.1609 13.8419 76.4144 13.7719C76.4144 13.7719 75.9692 13.5888 75.5612 14.1935C75.5612 14.1935 74.9316 14.2513 74.8541 14.321C74.8541 14.321 75.1716 13.6673 75.5644 13.3895C75.5644 13.3895 74.9796 13.4919 74.6916 14.3788L74.0729 14.6076C74.0729 14.6076 74.4483 13.7218 74.7789 13.4483C74.7789 13.4483 74.1995 13.6444 73.9224 14.6773L73.3539 14.9846C73.3539 14.9846 73.6191 14.1957 73.9213 13.8122C73.9213 13.8122 73.4227 14.1107 73.1946 15.0783L72.8389 15.3278C72.8389 15.3278 73.043 14.7557 73.1161 14.5967C73.1892 14.4376 73.1532 14.4049 73.1532 14.4049C72.9059 14.6969 72.745 15.052 72.6884 15.4302C72.6884 15.4302 71.9879 15.9913 71.9497 15.9521Z" fill="#6C63FF"/>
</g>
<defs>
<clipPath id="clip0">
<rect width="117" height="85" fill="white"/>
</clipPath>
</defs>
</svg>
