<svg width="250" height="126" viewBox="0 0 250 126" fill="none" xmlns="http://www.w3.org/2000/svg">
<rect width="250" height="126" fill="black"/>
<path d="M10.6543 11.2305H25.5605C28.0449 11.2305 29.9492 11.8457 31.2734 13.0762C32.6094 14.3066 33.2773 15.8301 33.2773 17.6465C33.2773 19.1699 32.8027 20.4766 31.8535 21.5664C31.2207 22.293 30.2949 22.8672 29.0762 23.2891C30.9277 23.7344 32.2871 24.502 33.1543 25.5918C34.0332 26.6699 34.4727 28.0293 34.4727 29.6699C34.4727 31.0059 34.1621 32.207 33.541 33.2734C32.9199 34.3398 32.0703 35.1836 30.9922 35.8047C30.3242 36.1914 29.3164 36.4727 27.9688 36.6484C26.1758 36.8828 24.9863 37 24.4004 37H10.6543V11.2305ZM18.6875 21.3379H22.1504C23.3926 21.3379 24.2539 21.127 24.7344 20.7051C25.2266 20.2715 25.4727 19.6504 25.4727 18.8418C25.4727 18.0918 25.2266 17.5059 24.7344 17.084C24.2539 16.6621 23.4102 16.4512 22.2031 16.4512H18.6875V21.3379ZM18.6875 31.4629H22.748C24.1191 31.4629 25.0859 31.2227 25.6484 30.7422C26.2109 30.25 26.4922 29.5938 26.4922 28.7734C26.4922 28.0117 26.2109 27.4023 25.6484 26.9453C25.0977 26.4766 24.125 26.2422 22.7305 26.2422H18.6875V31.4629ZM37.6543 24.1328C37.6543 19.9258 38.8262 16.6504 41.1699 14.3066C43.5137 11.9629 46.7773 10.791 50.9609 10.791C55.25 10.791 58.5547 11.9453 60.875 14.2539C63.1953 16.5508 64.3555 19.7734 64.3555 23.9219C64.3555 26.9336 63.8457 29.4062 62.8262 31.3398C61.8184 33.2617 60.3535 34.7617 58.4316 35.8398C56.5215 36.9062 54.1367 37.4395 51.2773 37.4395C48.3711 37.4395 45.9629 36.9766 44.0527 36.0508C42.1543 35.125 40.6133 33.6602 39.4297 31.6562C38.2461 29.6523 37.6543 27.1445 37.6543 24.1328ZM45.6172 24.168C45.6172 26.7695 46.0977 28.6387 47.0586 29.7754C48.0312 30.9121 49.3496 31.4805 51.0137 31.4805C52.7246 31.4805 54.0488 30.9238 54.9863 29.8105C55.9238 28.6973 56.3926 26.6992 56.3926 23.8164C56.3926 21.3906 55.9004 19.6211 54.916 18.5078C53.9434 17.3828 52.6191 16.8203 50.9434 16.8203C49.3379 16.8203 48.0488 17.3887 47.0762 18.5254C46.1035 19.6621 45.6172 21.543 45.6172 24.168ZM65.0059 11.2305H73.7773L78.3477 19.1582L82.7773 11.2305H91.4609L83.4453 23.7109L92.2168 37H83.2695L78.1895 28.7207L73.0918 37H64.1973L73.0918 23.5703L65.0059 11.2305Z" fill="white"/>
<rect x="10" y="46" width="147" height="38" fill="white"/>
<path d="M16.6543 52.2305H31.5605C34.0449 52.2305 35.9492 52.8457 37.2734 54.0762C38.6094 55.3066 39.2773 56.8301 39.2773 58.6465C39.2773 60.1699 38.8027 61.4766 37.8535 62.5664C37.2207 63.293 36.2949 63.8672 35.0762 64.2891C36.9277 64.7344 38.2871 65.502 39.1543 66.5918C40.0332 67.6699 40.4727 69.0293 40.4727 70.6699C40.4727 72.0059 40.1621 73.207 39.541 74.2734C38.9199 75.3398 38.0703 76.1836 36.9922 76.8047C36.3242 77.1914 35.3164 77.4727 33.9688 77.6484C32.1758 77.8828 30.9863 78 30.4004 78H16.6543V52.2305ZM24.6875 62.3379H28.1504C29.3926 62.3379 30.2539 62.127 30.7344 61.7051C31.2266 61.2715 31.4727 60.6504 31.4727 59.8418C31.4727 59.0918 31.2266 58.5059 30.7344 58.084C30.2539 57.6621 29.4102 57.4512 28.2031 57.4512H24.6875V62.3379ZM24.6875 72.4629H28.748C30.1191 72.4629 31.0859 72.2227 31.6484 71.7422C32.2109 71.25 32.4922 70.5938 32.4922 69.7734C32.4922 69.0117 32.2109 68.4023 31.6484 67.9453C31.0977 67.4766 30.125 67.2422 28.7305 67.2422H24.6875V72.4629ZM44.6562 52.2305H52.6191V71.6543H65.0469V78H44.6562V52.2305ZM84.5234 73.7461H75.4531L74.2051 78H66.0664L75.752 52.2305H84.4355L94.1211 78H85.7891L84.5234 73.7461ZM82.8535 68.1738L80.0059 58.9102L77.1758 68.1738H82.8535ZM113.176 67.4707L120.154 69.5801C119.686 71.5371 118.947 73.1719 117.939 74.4844C116.932 75.7969 115.678 76.7871 114.178 77.4551C112.689 78.123 110.791 78.457 108.482 78.457C105.682 78.457 103.391 78.0527 101.609 77.2441C99.8398 76.4238 98.3105 74.9883 97.0215 72.9375C95.7324 70.8867 95.0879 68.2617 95.0879 65.0625C95.0879 60.7969 96.2188 57.5215 98.4805 55.2363C100.754 52.9395 103.965 51.791 108.113 51.791C111.359 51.791 113.908 52.4473 115.76 53.7598C117.623 55.0723 119.006 57.0879 119.908 59.8066L112.877 61.3711C112.631 60.5859 112.373 60.0117 112.104 59.6484C111.658 59.0391 111.113 58.5703 110.469 58.2422C109.824 57.9141 109.104 57.75 108.307 57.75C106.502 57.75 105.119 58.4766 104.158 59.9297C103.432 61.0078 103.068 62.7012 103.068 65.0098C103.068 67.8691 103.502 69.832 104.369 70.8984C105.236 71.9531 106.455 72.4805 108.025 72.4805C109.549 72.4805 110.697 72.0527 111.471 71.1973C112.256 70.3418 112.824 69.0996 113.176 67.4707ZM124.074 52.2305H132.037V61.9688L140.387 52.2305H150.969L141.582 61.9512L151.391 78H141.582L136.15 67.4004L132.037 71.707V78H124.074V52.2305Z" fill="black"/>
<path d="M9.88672 97.5361H14.9854V114H9.88672V97.5361ZM19.1402 97.5361H23.8907L30.0899 106.644V97.5361H34.8853V114H30.0899L23.9244 104.959V114H19.1402V97.5361ZM37.5689 97.5361H53.0333V101.602H47.8448V114H42.7574V101.602H37.5689V97.5361ZM55.7955 97.5361H69.4293V101.051H60.8942V103.668H68.8116V107.026H60.8942V110.271H69.6764V114H55.7955V97.5361ZM72.9552 114V97.5361H81.4342C83.0065 97.5361 84.2082 97.6709 85.0392 97.9404C85.8703 98.21 86.5404 98.7116 87.0495 99.4453C87.5586 100.172 87.8131 101.059 87.8131 102.107C87.8131 103.02 87.6185 103.81 87.2292 104.477C86.8398 105.135 86.3045 105.671 85.6232 106.083C85.189 106.345 84.5937 106.562 83.8376 106.734C84.444 106.936 84.8857 107.138 85.1628 107.34C85.3499 107.475 85.6195 107.763 85.9713 108.205C86.3307 108.647 86.5703 108.987 86.6901 109.227L89.1496 114H83.3996L80.6818 108.969C80.3374 108.317 80.0304 107.894 79.7609 107.7C79.394 107.445 78.9785 107.318 78.5143 107.318H78.0651V114H72.9552ZM78.0651 104.207H80.2101C80.4422 104.207 80.8914 104.132 81.5578 103.982C81.8947 103.915 82.168 103.743 82.3776 103.466C82.5947 103.189 82.7033 102.871 82.7033 102.511C82.7033 101.98 82.5348 101.572 82.1979 101.287C81.861 101.003 81.2283 100.86 80.3 100.86H78.0651V104.207ZM91.2829 97.5361H96.0334L102.233 106.644V97.5361H107.028V114H102.233L96.0671 104.959V114H91.2829V97.5361ZM120.774 111.282H114.979L114.181 114H108.982L115.17 97.5361H120.718L126.906 114H121.582L120.774 111.282ZM119.707 107.722L117.887 101.804L116.079 107.722H119.707ZM126.254 97.5361H141.718V101.602H136.53V114H131.442V101.602H126.254V97.5361ZM144.694 97.5361H149.792V114H144.694V97.5361ZM153.273 105.779C153.273 103.091 154.022 100.999 155.519 99.5015C157.017 98.0041 159.102 97.2554 161.775 97.2554C164.515 97.2554 166.626 97.9928 168.109 99.4678C169.591 100.935 170.332 102.994 170.332 105.645C170.332 107.569 170.007 109.148 169.355 110.384C168.711 111.612 167.776 112.57 166.548 113.259C165.327 113.94 163.804 114.281 161.977 114.281C160.12 114.281 158.582 113.985 157.361 113.394C156.148 112.802 155.164 111.866 154.408 110.586C153.651 109.306 153.273 107.703 153.273 105.779ZM158.361 105.802C158.361 107.464 158.668 108.658 159.282 109.384C159.903 110.111 160.745 110.474 161.808 110.474C162.902 110.474 163.748 110.118 164.347 109.407C164.946 108.695 165.245 107.419 165.245 105.577C165.245 104.027 164.931 102.897 164.302 102.186C163.68 101.467 162.834 101.107 161.764 101.107C160.738 101.107 159.914 101.471 159.293 102.197C158.671 102.923 158.361 104.125 158.361 105.802ZM173.566 97.5361H178.317L184.516 106.644V97.5361H189.311V114H184.516L178.35 104.959V114H173.566V97.5361ZM203.057 111.282H197.262L196.465 114H191.265L197.453 97.5361H203.001L209.189 114H203.866L203.057 111.282ZM201.99 107.722L200.171 101.804L198.363 107.722H201.99ZM211.289 97.5361H216.376V109.946H224.316V114H211.289V97.5361ZM226.202 108.553L231.042 108.25C231.147 109.036 231.361 109.635 231.683 110.047C232.207 110.713 232.955 111.046 233.929 111.046C234.655 111.046 235.213 110.878 235.602 110.541C235.999 110.197 236.197 109.8 236.197 109.351C236.197 108.924 236.01 108.542 235.636 108.205C235.261 107.868 234.393 107.55 233.03 107.25C230.799 106.749 229.208 106.083 228.257 105.251C227.299 104.42 226.82 103.361 226.82 102.073C226.82 101.227 227.063 100.43 227.55 99.6812C228.044 98.925 228.781 98.3335 229.762 97.9067C230.751 97.4725 232.102 97.2554 233.816 97.2554C235.92 97.2554 237.522 97.6484 238.623 98.4346C239.731 99.2132 240.39 100.456 240.6 102.163L235.804 102.444C235.677 101.703 235.407 101.164 234.996 100.827C234.591 100.49 234.03 100.321 233.311 100.321C232.72 100.321 232.274 100.449 231.975 100.703C231.675 100.95 231.525 101.253 231.525 101.613C231.525 101.875 231.649 102.111 231.896 102.32C232.136 102.537 232.705 102.74 233.603 102.927C235.827 103.406 237.418 103.893 238.376 104.387C239.342 104.873 240.042 105.48 240.476 106.206C240.918 106.932 241.139 107.745 241.139 108.643C241.139 109.699 240.847 110.672 240.263 111.563C239.679 112.454 238.863 113.132 237.814 113.596C236.766 114.052 235.445 114.281 233.85 114.281C231.05 114.281 229.111 113.742 228.033 112.664C226.955 111.585 226.344 110.215 226.202 108.553Z" fill="white"/>
</svg>
