<svg width="117" height="95" viewBox="0 0 117 95" fill="none" xmlns="http://www.w3.org/2000/svg">
<g clip-path="url(#clip0)">
<path d="M59.1947 94.2637C91.1197 94.2637 117 92.2418 117 89.7477C117 87.2535 91.1197 85.2316 59.1947 85.2316C27.2698 85.2316 1.38953 87.2535 1.38953 89.7477C1.38953 92.2418 27.2698 94.2637 59.1947 94.2637Z" fill="#3F3D56"/>
<path d="M92.0759 39.3009H20.3109V89.7135H92.0759V39.3009Z" fill="#F2F2F2"/>
<path d="M44.3714 58.5356H26.3521V89.9914H44.3714V58.5356Z" fill="#3F3D56"/>
<path d="M34.5391 60.4227H29.6852V64.9475H34.5391V60.4227Z" fill="#F2F2F2"/>
<path d="M41.0384 60.4227H36.1844V64.9475H41.0384V60.4227Z" fill="#F2F2F2"/>
<path d="M34.5391 66.5929H29.6852V71.2823H34.5391V66.5929Z" fill="#F2F2F2"/>
<path d="M41.0384 66.5929H36.1844V71.2823H41.0384V66.5929Z" fill="#F2F2F2"/>
<path d="M42.0799 77.527C42.7127 77.527 43.2257 77.014 43.2257 76.3812C43.2257 75.7484 42.7127 75.2355 42.0799 75.2355C41.4472 75.2355 40.9342 75.7484 40.9342 76.3812C40.9342 77.014 41.4472 77.527 42.0799 77.527Z" fill="#6C63FF"/>
<path d="M86.0347 55.5496H50.4126V85.443H86.0347V55.5496Z" fill="#3F3D56"/>
<path d="M100 49H13L18.8007 41.5L20.0989 39.8207L21.7972 37.6247L23.0954 35.9454L24.6003 34H93.1455L94.0343 35.9454L94.8019 37.6247L95.8057 39.8207L96.5732 41.5L100 49Z" fill="#3F3D56"/>
<path d="M52.9125 67.9444H51.6626V75.652H52.9125V67.9444Z" fill="#6C63FF"/>
<path d="M52.9125 69.0901H51.6626V70.0276H52.9125V69.0901Z" fill="#F2F2F2"/>
<path d="M52.9125 73.5689H51.6626V74.5064H52.9125V73.5689Z" fill="#F2F2F2"/>
<path d="M56.5579 67.9444H53.5374V75.652H56.5579V67.9444Z" fill="#6C63FF"/>
<path d="M56.5579 69.0901H53.5374V70.0276H56.5579V69.0901Z" fill="#F2F2F2"/>
<path d="M56.5579 73.5689H53.5374V74.5064H56.5579V73.5689Z" fill="#F2F2F2"/>
<path d="M58.537 67.9444H57.2871V75.652H58.537V67.9444Z" fill="#6C63FF"/>
<path d="M58.537 69.0901H57.2871V70.0276H58.537V69.0901Z" fill="#F2F2F2"/>
<path d="M58.537 73.5689H57.2871V74.5064H58.537V73.5689Z" fill="#F2F2F2"/>
<path d="M60.4119 67.9444H59.162V75.652H60.4119V67.9444Z" fill="#6C63FF"/>
<path d="M60.4119 69.0901H59.162V70.0276H60.4119V69.0901Z" fill="#F2F2F2"/>
<path d="M60.4119 73.5689H59.162V74.5064H60.4119V73.5689Z" fill="#F2F2F2"/>
<path d="M61.6162 67.9717L60.4467 68.4126L63.1654 75.6249L64.335 75.184L61.6162 67.9717Z" fill="#6C63FF"/>
<path d="M62.0204 69.0438L60.8508 69.4847L61.1815 70.3618L62.3511 69.921L62.0204 69.0438Z" fill="#F2F2F2"/>
<path d="M63.6002 73.2347L62.4307 73.6756L62.7613 74.5527L63.9309 74.1119L63.6002 73.2347Z" fill="#F2F2F2"/>
<path d="M84.889 67.9444H81.8684V75.652H84.889V67.9444Z" fill="#6C63FF"/>
<path d="M84.889 69.0901H81.8684V70.0276H84.889V69.0901Z" fill="#F2F2F2"/>
<path d="M84.889 73.5689H81.8684V74.5064H84.889V73.5689Z" fill="#F2F2F2"/>
<path d="M81.1393 67.9444H79.8894V75.652H81.1393V67.9444Z" fill="#6C63FF"/>
<path d="M81.1393 69.0901H79.8894V70.0276H81.1393V69.0901Z" fill="#F2F2F2"/>
<path d="M81.1393 73.5689H79.8894V74.5064H81.1393V73.5689Z" fill="#F2F2F2"/>
<path d="M79.2644 67.9444H78.0145V75.652H79.2644V67.9444Z" fill="#6C63FF"/>
<path d="M79.2644 69.0901H78.0145V70.0276H79.2644V69.0901Z" fill="#F2F2F2"/>
<path d="M79.2644 73.5689H78.0145V74.5064H79.2644V73.5689Z" fill="#F2F2F2"/>
<path d="M76.8101 67.9717L74.0914 75.184L75.261 75.6249L77.9797 68.4125L76.8101 67.9717Z" fill="#6C63FF"/>
<path d="M76.406 69.0437L76.0753 69.9209L77.2449 70.3618L77.5755 69.4846L76.406 69.0437Z" fill="#F2F2F2"/>
<path d="M74.8262 73.2347L74.4956 74.1118L75.6651 74.5527L75.9958 73.6756L74.8262 73.2347Z" fill="#F2F2F2"/>
<path d="M86.0347 75.6521H50.4126V76.3812H86.0347V75.6521Z" fill="#F2F2F2"/>
<path d="M72.4942 67.9444H65.9323V75.652H72.4942V67.9444Z" fill="#6C63FF"/>
<path d="M70.8798 69.6109H67.5468V71.0692H70.8798V69.6109Z" fill="#F2F2F2"/>
<path d="M68.5361 55.5496H67.9111V62.2157H68.5361V55.5496Z" fill="#F2F2F2"/>
<path d="M68.2237 63.2573C68.7989 63.2573 69.2653 62.7909 69.2653 62.2157C69.2653 61.6404 68.7989 61.1741 68.2237 61.1741C67.6485 61.1741 67.1821 61.6404 67.1821 62.2157C67.1821 62.7909 67.6485 63.2573 68.2237 63.2573Z" fill="#F2F2F2"/>
<path d="M13.8955 67.5844C21.5698 67.5844 27.791 61.3632 27.791 53.6889C27.791 46.0146 21.5698 39.7934 13.8955 39.7934C6.22122 39.7934 0 46.0146 0 53.6889C0 61.3632 6.22122 67.5844 13.8955 67.5844Z" fill="#FF4C01"/>
<path d="M13.3228 60.7405V59.0012C12.4436 58.9841 11.5341 58.674 11.0035 58.2435L11.3673 57.0897C11.9978 57.5622 12.7624 57.8216 13.5502 57.8302C14.6265 57.8302 15.3542 57.1241 15.3542 56.1426C15.3542 55.1954 14.7629 54.6099 13.6412 54.0932C12.095 53.4045 11.14 52.6122 11.14 51.1141C11.14 49.6847 12.0343 48.5998 13.429 48.3415V46.6022H14.3688V48.2726C15.0696 48.2822 15.7532 48.4913 16.3395 48.8753L15.9605 50.0119C15.3982 49.627 14.7319 49.4228 14.0505 49.4264C12.8833 49.4264 12.4436 50.2185 12.4436 50.9074C12.4436 51.8029 13.0045 52.2506 14.3234 52.8706C15.8847 53.5939 16.673 54.4894 16.673 56.022C16.673 57.3824 15.8393 58.6568 14.2779 58.9494V60.7405H13.3228Z" fill="#F2F2F2"/>
</g>
<defs>
<clipPath id="clip0">
<rect width="117" height="94.2637" fill="white"/>
</clipPath>
</defs>
</svg>
