<svg width="117" height="89" viewBox="0 0 117 89" fill="none" xmlns="http://www.w3.org/2000/svg">
<g clip-path="url(#clip0)">
<path opacity="0.1" d="M115.511 25.6133C115.491 25.7087 115.472 25.8041 115.449 25.8984C114.746 29.1401 113.597 32.264 111.889 35.1328C111.832 35.2281 111.776 35.3235 111.718 35.4189C110.591 37.2646 109.244 38.9658 107.704 40.4845C106.854 41.3247 105.926 42.1231 104.822 42.6986C103.275 43.5066 101.467 43.8345 99.6907 44.1024C97.8453 44.3821 95.9743 44.6157 94.1085 44.8676C93.4455 44.9554 92.7865 45.0487 92.1313 45.1473C90.3288 45.4141 88.5392 45.7227 86.7924 46.1321C84.633 46.6369 82.5401 47.2981 80.5629 48.2282C80.4051 48.2997 80.2489 48.3754 80.0946 48.4554C79.9403 48.5326 79.7849 48.6108 79.6328 48.6901C79.4806 48.7694 79.3305 48.8487 79.1816 48.9302C79.1044 48.972 79.0273 49.0138 78.9512 49.0577C78.8751 49.1016 78.8001 49.1402 78.7261 49.1831C78.5032 49.3074 78.2846 49.4349 78.066 49.5635L78.0574 49.5689C77.9128 49.6535 77.7702 49.7403 77.6288 49.8271C76.8208 50.318 76.0299 50.8302 75.239 51.3457L74.7418 51.6672L73.9713 52.1655C73.8212 52.263 73.668 52.3605 73.5169 52.457C73.4097 52.5277 73.3026 52.5984 73.1857 52.6713C72.6242 53.0249 72.0552 53.3721 71.4711 53.7033C71.3329 53.7826 71.1936 53.8619 71.0532 53.939C69.8732 54.5973 68.6392 55.1538 67.3646 55.6022L67.3474 55.6087C66.7062 55.8323 66.052 56.017 65.3885 56.1616C65.0059 56.2452 64.6222 56.3138 64.2343 56.3663C63.1973 56.5133 62.1458 56.5281 61.1051 56.4102C59.0615 56.1734 57.1464 55.389 55.1039 55.1243C50.8988 54.5885 46.8147 56.3149 42.8604 57.6673C41.888 57.9995 40.9085 58.3106 39.9219 58.6007C39.2661 58.7947 38.6081 58.9779 37.9447 59.1547C33.8806 60.2285 29.7328 60.9559 25.5458 61.3291C23.7955 61.5006 22.0348 61.5397 20.2787 61.4459C19.611 61.4052 18.9509 61.3387 18.3026 61.2316C16.0843 60.8887 14.016 60.1696 12.3464 58.8525C10.979 57.7712 10.0005 56.362 9.25575 54.8874C8.49334 53.3828 7.95503 51.7748 7.65793 50.1143C7.61721 49.8882 7.58077 49.661 7.55077 49.4338C7.49718 49.0452 7.45718 48.6544 7.43074 48.2615C7.28655 46.1671 7.53664 44.0642 8.16803 42.062C8.87532 39.8201 10.0541 37.6683 10.5728 35.4092C10.5942 35.3135 10.6146 35.2181 10.6339 35.1231C10.7047 34.78 10.7573 34.4334 10.7914 34.0847C11.0561 31.3091 10.0413 28.6032 9.24504 25.8887C9.21717 25.7944 9.18931 25.6991 9.16252 25.6037C9.07679 25.3022 8.99463 25.0011 8.91604 24.7003C8.17875 21.8304 7.97406 18.758 8.63098 15.8935C8.65134 15.7981 8.67599 15.7028 8.69957 15.6085C9.13935 13.7978 9.96636 12.1039 11.1236 10.6435C12.3539 9.10036 13.9688 7.81546 15.6942 6.68702C16.5351 6.13691 17.4045 5.62288 18.3026 5.14492C18.9456 4.802 19.6043 4.47729 20.2787 4.1708C25.6851 1.70602 31.8524 0.50256 37.9512 0.768328C38.2727 0.782259 38.5941 0.799406 38.9156 0.822982C39.2371 0.846558 39.5886 0.874421 39.9251 0.905498C43.8538 1.287 47.6763 2.20755 51.4721 3.21382C52.7441 3.55139 54.014 3.89753 55.2829 4.23724C55.8476 4.38727 56.4113 4.5373 56.9761 4.68305C59.742 5.39783 62.5486 6.0451 65.3906 6.52842C66.0486 6.64201 66.7073 6.7456 67.3667 6.83919C69.6562 7.17568 71.9642 7.37144 74.2777 7.42538C75.1772 7.44324 76.077 7.43539 76.9772 7.40181C77.4316 7.38538 77.8863 7.36073 78.3414 7.32786C83.0406 6.99673 87.5822 5.88865 92.1313 4.85344C92.7893 4.70341 93.4484 4.55552 94.1085 4.40978C94.9744 4.21902 95.8403 4.0347 96.7105 3.86431C102.125 2.80017 106.952 3.41208 111.987 5.60787C113.131 6.10619 114.275 6.70845 114.976 7.644C115.676 8.57954 115.852 9.72835 115.983 10.8375C116.168 12.4171 116.289 14.0171 116.335 15.6256C116.335 15.7199 116.335 15.8153 116.342 15.9107C116.415 19.1599 116.173 22.4402 115.511 25.6133Z" fill="#6C63FF"/>
<path opacity="0.1" d="M79.5921 35.1328H79.2384V35.2593V35.4189H79.6392L79.5921 35.1328ZM75.5809 35.1328C75.5804 35.1353 75.5804 35.1378 75.5809 35.1403C75.5713 35.2185 75.5605 35.2968 75.5498 35.3761V35.3975V35.4189H78.6147V35.4018L78.8291 35.1328H75.5809ZM67.3667 35.1328V25.8984H70.8924C70.8549 25.8738 70.8164 25.8481 70.7767 25.8245L70.7253 25.7913L70.6588 25.7505C70.6203 25.728 70.5817 25.7055 70.5409 25.6841C70.5002 25.6627 70.4756 25.6477 70.4413 25.6294L70.4177 25.6166H70.4124H67.3667V25.1076L67.2842 25.1397L67.1974 25.1804H67.191L67.1728 25.1901L67.1181 25.219L67.0635 25.2479C67.0099 25.2769 66.9563 25.309 66.9027 25.3423L66.8513 25.3765L66.7441 25.4451C66.6059 25.5373 66.4698 25.6337 66.3294 25.7238C66.294 25.7463 66.2587 25.7688 66.2222 25.7891C66.1461 25.8341 66.0679 25.877 65.9875 25.9156C65.9532 25.9327 65.92 25.9477 65.8804 25.9617L65.8225 25.9842L65.7689 26.0024C65.6432 26.0461 65.5142 26.0798 65.3831 26.1031V35.1306H60.0967C60.0967 35.1414 60.1042 35.1499 60.1074 35.1607C60.1364 35.2464 60.1653 35.3311 60.1932 35.4168H65.3906V45.3145C65.4178 45.3145 65.4446 45.3145 65.471 45.3145L65.5642 45.3198L65.7325 45.3295L66.0015 45.3616L66.1247 45.3734L66.2587 45.3874H66.279L66.5159 45.4163L66.5662 45.4227L66.6809 45.4388L66.8448 45.4624L67.2381 45.4452L67.2917 45.4549C67.3132 45.4549 67.3357 45.4613 67.3582 45.4656V35.4189H75.5391V35.3975V35.3761C75.5498 35.2968 75.5605 35.2185 75.5702 35.1403C75.5697 35.1378 75.5697 35.1353 75.5702 35.1328H67.3667ZM79.5921 35.1328H79.2384V35.2593V35.4189H79.6392L79.5921 35.1328ZM75.3601 35.1328C75.3473 35.2282 75.3355 35.3235 75.3226 35.4189H78.7401L78.9726 35.1328H75.3601ZM67.3667 35.1328V25.8984H70.8924C70.8549 25.8738 70.8164 25.8481 70.7767 25.8245L70.7253 25.7913L70.6588 25.7505C70.6203 25.728 70.5817 25.7055 70.5409 25.6841C70.5002 25.6627 70.4756 25.6477 70.4413 25.6294L70.4177 25.6166H70.4102H67.3667V25.1076L67.2842 25.1397L67.1974 25.1804H67.191L67.1728 25.1901L67.1181 25.219L67.0635 25.2479C67.0099 25.2769 66.9563 25.309 66.9027 25.3423L66.8513 25.3765L66.7441 25.4451C66.6059 25.5373 66.4698 25.6337 66.3294 25.7238C66.294 25.7463 66.2587 25.7688 66.2222 25.7891C66.1461 25.8341 66.0679 25.877 65.9875 25.9156C65.9532 25.9327 65.92 25.9477 65.8804 25.9617L65.8225 25.9842L65.7689 26.0024C65.6432 26.0461 65.5142 26.0798 65.3831 26.1031V35.1306H60.0967C60.0967 35.1414 60.1042 35.1499 60.1074 35.1607C60.1364 35.2453 60.1664 35.3311 60.1942 35.4168H65.3906V45.3134H65.471L65.5642 45.3188L65.7325 45.3284L66.0015 45.3616L66.1247 45.3734L66.2587 45.3874H66.279L66.5159 45.4163L66.5662 45.4227L66.6809 45.4388L66.8448 45.4624L67.2381 45.4452L67.2917 45.4549C67.3132 45.4549 67.3357 45.4613 67.3582 45.4656V35.4189H75.3248C75.3376 35.3235 75.3494 35.2282 75.3623 35.1328H67.3667ZM94.1086 15.9032H116.342C116.342 15.8078 116.342 15.7125 116.336 15.6181H94.1086V4.4066C93.4484 4.54949 92.7894 4.69738 92.1314 4.85026V15.6181H67.9508L67.8897 15.5635L67.9819 15.482L76.9762 7.39971C76.076 7.434 75.1762 7.44186 74.2767 7.42328L67.3657 13.6324V6.83924C66.7055 6.74565 66.0468 6.64205 65.3896 6.52846V13.3195L55.285 4.23728C54.0162 3.89757 52.7463 3.55143 51.4743 3.21386L65.216 15.5635L65.1549 15.6181H39.9284V0.915185C39.5919 0.883751 39.2554 0.856245 38.9189 0.832669C38.5974 0.809093 38.2759 0.791947 37.9544 0.778015V15.6181H20.2787V4.18049C19.6114 4.48626 18.9527 4.81097 18.3026 5.15461V15.6181H8.69957C8.67599 15.7125 8.65134 15.8078 8.63098 15.9032H18.3026V25.6134H9.16252C9.18931 25.7088 9.21717 25.8041 9.24503 25.8984H18.3026V35.1328H10.6339C10.6146 35.2278 10.5942 35.3232 10.5728 35.4189H18.3026V61.2381C18.9456 61.3377 19.6111 61.4074 20.2787 61.4524V35.4189H37.9512V59.1591C38.6145 58.9822 39.2725 58.799 39.9284 58.605V35.4189H65.3906V56.1606C66.0542 56.016 66.7084 55.8313 67.3496 55.6076L67.3667 55.6012V35.4189H92.1314V45.1473C92.7887 45.0509 93.4477 44.9583 94.1086 44.8698V35.4189H111.718C111.776 35.3235 111.832 35.2282 111.889 35.1328H94.1086V25.8984H115.449C115.472 25.8041 115.491 25.7088 115.511 25.6134H94.1086V15.9032ZM20.2787 15.9032H37.9512V25.6134H20.2787V15.9032ZM20.2787 35.1328V25.8984H37.9512V35.1328H20.2787ZM39.9284 15.9032H65.3906V25.6134H39.9284V15.9032ZM39.9284 35.1328V25.8984H65.3906V35.1328H39.9284ZM92.1314 35.1328H67.3667V25.8984H92.1314V35.1328ZM92.1314 25.6134H67.3667V16.1636L67.7139 15.9032H92.1314V25.6134ZM75.5809 35.1328C75.5804 35.1353 75.5804 35.1378 75.5809 35.1403C75.5713 35.2185 75.5605 35.2968 75.5498 35.3761V35.3975V35.4189H78.6147V35.4018L78.8291 35.1328H75.5809ZM79.5921 35.1328H79.2384V35.2593V35.4189H79.6392L79.5921 35.1328ZM67.3667 35.1328V25.8984H70.8924C70.8549 25.8738 70.8164 25.8481 70.7767 25.8245L70.7253 25.7913L70.6588 25.7505C70.6203 25.728 70.5817 25.7055 70.5409 25.6841C70.5002 25.6627 70.4756 25.6477 70.4413 25.6294L70.4177 25.6166H70.4124H67.3667V25.1076L67.2842 25.1397L67.1974 25.1804H67.191L67.1728 25.1901L67.1181 25.219L67.0635 25.2479C67.0099 25.2769 66.9563 25.309 66.9027 25.3423L66.8513 25.3765L66.7441 25.4451C66.6059 25.5373 66.4698 25.6337 66.3294 25.7238C66.294 25.7463 66.2587 25.7688 66.2222 25.7891C66.1461 25.8341 66.0679 25.877 65.9875 25.9156C65.9532 25.9327 65.92 25.9477 65.8804 25.9617L65.8225 25.9842L65.7689 26.0024C65.6432 26.0461 65.5142 26.0798 65.3831 26.1031V35.1306H60.0967C60.0967 35.1414 60.1042 35.1499 60.1074 35.1607C60.1364 35.2464 60.1653 35.3311 60.1932 35.4168H65.3906V45.3145C65.4178 45.3145 65.4446 45.3145 65.471 45.3145L65.5642 45.3198L65.7325 45.3295L66.0015 45.3616L66.1247 45.3734L66.2587 45.3874H66.279L66.5159 45.4163L66.5662 45.4227L66.6809 45.4388L66.8448 45.4624L67.2381 45.4452L67.2917 45.4549C67.3132 45.4549 67.3357 45.4613 67.3582 45.4656V35.4189H75.5391V35.3975V35.3761C75.5498 35.2968 75.5605 35.2185 75.5702 35.1403C75.5697 35.1378 75.5697 35.1353 75.5702 35.1328H67.3667Z" fill="#6C63FF"/>
<path opacity="0.1" d="M28.7759 9.21831H28.9291C28.8786 9.19694 28.8347 9.16258 28.8017 9.11873C28.7688 9.07487 28.748 9.02308 28.7416 8.96862C28.7416 8.77143 29.0363 8.61069 29.3964 8.61069H33.9787C34.3388 8.61069 34.6324 8.77143 34.6324 8.96862C34.6324 9.16473 34.3388 9.32655 33.9787 9.32655H33.8255C33.876 9.34755 33.9201 9.38166 33.953 9.42537C33.986 9.46907 34.0067 9.52079 34.013 9.57517C34.013 9.74342 33.7987 9.88487 33.5126 9.92238H34.8318C35.1908 9.92238 35.4855 10.0831 35.4855 10.2803C35.4855 10.4775 35.1908 10.6382 34.8318 10.6382H30.2483C29.8893 10.6382 29.5946 10.4764 29.5946 10.2803C29.5946 10.1121 29.809 9.97168 30.0951 9.9331H28.7759C28.4158 9.9331 28.1222 9.77235 28.1222 9.57517C28.1222 9.37798 28.4158 9.21831 28.7759 9.21831Z" fill="#6C63FF"/>
<path opacity="0.1" d="M78.4401 12.6229H78.5933C78.543 12.6014 78.4993 12.567 78.4665 12.5231C78.4338 12.4793 78.4132 12.4276 78.4069 12.3732C78.4069 12.176 78.7005 12.0153 79.0606 12.0153H83.6429C84.003 12.0153 84.2977 12.176 84.2977 12.3732C84.2977 12.5693 84.003 12.7301 83.6429 12.7301H83.4907C83.5411 12.7516 83.5848 12.786 83.6175 12.8299C83.6503 12.8737 83.6709 12.9254 83.6772 12.9798C83.6772 13.148 83.4629 13.2895 83.1767 13.327H84.4959C84.856 13.327 85.1496 13.4877 85.1496 13.6849C85.1496 13.8821 84.856 14.0428 84.4959 14.0428H79.9136C79.5535 14.0428 79.2588 13.881 79.2588 13.6849C79.2588 13.5167 79.4731 13.3752 79.7593 13.3377H78.4401C78.0811 13.3377 77.7864 13.177 77.7864 12.9798C77.7864 12.7826 78.0811 12.6229 78.4401 12.6229Z" fill="#6C63FF"/>
<path opacity="0.1" d="M21.7425 27.193H21.8947C21.8443 27.1716 21.8005 27.1372 21.7678 27.0934C21.735 27.0495 21.7145 26.9977 21.7082 26.9433C21.7082 26.7472 22.003 26.5854 22.362 26.5854H26.9454C27.3044 26.5854 27.5991 26.7472 27.5991 26.9433C27.5991 27.1405 27.3044 27.3013 26.9454 27.3013H26.7921C26.8425 27.3223 26.8864 27.3565 26.9192 27.4002C26.952 27.4439 26.9725 27.4956 26.9786 27.5499C26.9786 27.7181 26.7643 27.8596 26.4781 27.8971H27.7973C28.1574 27.8971 28.4521 28.0589 28.4521 28.255C28.4521 28.4511 28.1574 28.613 27.7973 28.613H23.2193C22.8592 28.613 22.5656 28.4522 22.5656 28.255C22.5656 28.0879 22.7799 27.9464 23.066 27.9078H21.7425C21.3825 27.9078 21.0878 27.7471 21.0878 27.5499C21.0878 27.3527 21.3868 27.193 21.7425 27.193Z" fill="#6C63FF"/>
<path opacity="0.1" d="M108.026 65.3815C108.796 61.6146 99.3712 56.5074 86.9753 53.9742C74.5795 51.441 63.9067 52.441 63.1369 56.2078C62.3671 59.9746 71.7918 65.0819 84.1877 67.6151C96.5835 70.1483 107.256 69.1483 108.026 65.3815Z" fill="#6C63FF"/>
<path d="M82.9935 41.2454C82.9935 41.2454 84.212 35.2646 88.864 35.8186C88.864 35.8186 92.0789 36.0394 92.7401 38.1441V42.7961L82.9935 41.2454Z" fill="#FF4C01"/>
<path d="M108.47 43.4616L67.0431 40.027L61.7267 41.1351L62.0589 48.5562L62.4211 48.6001L62.8337 59.7442L103.484 67.0539L107.805 63.3985V51.3178L108.358 50.9931L108.47 43.4616Z" fill="#3F3D56"/>
<path opacity="0.05" d="M108.525 43.4615L108.414 50.9931L103.928 53.0978L103.872 45.233L108.525 43.4615Z" fill="#FF4C01"/>
<path opacity="0.05" d="M107.805 51.3253L107.86 63.1777L103.54 66.8331L103.818 53.0978L107.805 51.3253Z" fill="black"/>
<path opacity="0.05" d="M62.4769 49.0438L103.851 54.0923L103.872 53.1343L62.4458 48.6666L62.4769 49.0438Z" fill="black"/>
<path opacity="0.05" d="M107.805 51.7604V51.3253L103.706 53.1343V54.0944L107.805 51.7604Z" fill="black"/>
<path d="M61.671 41.1351L66.9875 40.027L108.414 43.4616L103.762 45.2331L61.671 41.1351Z" fill="#EFC6CD"/>
<path opacity="0.1" d="M104.001 43.6748L106.034 43.8077L102.665 44.8161L100.949 44.6928L104.001 43.6748Z" fill="black"/>
<path d="M104.001 43.5859L106.034 43.7188L102.665 44.7283L100.949 44.604L104.001 43.5859Z" fill="white"/>
<path d="M103.758 43.8141C103.838 43.7798 103.923 43.8452 104.008 43.8613C104.058 43.8709 104.108 43.8613 104.157 43.8709C104.257 43.8838 104.356 43.9502 104.451 43.917" fill="#D3DAE1"/>
<path d="M103.653 43.8753C103.732 43.841 103.818 43.9053 103.903 43.9224C103.953 43.931 104.003 43.9224 104.052 43.931C104.152 43.9449 104.251 44.0114 104.346 43.9782" fill="#D3DAE1"/>
<path d="M103.411 43.9974C103.491 43.9631 103.577 44.0274 103.662 44.0435C103.711 44.0531 103.762 44.0435 103.81 44.0531C103.911 44.0671 104.01 44.1335 104.104 44.0992" fill="#D3DAE1"/>
<path opacity="0.1" d="M95.2134 42.674L97.2463 42.8079L93.8771 43.8163L92.1614 43.692L95.2134 42.674Z" fill="black"/>
<path d="M95.2134 42.5861L97.2463 42.7189L93.8771 43.7274L92.1614 43.6041L95.2134 42.5861Z" fill="white"/>
<path d="M94.9702 42.8144C95.0506 42.7801 95.1352 42.8444 95.221 42.8615C95.2703 42.8701 95.3206 42.8615 95.3699 42.8701C95.4696 42.884 95.5682 42.9505 95.6636 42.9172" fill="#D3DAE1"/>
<path d="M94.8652 42.8755C94.9445 42.8412 95.0303 42.9055 95.116 42.9215C95.1653 42.9312 95.2157 42.9215 95.265 42.9312C95.3646 42.9451 95.4632 43.0116 95.5586 42.9773" fill="#D3DAE1"/>
<path d="M94.623 42.9966C94.7034 42.9623 94.7891 43.0276 94.8749 43.0437C94.9231 43.0534 94.9745 43.0437 95.0228 43.0534C95.1235 43.0662 95.2221 43.1337 95.3164 43.0994" fill="#D3DAE1"/>
<path opacity="0.1" d="M99.4281 43.1744L101.462 43.3073L98.0929 44.3168L96.3761 44.1925L99.4281 43.1744Z" fill="black"/>
<path d="M99.4281 43.0865L101.462 43.2194L98.0929 44.2278L96.3761 44.1035L99.4281 43.0865Z" fill="white"/>
<path d="M99.1849 43.3148C99.2653 43.2805 99.351 43.3448 99.4368 43.3609C99.485 43.3705 99.5354 43.3609 99.5847 43.3705C99.6843 43.3834 99.784 43.4509 99.8783 43.4166" fill="#D3DAE1"/>
<path d="M99.08 43.3749C99.1603 43.3406 99.2461 43.4059 99.3318 43.422C99.38 43.4317 99.4304 43.422 99.4797 43.4317C99.5793 43.4445 99.679 43.512 99.7733 43.4777" fill="#D3DAE1"/>
<path d="M98.8387 43.497C98.918 43.4627 99.0038 43.527 99.0895 43.5441C99.1388 43.5527 99.1892 43.5441 99.2385 43.5527C99.3381 43.5666 99.4367 43.633 99.5321 43.5998" fill="#D3DAE1"/>
<path opacity="0.1" d="M53.4022 84.8078C65.386 84.8078 75.1008 82.808 75.1008 80.3412C75.1008 77.8743 65.386 75.8746 53.4022 75.8746C41.4183 75.8746 31.7035 77.8743 31.7035 80.3412C31.7035 82.808 41.4183 84.8078 53.4022 84.8078Z" fill="#6C63FF"/>
<path d="M77.1637 43.7638C76.9322 41.7298 76.016 39.7891 76.016 39.7891L76.0856 39.1032C76.0856 39.1032 76.1006 38.7603 76.0781 38.2459C76.0806 37.9247 76.1227 37.6051 76.2035 37.2943C76.3911 36.6995 75.9688 35.9687 75.9217 35.9011C75.8745 35.8336 75.9453 34.5294 75.523 33.8897C75.1008 33.2499 72.2888 32.0604 72.2888 32.0604C72.2888 32.0604 72.1377 31.7442 71.9244 31.3745L71.9437 31.337C71.7693 31.0205 71.553 30.7289 71.3007 30.4701C71.1282 30.2857 70.9621 30.1807 70.8281 30.2321C70.7737 30.0543 70.7321 29.8727 70.7038 29.6888C70.7317 29.6963 70.7606 29.7038 70.7885 29.7092C70.9046 29.7361 71.0249 29.739 71.1421 29.7178C71.4036 29.6588 71.5772 29.4241 71.723 29.2034C72.4496 28.0996 73.0754 26.8886 73.2029 25.5823C73.2372 25.3157 73.2245 25.0451 73.1654 24.7828C73.1051 24.5789 73.021 24.3829 72.9146 24.1988C72.7268 23.821 72.4889 23.4703 72.2074 23.1561C71.7069 22.6288 71.0168 22.3063 70.3073 22.1155C69.5081 21.9006 68.6755 21.8384 67.8533 21.9323C67.6389 21.9569 67.4246 21.9923 67.2103 22.0062C66.9384 22.0182 66.6661 22.0135 66.3948 21.9923L64.992 21.9108L64.9855 21.8894L64.7519 21.8755C64.6598 22.0587 64.7519 22.2763 64.8666 22.4477C64.9813 22.6192 65.1131 22.7981 65.1034 23.0007C65.0938 23.2032 64.947 23.3661 64.8323 23.5365C64.7176 23.7069 64.6308 23.9298 64.7455 24.097C64.7616 24.1201 64.7807 24.141 64.8023 24.1591C64.9234 24.2845 65.1345 24.2984 65.3178 24.2963H65.3499C64.8884 24.9041 64.6388 25.6464 64.6394 26.4096C64.6425 27.0618 64.825 27.7005 65.167 28.2558C65.5089 28.8112 65.9971 29.2617 66.578 29.5581C66.5984 29.6277 66.6187 29.6995 66.638 29.7724C66.8505 30.5251 66.9267 31.3098 66.8631 32.0893L66.8384 32.1429L66.8234 32.0861C66.8234 32.0861 65.1709 33.207 64.6801 33.5039C64.1893 33.8007 63.6964 34.807 63.6728 35.0813C63.6492 35.3557 62.8755 39.4933 62.8755 39.4933C62.7182 39.9101 62.5886 40.3368 62.4875 40.7707L61.5006 41.6377C61.5006 41.6377 59.4644 41.8209 58.875 41.6837L58.8922 41.7973C58.3724 41.6787 57.843 41.6069 57.3104 41.583C57.0195 41.5456 56.7239 41.5851 56.4531 41.6977L56.4328 41.7073L56.4167 41.7148C56.1064 41.7572 55.8035 41.8423 55.5165 41.9677C55.4822 41.9817 55.4511 41.9956 55.4211 42.0095L55.4276 41.8691L53.2243 41.7555L52.099 41.5273C52.099 41.5273 51.7004 41.2058 51.4657 41.2529C51.231 41.3001 50.7391 40.9786 50.7391 40.9786C50.6269 40.8907 50.5054 40.8152 50.3769 40.7536C50.3394 40.4942 50.3158 40.3367 50.3158 40.3367C50.3158 40.3367 49.4403 36.8624 48.7844 34.8199C48.345 33.4557 47.7128 32.7837 47.3398 32.4912C47.1737 32.2018 47.0644 32.0154 47.0644 32.0154C46.9926 31.7646 46.5983 31.1998 46.4975 31.1859C46.4815 31.1602 46.4697 31.1473 46.4632 31.1473C46.4417 31.145 46.4199 31.1483 46.4 31.157C46.2157 30.2396 46.1085 29.0898 46.3904 28.0878C46.7762 27.7707 47.0871 27.3723 47.3009 26.9209C47.5147 26.4696 47.6261 25.9766 47.627 25.4773C47.627 25.4623 47.627 25.4473 47.627 25.4323C47.627 25.4172 47.627 25.4012 47.627 25.3862C47.6268 24.5898 47.3448 23.8191 46.8308 23.2107L46.7944 23.17C46.8041 23.1631 46.8134 23.1556 46.8222 23.1475C46.9028 23.0822 46.9641 22.9963 46.9998 22.899C47.0354 22.8016 47.0441 22.6964 47.0248 22.5945C46.9766 22.3888 46.8158 22.227 46.7333 22.0319C46.6837 21.8818 46.644 21.7286 46.6143 21.5733C46.5512 21.3527 46.4353 21.1508 46.2768 20.9849L46.2929 21.0278C45.8728 20.5552 45.1505 20.3205 44.5 20.4255C44.0167 20.5027 43.5666 20.7277 43.0811 20.7974C42.7328 20.8467 42.3781 20.8145 42.0277 20.8499C41.7026 20.8833 41.3861 20.9748 41.0932 21.12C41.0167 21.1525 40.9489 21.2024 40.895 21.2657C40.8451 21.3505 40.8117 21.4439 40.7964 21.5411C40.6774 21.9751 40.3002 22.2848 40.0269 22.647C39.7148 23.0609 39.5341 23.5589 39.5083 24.0766C39.4976 24.2082 39.5103 24.3406 39.5458 24.4678C39.5694 24.5439 39.6058 24.6157 39.6229 24.6928C39.6765 24.9286 39.5533 25.1633 39.4933 25.3969C39.4177 25.6949 39.4445 26.0097 39.5694 26.2906C39.9927 27.238 41.3826 27.5541 41.6719 28.5486C41.8933 28.6504 42.1272 28.7224 42.3674 28.7629C42.3867 28.8615 42.4039 28.9612 42.4178 29.0619C42.4113 29.0647 42.4051 29.0683 42.3996 29.0726C42.0245 29.4381 41.9313 30.1443 41.9313 30.1443L41.8862 30.1807C41.733 30.3072 41.209 30.7315 40.7353 31.0584C40.1727 31.4474 39.235 32.7505 38.5792 33.1395C37.9233 33.5285 37.3832 35.9258 37.5247 36.797C37.6661 37.6683 38.2512 40.1116 38.0165 41.0032C37.7818 41.8949 38.368 45.9639 38.368 45.9639C38.7614 46.0388 39.1463 46.153 39.5168 46.3047L39.5051 46.4826L39.4697 47.0184C39.4697 47.0184 38.4077 50.8592 38.8138 53.8158C39.22 56.7725 38.6263 57.0768 38.6263 57.0768C38.6263 57.0768 38.7506 58.3875 38.4388 58.8451C38.1269 59.3026 38.0637 60.3078 38.0637 60.3078C38.0637 60.3078 38.0326 62.5637 38.0948 63.2013C38.1569 63.8389 38.188 65.0006 37.9694 65.2749C37.7508 65.5493 37.3446 67.3464 37.3757 67.8951C37.4068 68.4438 36.5945 69.6944 37.0317 71.3093C37.4689 72.9243 35.7457 72.9554 35.7457 72.9554C35.7457 72.9554 35.9654 75.4202 36.4337 76.1253L36.5023 76.2261C36.4905 76.2668 36.4787 76.3096 36.4659 76.3557C36.2891 76.9987 36.0469 78.0135 36.2151 78.259C36.4648 78.6255 36.5902 78.5633 36.5902 78.5633L36.6834 80.2094C36.6834 80.2094 38.5588 81.7943 39.9969 81.7343C41.4351 81.6743 41.1532 80.2094 41.1532 80.2094L39.9284 77.033L39.8866 76.9258L41.2476 74.3539C41.2476 74.3539 41.6226 73.2265 41.7159 72.83C41.8091 72.4335 42.3181 71.0286 42.3181 71.0286C42.3181 71.0286 43.6041 67.9808 43.6309 67.6143C43.6577 67.2478 43.7563 65.2685 44.006 64.8709C44.2557 64.4733 44.9437 62.1918 44.9437 62.1918L44.9608 62.2068C45.0775 62.3215 45.1609 62.4657 45.202 62.624C45.2432 62.7824 45.2405 62.9489 45.1944 63.1059C45.0369 63.6846 45.1312 64.8731 45.1312 64.8731C45.1312 64.8731 45.069 65.8793 44.9437 66.398C44.8183 66.9167 44.7883 71.1529 45.0069 72.1581C45.1816 72.9629 45.1762 74.4696 45.1676 75.0397C45.0208 75.6452 44.8922 76.3975 45.1312 76.4865C45.5384 76.6397 47.6013 76.6086 47.6013 76.6086C47.6013 76.6086 48.4758 76.3032 49.6642 77.3706C50.8527 78.4379 54.5081 77.0662 54.5081 77.0662C54.5081 77.0662 55.6333 76.7608 53.4139 75.8778C51.8654 75.2616 50.8656 74.8511 50.2119 74.4118C50.2269 74.3828 50.2429 74.3539 50.2569 74.3228C50.2569 74.3228 49.3503 73.4655 50.1004 71.9459C50.8506 70.4263 50.8195 69.1414 50.8195 69.1414L50.9449 64.02L50.5698 57.2215L50.2794 50.0865L50.3308 50.0694C50.3801 51.381 50.6362 54.5038 51.9769 53.8983C53.6647 53.1364 52.2265 51.1549 52.2265 51.1549L51.4689 49.6782L51.695 49.601L50.8473 46.8619C50.766 46.3273 50.7552 45.7844 50.8152 45.247C50.832 44.9326 50.8255 44.6174 50.7959 44.3039C51.9061 44.1099 52.9692 43.9042 53.1599 43.9513C53.385 44.006 54.6442 44.0167 55.1393 44.0189C54.9775 44.1453 54.8478 44.2707 54.8478 44.2707L56.8636 45.6274C56.8636 45.6274 57.5473 45.2534 57.6898 44.8569C57.83 44.8214 57.9595 44.7522 58.067 44.6554C58.0884 45.1237 58.2128 45.6306 58.6457 45.6424C58.754 45.6447 58.8615 45.6235 58.9608 45.5802L62.2571 44.9276L61.9742 46.6947L62.1714 47.0452C62.0717 48.5358 61.9571 50.1187 61.8563 51.5107L61.8103 51.8151L61.8338 51.8204C61.6774 53.9637 61.552 55.5872 61.552 55.5872C61.7366 55.2354 62.0231 54.9475 62.374 54.761L62.3954 57.9417C62.3954 57.9417 62.5604 62.9709 62.5604 63.6567C62.5604 64.3426 62.5829 65.874 62.5829 65.874C62.5829 65.874 62.9355 67.7483 63.1455 68.3655C63.3556 68.9828 63.5206 71.7948 63.5206 71.7948C63.5206 71.7948 64.0136 72.5717 63.8024 72.8664C63.5913 73.1611 64.6233 73.8031 64.6233 73.8031C64.6233 73.8031 63.9664 74.6947 63.9193 75.2894C63.9139 75.358 63.9814 75.4309 64.1036 75.5038C64.065 75.5348 64.0254 75.5659 63.9814 75.5959C63.6771 75.7995 63.2313 75.941 62.5604 75.8831C60.7311 75.7224 59.4419 77.4145 60.5672 77.7574C61.6924 78.1004 65.0681 78.1689 65.0681 78.1689C65.0681 78.1689 66.0904 77.5313 66.8899 77.8185C66.8781 78.4894 66.9113 79.1045 66.9166 79.1859L66.907 79.1934C66.4291 79.6221 65.5139 80.3594 64.6201 80.6605C63.3341 81.0945 63.0491 82.8552 64.7133 83.0835C66.3776 83.3118 68.8156 82.8092 68.8156 82.8092C68.8156 82.8092 70.0812 81.8725 71.0425 81.6668C72.0037 81.461 72.8246 81.0034 72.6607 80.4548C72.5535 80.1043 72.2781 79.1859 72.0916 78.5687C72.0809 78.5315 72.0702 78.4958 72.0595 78.4615C72.0884 78.3972 72.1173 78.3308 72.1441 78.2622C72.1441 78.2622 71.6522 75.702 72.0509 75.0623C72.4496 74.4225 72.2384 68.0205 72.2384 68.0205C72.2384 68.0205 71.5579 66.398 71.9105 65.4153C72.2631 64.4326 71.3479 63.0373 71.3479 63.0373C71.3479 63.0373 71.4476 60.2414 71.7155 58.6832C71.7276 58.6168 71.7394 58.5525 71.7508 58.4903C72.1994 58.3572 72.6366 58.1884 73.0582 57.9856C73.0582 57.9856 73.2929 54.4642 73.4333 53.6647C73.4473 53.5897 73.4665 53.4686 73.4901 53.3111L73.5973 52.7463L73.7237 52.1033L74.1524 49.9118L74.9261 48.9109L76.9194 46.8748C76.9194 46.8748 77.3984 45.7989 77.1637 43.7638ZM46.4247 31.1902L46.4097 31.2009C46.4074 31.1932 46.4056 31.1853 46.4043 31.1773C46.4105 31.1825 46.4174 31.1868 46.4247 31.1902ZM66.1183 33.6861L66.0411 33.8543L66.323 33.5735L65.9404 34.0022L66.069 33.7321L66.1183 33.6861ZM64.215 37.619C64.1411 37.8151 64.0618 38.0273 63.9793 38.248L64.1304 37.7969L64.215 37.619Z" fill="url(#paint0_linear)"/>
<path d="M58.065 44.0306C58.065 44.0306 57.8024 45.7785 58.5901 45.801C59.3777 45.8235 59.9039 44.4529 59.9039 44.4529L59.5824 43.3566L58.065 44.0306Z" fill="#585B8A"/>
<path opacity="0.2" d="M58.065 44.0306C58.065 44.0306 57.8024 45.7785 58.5901 45.801C59.3777 45.8235 59.9039 44.4529 59.9039 44.4529L59.5824 43.3566L58.065 44.0306Z" fill="black"/>
<path d="M40.4224 81.864C39.0207 81.9251 37.1924 80.3412 37.1924 80.3412L37.1014 78.6962C37.1014 78.6962 36.9803 78.7573 36.7359 78.3919C36.572 78.1464 36.8077 77.1295 36.9803 76.4897C37.0638 76.1768 37.1324 75.9539 37.1324 75.9539L40.208 76.7769L40.3549 77.1659L41.5487 80.3401C41.5487 80.3401 41.823 81.8029 40.4224 81.864Z" fill="#FF4C01"/>
<path d="M54.5542 77.2045C54.5542 77.2045 50.991 78.5751 49.839 77.5088C48.687 76.4425 47.8286 76.7469 47.8286 76.7469C47.8286 76.7469 45.8182 76.778 45.4217 76.6247C45.1881 76.5358 45.3145 75.7738 45.4603 75.1673C45.5588 74.7483 45.666 74.4021 45.666 74.4021C45.666 74.4021 49.1681 73.2137 49.7168 73.9445C49.8816 74.1593 50.0786 74.3472 50.3009 74.5018C50.9353 74.9604 51.9266 75.3762 53.4944 76.016C55.6505 76.8991 54.5542 77.2045 54.5542 77.2045Z" fill="#FF4C01"/>
<path d="M51.3565 49.3643L52.3306 51.3136C52.3306 51.3136 53.7323 53.294 52.0873 54.0549C50.4424 54.8157 50.4734 49.6697 50.4734 49.6697L51.3565 49.3643Z" fill="#FFD6D6"/>
<path d="M47.2745 32.4601C47.2745 32.4601 48.3408 32.9477 48.9806 34.9881C49.6204 37.0285 50.4734 40.5017 50.4734 40.5017C50.4734 40.5017 51.0521 44.4304 50.9599 45.4056C50.9013 45.9426 50.9117 46.485 50.991 47.0194L51.813 49.7607L50.168 50.3394L47.64 40.6539L47.2745 32.4601Z" fill="#DCE6F2"/>
<path opacity="0.05" d="M47.2745 32.4601C47.2745 32.4601 48.3408 32.9477 48.9806 34.9881C49.6204 37.0285 50.4734 40.5017 50.4734 40.5017C50.4734 40.5017 51.0521 44.4304 50.9599 45.4056C50.9013 45.9426 50.9117 46.485 50.991 47.0194L51.813 49.7607L50.168 50.3394L47.64 40.6539L47.2745 32.4601Z" fill="black"/>
<path opacity="0.1" d="M40.2081 76.7779L40.3549 77.1669L40.1748 77.5109C39.474 77.8153 37.7379 77.572 37.7379 77.572C37.7379 77.572 37.4164 77.1637 36.9771 76.4918C37.0606 76.1789 37.1292 75.956 37.1292 75.956L40.2081 76.7779Z" fill="black"/>
<path opacity="0.1" d="M50.4123 74.6454C49.5239 76.6579 46.504 75.911 45.6649 75.6591C45.5266 75.6174 45.4506 75.5895 45.4506 75.5895C45.4506 75.5895 45.4559 75.4255 45.4581 75.1673C45.5567 74.7483 45.6638 74.4021 45.6638 74.4021C45.6638 74.4021 49.166 73.2137 49.7146 73.9445C49.8794 74.1593 50.0764 74.3472 50.2987 74.5018C50.3322 74.5529 50.3702 74.601 50.4123 74.6454Z" fill="black"/>
<path d="M50.2591 72.0874C49.5282 73.6091 50.4123 74.4632 50.4123 74.4632C49.5239 76.4747 46.504 75.7288 45.6649 75.4759C45.5267 75.4352 45.4506 75.4073 45.4506 75.4073C45.4506 75.4073 45.5117 73.3047 45.2984 72.2995C45.0852 71.2943 45.1152 67.0613 45.2373 66.5437C45.3595 66.0261 45.4195 65.0198 45.4195 65.0198C45.4195 65.0198 45.3284 63.8325 45.4806 63.2538C45.5264 63.0974 45.5295 62.9317 45.4895 62.7738C45.4496 62.6158 45.368 62.4715 45.2534 62.3557L45.2373 62.3397C45.2373 62.3397 44.5676 64.6244 44.3232 65.0188C44.0789 65.4131 43.9889 67.3946 43.9578 67.76C43.9267 68.1255 42.6782 71.1722 42.6782 71.1722C42.6782 71.1722 42.1917 72.5728 42.1006 72.9682C42.0095 73.3637 41.643 74.4921 41.643 74.4921L40.1749 77.3256C39.474 77.6299 37.738 77.3866 37.738 77.3866C37.738 77.3866 37.4036 76.958 36.946 76.2593C36.4884 75.5606 36.2762 73.0926 36.2762 73.0926C36.2762 73.0926 37.9512 73.0615 37.5247 71.4476C37.0982 69.8337 37.8901 68.5841 37.8601 68.0355C37.8301 67.4868 38.2256 65.6907 38.4388 65.4164C38.6521 65.142 38.621 63.9846 38.5599 63.3449C38.4988 62.7051 38.5299 60.4514 38.5299 60.4514C38.5299 60.4514 38.591 59.4462 38.8953 58.9897C39.1997 58.5332 39.0786 57.2226 39.0786 57.2226C39.0786 57.2226 39.6562 56.9182 39.2608 53.9637C38.8653 51.0092 39.9038 47.1716 39.9038 47.1716L39.9391 46.6358L39.9949 45.7677C39.9949 45.7677 48.7063 45.2191 49.4071 45.8888C49.5903 46.0747 49.7407 46.2903 49.8518 46.5265C50.0916 47.0419 50.261 47.5873 50.3555 48.1479L50.7209 57.3769L51.0864 64.169L50.9642 69.2861C50.9642 69.2861 50.991 70.5635 50.2591 72.0874Z" fill="#565988"/>
<path opacity="0.1" d="M47.6763 53.8727L46.7622 73.6702L45.6648 75.4749C45.5266 75.4342 45.4505 75.4063 45.4505 75.4063C45.4505 75.4063 45.5116 73.3037 45.2983 72.2985C45.0851 71.2933 45.1151 67.0603 45.2372 66.5427C45.3594 66.0251 45.4194 65.0189 45.4194 65.0189C45.4194 65.0189 45.3283 63.8315 45.4805 63.2528C45.5263 63.0965 45.5294 62.9307 45.4894 62.7728C45.4495 62.6148 45.3679 62.4705 45.2533 62.3547L45.2683 62.2476L47.6763 53.8727Z" fill="black"/>
<path opacity="0.1" d="M37.8322 75.133C37.8322 75.133 40.2081 74.1889 40.5735 74.49C40.9389 74.7911 37.7722 75.2509 37.7722 75.2509L37.8322 75.133Z" fill="black"/>
<path opacity="0.1" d="M49.5592 72.635C49.4681 72.6661 47.1534 73.4923 47.3667 74.3711C47.5799 75.2498 49.5592 72.635 49.5592 72.635Z" fill="black"/>
<path d="M42.3257 27.5723C42.3257 27.5723 43.1016 29.4455 42.6911 30.4057C42.2807 31.3659 47.1224 33.0098 47.1224 33.0098C47.1224 33.0098 45.7067 29.3544 47.0774 27.298C48.448 25.2415 42.3257 27.5723 42.3257 27.5723Z" fill="#FFD6D6"/>
<path d="M70.6749 81.8029C69.7383 82.0087 68.5049 82.9453 68.5049 82.9453C68.5049 82.9453 66.129 83.4479 64.5066 83.2196C62.8841 82.9913 63.1595 81.2317 64.4155 80.7977C65.2867 80.4976 66.1794 79.7571 66.6456 79.3328C66.8513 79.1431 66.9735 79.0113 66.9735 79.0113L71.5205 78.0972C71.5205 78.0972 71.5944 78.3511 71.6973 78.7016C71.8795 79.3199 72.1485 80.2372 72.2513 80.5866C72.411 81.1406 71.6116 81.5971 70.6749 81.8029Z" fill="#FF4C01"/>
<path d="M69.5101 78.2847C69.5101 78.2847 67.5908 78.4905 66.7913 78.0339C65.9919 77.5774 64.8495 78.3083 64.8495 78.3083C64.8495 78.3083 61.5596 78.2397 60.4633 77.8968C59.367 77.5538 60.6229 75.8606 62.4051 76.0235C63.0545 76.0825 63.4939 75.9399 63.7907 75.7363C64.1008 75.5238 64.3169 75.1998 64.3941 74.8318L68.252 75.0601L68.7878 76.4275L69.5101 78.2847Z" fill="#FF4C01"/>
<path opacity="0.1" d="M68.8468 77.0512C68.8468 77.0512 64.363 76.3182 63.7908 75.7363C64.1009 75.5238 64.317 75.1998 64.3941 74.8318L68.252 75.0601L68.7878 76.4275L68.8468 77.0512Z" fill="black"/>
<path d="M62.1993 51.3982L62.2454 58.0906C62.2454 58.0906 62.4051 63.1167 62.4051 63.8025C62.4051 64.4884 62.4276 66.0176 62.4276 66.0176C62.4276 66.0176 62.7705 67.8908 62.9763 68.5081C63.182 69.1254 63.3417 71.9374 63.3417 71.9374C63.3417 71.9374 63.8218 72.7143 63.6161 73.009C63.4103 73.3037 64.4155 73.9456 64.4155 73.9456C64.4155 73.9456 63.7725 74.8372 63.7307 75.4309C63.6889 76.0246 68.8467 76.868 68.8467 76.868L66.8374 56.2635L65.2375 51.1014L62.1993 51.3982Z" fill="#575988"/>
<path opacity="0.1" d="M62.1993 51.3982L62.2454 58.0906C62.2454 58.0906 62.4051 63.1167 62.4051 63.8025C62.4051 64.4884 62.4276 66.0176 62.4276 66.0176C62.4276 66.0176 62.7705 67.8908 62.9763 68.5081C63.182 69.1254 63.3417 71.9374 63.3417 71.9374C63.3417 71.9374 63.8218 72.7143 63.6161 73.009C63.4103 73.3037 64.4155 73.9456 64.4155 73.9456C64.4155 73.9456 63.7725 74.8372 63.7307 75.4309C63.6889 76.0246 68.8467 76.868 68.8467 76.868L66.8374 56.2635L65.2375 51.1014L62.1993 51.3982Z" fill="black"/>
<path opacity="0.1" d="M71.6972 78.7069C70.2044 82.2659 66.6541 79.5193 66.6541 79.5193C66.6541 79.5193 66.6541 79.4507 66.6455 79.3328C66.8513 79.1431 66.9734 79.0113 66.9734 79.0113L71.5204 78.0972C71.5204 78.0972 71.5943 78.3565 71.6972 78.7069Z" fill="black"/>
<path d="M71.7487 78.3994C70.2859 82.1502 66.6541 79.3361 66.6541 79.3361C66.6541 79.3361 66.5395 77.3942 66.7688 76.5037C66.9981 75.6132 66.517 72.9394 66.517 72.9394C66.517 72.9394 66.2426 70.5636 65.9919 70.016C65.7411 69.4683 65.7636 68.371 65.7636 68.2799C65.7636 68.1888 65.8547 67.4569 65.6489 66.9543C65.4432 66.4517 65.3274 65.2182 65.3274 65.2182C65.3274 65.2182 65.3274 63.4821 65.1217 62.4544L64.4133 58.918L63.1338 51.6758L63.5335 51.6072L70.6953 50.3513C70.6953 50.3513 72.0434 57.2098 71.5859 57.9128C71.4873 58.0671 71.4005 58.4047 71.3287 58.8398C71.0672 60.3958 70.9697 63.1896 70.9697 63.1896C70.9697 63.1896 71.8602 64.5827 71.5183 65.5654C71.1765 66.5481 71.8398 68.1695 71.8398 68.1695C71.8398 68.1695 72.0456 74.5662 71.6566 75.2059C71.2676 75.8457 71.7487 78.3994 71.7487 78.3994Z" fill="#575988"/>
<path d="M71.0628 31.6381C71.0628 31.6381 64.5751 36.2066 66.0368 33.9218C66.8244 32.6916 66.6798 31.1248 66.3711 29.9417C66.2151 29.34 65.9997 28.7552 65.7281 28.196C65.7281 28.196 71.2407 25.8513 70.5098 27.9528C70.3386 28.4424 70.2657 28.961 70.2955 29.4788C70.3393 30.2572 70.6056 31.0066 71.0628 31.6381Z" fill="#D28690"/>
<path d="M59.3819 42.1006C59.3819 42.1006 56.6407 41.3087 56.1841 42.0856C55.7276 42.8625 56.3213 44.5675 57.1486 44.8419C57.9759 45.1162 59.8749 43.9128 59.8749 43.9128L59.3819 42.1006Z" fill="#D28690"/>
<path d="M62.5198 40.7535L61.3774 41.8048C61.3774 41.8048 59.3895 41.987 58.8183 41.8498C58.8183 41.8498 59.3445 45.368 58.5901 45.802L63.2046 44.8654L62.5198 40.7535Z" fill="#585B8A"/>
<path opacity="0.1" d="M62.5198 40.7535L61.3774 41.8048C61.3774 41.8048 59.3895 41.987 58.8183 41.8498C58.8183 41.8498 59.3445 45.368 58.5901 45.802L63.2046 44.8654L62.5198 40.7535Z" fill="black"/>
<path opacity="0.1" d="M47.8531 25.653C47.8531 26.5625 47.4919 27.4347 46.8487 28.0779C46.2056 28.721 45.3334 29.0823 44.4239 29.0823C42.6642 28.2367 40.9946 27.5487 40.9946 25.653C40.9764 25.1916 41.0515 24.7313 41.2155 24.2996C41.3795 23.868 41.6289 23.4739 41.9489 23.141C42.2689 22.8081 42.6528 22.5433 43.0776 22.3624C43.5025 22.1814 43.9595 22.0882 44.4212 22.0882C44.883 22.0882 45.3399 22.1814 45.7648 22.3624C46.1896 22.5433 46.5735 22.8081 46.8935 23.141C47.2135 23.4739 47.463 23.868 47.6269 24.2996C47.7909 24.7313 47.866 25.1916 47.8478 25.653H47.8531Z" fill="black"/>
<path d="M47.8531 25.5609C47.8536 26.3673 47.5693 27.1481 47.0504 27.7655C46.5315 28.3828 45.8112 28.7971 45.0166 28.9353C44.2221 29.0734 43.4042 28.9266 42.7074 28.5206C42.0105 28.1147 41.4794 27.4757 41.2076 26.7164C40.9359 25.9571 40.941 25.1262 41.222 24.3702C41.5031 23.6143 42.042 22.9819 42.7438 22.5845C43.4456 22.1871 44.2652 22.0504 45.058 22.1983C45.8508 22.3462 46.5659 22.7692 47.0772 23.3929C47.578 24.0046 47.8521 24.7704 47.8531 25.5609Z" fill="#FFD6D6"/>
<path opacity="0.1" d="M49.8519 46.5298C49.5126 46.7405 49.1575 46.9246 48.7899 47.0806C48.7899 47.0806 47.0538 46.8288 46.803 47.1256C46.5523 47.4225 44.3382 47.5371 44.3382 47.5371C44.3382 47.5371 40.9572 47.3774 40.4546 46.9434C40.2992 46.8176 40.1263 46.715 39.9413 46.6391L39.997 45.771C39.997 45.771 48.7084 45.2223 49.4093 45.8921C49.5917 46.0782 49.7413 46.2938 49.8519 46.5298Z" fill="black"/>
<path d="M50.2751 45.9157C50.2065 46.3036 48.7898 46.8973 48.7898 46.8973C48.7898 46.8973 47.0537 46.6465 46.803 46.9434C46.5522 47.2402 44.3382 47.3549 44.3382 47.3549C44.3382 47.3549 40.9571 47.1942 40.4545 46.7601C39.9519 46.3261 38.8321 46.1172 38.8321 46.1172C38.8321 46.1172 38.2609 42.0513 38.4902 41.1608C38.7195 40.2703 38.1473 37.8248 38.0101 36.9567C37.8729 36.0887 38.3981 33.6904 39.0378 33.3024C39.6776 32.9145 40.5917 31.6114 41.1393 31.2234C41.6012 30.8966 42.1113 30.4733 42.2603 30.3458L42.3042 30.3093C42.3042 30.3093 42.3964 29.601 42.7618 29.2377C43.1272 28.8744 46.4847 31.5449 46.4847 31.5449C46.4847 31.5449 46.5083 31.7507 46.7365 31.3627C46.788 31.2759 47.2306 31.9146 47.3077 32.1847C47.3077 32.1847 49.1349 35.3836 49.2495 36.0426C49.3642 36.7017 49.8432 38.8525 49.9343 39.3776C49.9579 39.5126 49.9965 39.9863 50.0415 40.6207C50.0501 40.745 50.0576 40.8768 50.0672 41.014C50.1347 42.0663 50.2076 43.4102 50.2515 44.4261C50.2515 44.5418 50.2612 44.6533 50.2644 44.7605C50.2875 45.1451 50.2911 45.5307 50.2751 45.9157Z" fill="#DCE6F2"/>
<path opacity="0.1" d="M38.6744 37.6683C38.6744 37.6683 39.9304 39.1986 40.3419 39.1986C40.7534 39.1986 38.6744 37.6683 38.6744 37.6683Z" fill="black"/>
<path opacity="0.1" d="M41.3205 40.9583C41.3205 40.9583 39.264 43.197 39.5384 43.6085C39.8127 44.02 41.3205 40.9583 41.3205 40.9583Z" fill="black"/>
<path opacity="0.1" d="M39.8126 45.4131C39.8126 45.4131 42.1703 42.8315 42.2774 41.9409L39.8126 45.4131Z" fill="black"/>
<path opacity="0.1" d="M42.7822 45.5952C42.7822 45.5952 45.501 44.156 45.7293 43.0136C45.9575 41.8712 42.7822 45.5952 42.7822 45.5952Z" fill="black"/>
<path opacity="0.1" d="M46.2318 31.7068L45.8546 32.6198L46.4826 32.9166L47.0999 34.642C47.0999 34.642 48.8016 38.0455 48.7331 39.8159C48.6645 41.5863 49.0417 44.2471 49.0417 44.2471L50.0233 44.065L49.5604 38.8578C49.4883 38.0516 49.2863 37.2624 48.9624 36.5206C48.1779 34.7245 46.7184 31.4088 46.6262 31.4088C46.5008 31.4088 46.5887 31.4549 46.5887 31.4549L46.2318 31.7068Z" fill="black"/>
<path d="M46.3229 31.6146L45.9457 32.5287L46.5747 32.8256L47.1909 34.5509C47.1909 34.5509 48.8927 37.9545 48.8241 39.7248C48.7555 41.4952 49.1328 44.1561 49.1328 44.1561L50.1154 43.9739L49.6514 38.7668C49.5802 37.9605 49.3786 37.1712 49.0545 36.4295C48.2701 34.6324 46.8105 31.3178 46.7194 31.3178C46.593 31.3178 46.6808 31.3639 46.6808 31.3639L46.3229 31.6146Z" fill="#FF4C01"/>
<path d="M57.4476 45.0402C56.9697 45.0038 55.823 44.424 55.3676 44.1829L55.1747 44.0757L55.1983 42.3065C55.3109 42.2402 55.4276 42.1812 55.5476 42.1296C56.1563 41.8639 57.4048 41.5027 58.0306 42.6655C58.8751 44.2247 58.0531 45.0809 57.4476 45.0402Z" fill="#FFD6D6"/>
<path opacity="0.1" d="M47.0775 23.393C47.0284 23.4237 46.9744 23.4458 46.9178 23.4583C46.5202 23.5451 46.068 23.2033 45.7272 23.423C45.5193 23.558 45.4711 23.8377 45.4432 24.0842C45.3946 24.5128 45.3461 24.9386 45.2975 25.3616C45.2873 25.5121 45.2555 25.6605 45.2032 25.802C45.0349 26.1867 44.573 26.3678 44.1519 26.3614C43.9869 26.3732 43.824 26.3192 43.6986 26.2114C43.6246 26.1364 43.585 26.0313 43.5035 25.9628C42.9677 25.5137 42.8048 26.6143 42.9463 26.9272C43.1735 27.4384 43.9804 27.9314 43.6418 28.5808C43.5848 28.6863 43.4985 28.7731 43.3932 28.8305C42.8828 28.6706 42.417 28.3937 42.0328 28.0217C41.6486 27.6498 41.3567 27.1931 41.1804 26.6883C41.0041 26.1834 40.9484 25.6443 41.0176 25.114C41.0868 24.5838 41.2791 24.0771 41.5791 23.6344C41.879 23.1917 42.2784 22.8252 42.7452 22.5644C43.212 22.3035 43.7334 22.1554 44.2676 22.132C44.8019 22.1085 45.3342 22.2104 45.8221 22.4293C46.3099 22.6482 46.7399 22.9783 47.0775 23.393Z" fill="black"/>
<path d="M43.4124 25.9584C43.4928 26.026 43.5335 26.131 43.6074 26.206C43.7329 26.3137 43.8958 26.3676 44.0607 26.356C44.4819 26.3625 44.9438 26.1824 45.111 25.7956C45.1643 25.6546 45.1964 25.5065 45.2063 25.3562L45.3521 24.0788C45.3799 23.8323 45.4271 23.5526 45.6361 23.4176C45.9768 23.2033 46.4291 23.5397 46.8267 23.4529C46.97 23.4165 47.094 23.3269 47.1737 23.2023C47.2533 23.0777 47.2825 22.9275 47.2553 22.7821C47.2092 22.5774 47.0528 22.4156 46.9724 22.2206C46.9237 22.0707 46.8847 21.9178 46.8556 21.763C46.6338 20.9314 45.6575 20.4641 44.8087 20.6034C44.3372 20.6817 43.8989 20.9067 43.4263 20.9753C43.0877 21.0246 42.7415 20.9925 42.3997 21.0289C42.0821 21.0617 41.7733 21.1529 41.4888 21.2979C41.4141 21.3309 41.3481 21.3808 41.2959 21.4436C41.2474 21.5284 41.2147 21.6214 41.1995 21.718C41.0848 22.1466 40.7161 22.4627 40.4493 22.8239C40.1441 23.2394 39.9675 23.7353 39.9413 24.2502C39.9308 24.3818 39.9432 24.5141 39.9778 24.6414C40.0003 24.7164 40.0356 24.7893 40.0528 24.8664C40.1053 25.1011 39.9853 25.3358 39.9263 25.5694C39.8531 25.8676 39.8795 26.1814 40.0014 26.4632C40.4129 27.4094 41.7685 27.7256 42.0503 28.719C42.3006 28.839 42.5709 28.9117 42.8476 28.9333C43.1241 28.9387 43.422 28.8197 43.5506 28.5743C43.8882 27.9313 43.0823 27.4319 42.8551 26.9218C42.7126 26.6079 42.8723 25.5084 43.4124 25.9584Z" fill="#353045"/>
<path opacity="0.1" d="M70.5152 27.9528C70.344 28.4424 70.2711 28.961 70.3009 29.4788C70.1359 29.6192 69.9559 29.1991 69.7651 29.3073C69.2421 29.6095 68.6377 30.3286 67.9905 30.3286C67.4292 30.329 66.8757 30.1964 66.3755 29.9417C66.2195 29.34 66.0041 28.7552 65.7325 28.196C65.7325 28.196 71.2461 25.8513 70.5152 27.9528Z" fill="black"/>
<path d="M71.5505 26.5821C71.5505 27.287 71.3414 27.9762 70.9498 28.5623C70.5581 29.1484 70.0015 29.6053 69.3502 29.8751C68.6989 30.1448 67.9822 30.2154 67.2908 30.0779C66.5994 29.9404 65.9643 29.6009 65.4658 29.1024C64.9674 28.6039 64.6279 27.9689 64.4904 27.2774C64.3528 26.586 64.4234 25.8694 64.6932 25.2181C64.963 24.5668 65.4198 24.0101 66.006 23.6185C66.5921 23.2268 67.2812 23.0178 67.9862 23.0178C68.4543 23.0177 68.9178 23.1097 69.3503 23.2888C69.7828 23.4679 70.1758 23.7304 70.5068 24.0614C70.8378 24.3924 71.1004 24.7854 71.2794 25.2179C71.4585 25.6504 71.5506 26.114 71.5505 26.5821Z" fill="#D28690"/>
<path d="M71.3982 32.4301C71.3982 32.4301 70.7274 33.161 70.6363 33.221C70.5452 33.281 68.6002 41.4727 68.5659 41.5681C68.5316 41.6634 66.2501 49.0599 66.2501 49.0599L62.5947 50.8571L62.9001 41.8102L65.5792 34.3495C65.5792 34.3495 66.4633 33.3443 66.7366 32.9788C67.0099 32.6134 70.422 30.4197 70.422 30.4197L71.0049 31.6211L71.3982 32.4301Z" fill="#F0F3F7"/>
<path opacity="0.1" d="M70.915 31.8042L66.712 34.8134L66.6445 33.1609C66.9189 32.7955 70.3299 30.6029 70.3299 30.6029L70.915 31.8042Z" fill="black"/>
<path d="M71.006 31.6211L66.803 34.6302L66.7377 32.9788C67.012 32.6123 70.4231 30.4197 70.4231 30.4197L71.006 31.6211Z" fill="#F0F3F7"/>
<path d="M66.5974 32.2437L66.7378 32.9788L65.7979 33.9336L66.5481 32.2544C66.5481 32.2544 64.9406 33.3742 64.4584 33.6711C63.9762 33.9679 63.4939 34.9731 63.4757 35.2475C63.4575 35.5218 62.6988 39.6562 62.6988 39.6562C62.6988 39.6562 62.1276 41.1865 62.2883 41.6205C62.4491 42.0545 61.4203 55.7384 61.4203 55.7384C61.5578 55.4726 61.7522 55.2404 61.9897 55.0584C62.2271 54.8763 62.5018 54.7488 62.7941 54.6849L62.4276 46.5983C62.4276 46.5983 62.8734 41.2187 62.8959 41.1501C62.9184 41.0815 63.9354 37.963 63.9354 37.963L66.5974 32.2437Z" fill="#585B8A"/>
<path opacity="0.1" d="M66.8298 33.0699L66.757 34.5702C66.757 34.5702 65.74 37.7798 65.3981 38.3049C65.0563 38.83 64.0157 41.9603 64.0157 41.9603L63.4295 47.3978L62.4243 47.8554L61.9292 46.9434L62.7522 41.6923C62.7522 41.6923 64.305 37.2611 64.5344 36.8035L65.68 34.3902L66.8298 33.0699Z" fill="black"/>
<path d="M66.7377 32.9788L66.6659 34.4791C66.6659 34.4791 65.6489 37.6887 65.306 38.2138C64.9631 38.7389 63.9246 41.8692 63.9246 41.8692L63.3417 47.3056L62.3365 47.7622L61.8339 46.8491L62.6569 41.5981C62.6569 41.5981 64.2097 37.1657 64.438 36.7092L65.5921 34.2991L66.7377 32.9788Z" fill="#FF4C01"/>
<path d="M54.8896 44.4304L56.854 45.7904C56.854 45.7904 58.2396 45.0134 57.4327 44.5108C56.6257 44.0082 55.9099 43.9321 55.6505 43.9321C55.3912 43.9321 54.8896 44.4304 54.8896 44.4304Z" fill="#D28690"/>
<path d="M56.3566 41.9163C56.3128 41.9435 56.2767 41.9816 56.2517 42.0268C56.2268 42.072 56.2138 42.1229 56.2141 42.1745C56.2141 42.5914 56.2613 43.6952 56.6106 43.1969C57.0393 42.5871 56.961 42.0395 57.6158 42.4349C58.0228 42.6884 58.3789 43.0155 58.666 43.3994L58.4838 42.0899C58.4838 42.0899 57.1379 41.4254 56.3566 41.9163Z" fill="#D28690"/>
<path opacity="0.1" d="M71.588 57.9084C71.4894 58.0628 71.4026 58.4003 71.3308 58.8354C67.325 60.0367 64.394 57.4969 64.394 57.4969C64.0394 56.2953 63.7496 55.0754 63.526 53.8426C63.4542 53.4204 63.4702 52.6017 63.5367 51.6029L70.6985 50.3469C70.6985 50.3469 72.0456 57.2001 71.588 57.9084Z" fill="black"/>
<path d="M75.7 37.4626C75.5178 38.0573 75.5864 39.2672 75.5864 39.2672L73.9414 47.0345C73.9414 47.0345 73.1419 53.0197 73.0048 53.8191C72.8676 54.6185 72.6393 58.1368 72.6393 58.1368C67.9787 60.4215 64.3876 57.3148 64.3876 57.3148C64.0331 56.1128 63.7434 54.8925 63.5196 53.6594C63.2903 52.3027 63.9654 46.8673 64.2848 44.4529C64.3801 43.7381 64.4444 43.288 64.4444 43.288L65.6436 38.8332C65.6436 38.8332 67.1171 35.0749 67.6658 33.9787C68.2145 32.8824 70.4178 30.4197 70.4178 30.4197C70.6911 30.2461 71.1283 30.8591 71.453 31.4174C71.6984 31.8397 71.8817 32.2319 71.8817 32.2319C71.8817 32.2319 74.6229 33.4193 75.0334 34.0537C75.4438 34.6881 75.3763 35.9955 75.4224 36.0641C75.4685 36.1327 75.8832 36.8689 75.7 37.4626Z" fill="#585B8A"/>
<path opacity="0.1" d="M69.2357 34.6988C69.2357 34.6988 69.4415 35.9098 68.9143 36.2752C68.4052 36.6289 64.6159 44.08 64.3801 44.5451C64.4755 43.8293 64.5398 43.3792 64.5398 43.3792L65.739 38.9254C65.739 38.9254 67.2136 35.1671 67.7612 34.0698C68.3088 32.9724 70.5142 30.5108 70.5142 30.5108C70.7875 30.3372 71.2236 30.9502 71.5484 31.5085C71.0586 32.5255 70.0373 34.4481 69.2357 34.6988Z" fill="black"/>
<path d="M69.1446 34.6077C69.1446 34.6077 69.3493 35.8187 68.8231 36.1841C68.297 36.5495 64.5258 43.9878 64.2869 44.4529C64.3822 43.7381 64.4465 43.288 64.4465 43.288L65.6457 38.8332C65.6457 38.8332 67.1192 35.0749 67.6679 33.9786C68.2166 32.8824 70.4199 30.4197 70.4199 30.4197C70.6932 30.2461 71.1304 30.8591 71.4551 31.4174C70.9675 32.4333 69.9451 34.3569 69.1446 34.6077Z" fill="#585B8A"/>
<path d="M74.5811 45.5502L73.2919 52.2576V52.2587L73.1687 52.9006V52.9017L72.8911 54.3452L71.7069 54.0944L71.155 53.9776L63.5174 52.3594L62.9559 52.2405L61.6742 51.9694L61.925 50.304L62.0289 49.6118L62.9537 43.4713L74.5811 45.5502Z" fill="#FF4C01"/>
<path d="M67.4535 51.0328C67.4535 51.0328 64.4154 52.1291 65.0777 53.4311C65.74 54.7332 69.9891 52.4259 69.9891 52.4259L67.4535 51.0328Z" fill="#D28690"/>
<path opacity="0.1" d="M69.6237 60.3754C69.6237 60.4665 69.7383 61.6324 70.1949 62.0428C70.6514 62.4533 69.6237 60.3754 69.6237 60.3754Z" fill="black"/>
<path opacity="0.1" d="M66.563 64.5098C66.563 64.5098 67.1106 66.0176 69.2807 66.6348C71.4508 67.2521 66.563 64.5098 66.563 64.5098Z" fill="black"/>
<path opacity="0.1" d="M71.5505 26.5822C71.5506 27.2087 71.3856 27.8243 71.0719 28.3667C70.7583 28.9092 70.3072 29.3593 69.764 29.6717C69.5593 29.5572 69.3776 29.4057 69.2282 29.2249C69.0728 29.0362 68.9517 28.779 69.045 28.554C69.12 28.3729 69.3182 28.2582 69.3665 28.0707C69.3892 27.956 69.3833 27.8375 69.3493 27.7256C69.3097 27.5488 69.2721 27.372 69.2336 27.1962C69.2003 27.0462 69.1414 26.8694 68.9924 26.8329C68.8435 26.7965 68.7192 26.9208 68.6024 27.013C68.3162 27.2391 67.7676 27.3923 67.4236 27.2069C67.0796 27.0215 67.176 26.4011 67.1203 26.0656C67.1196 26.0365 67.1125 26.0079 67.0996 25.9818C67.0866 25.9556 67.0681 25.9327 67.0453 25.9145C66.9952 25.8979 66.9417 25.8942 66.8899 25.9038C66.7045 25.9038 66.5555 25.7377 66.5019 25.5598C66.464 25.3782 66.4432 25.1934 66.4398 25.0079C66.4194 24.8225 66.3519 24.6264 66.1933 24.531C66.0666 24.4721 65.9261 24.4491 65.7872 24.4646L65.1152 24.4721C65.561 23.8695 66.1854 23.4227 66.8996 23.1953C67.6139 22.9679 68.3816 22.9715 69.0937 23.2056C69.8058 23.4396 70.426 23.8922 70.8661 24.499C71.3062 25.1057 71.5438 25.8358 71.5451 26.5854L71.5505 26.5822Z" fill="black"/>
<path d="M68.6977 27.0129C68.8145 26.9208 68.9431 26.7986 69.0877 26.834C69.2324 26.8693 69.2946 27.0483 69.3278 27.1962L69.4435 27.7245C69.4778 27.8367 69.484 27.9555 69.4618 28.0707C69.4071 28.2593 69.2099 28.3729 69.1338 28.554C69.0406 28.779 69.1628 29.0362 69.3171 29.2237C69.5986 29.563 69.9877 29.7956 70.4198 29.8828C70.5326 29.9099 70.6499 29.9125 70.7638 29.8903C71.0189 29.8314 71.1925 29.5967 71.3296 29.377C72.038 28.2732 72.6478 27.0633 72.7721 25.758C72.8062 25.4918 72.7939 25.2217 72.7356 24.9597C72.6776 24.756 72.5955 24.56 72.4913 24.3756C72.3089 23.999 72.0772 23.6484 71.8022 23.3329C71.3146 22.8078 70.6416 22.4852 69.9504 22.2945C69.173 22.0788 68.3612 22.0151 67.5596 22.1069C67.3452 22.1316 67.1395 22.167 66.9284 22.1809C66.6633 22.1932 66.3977 22.1889 66.1332 22.168L64.5557 22.0737C64.4657 22.257 64.5557 22.4745 64.6629 22.646C64.7701 22.8174 64.903 22.9953 64.8944 23.199C64.8858 23.4026 64.7411 23.5633 64.6297 23.7348C64.5182 23.9062 64.4336 24.1281 64.545 24.2952C64.6565 24.4624 64.8837 24.4731 65.0809 24.471L65.876 24.4624C66.0145 24.4482 66.1543 24.4723 66.28 24.5321C66.4386 24.6275 66.5062 24.8246 66.5265 25.009C66.531 25.1944 66.5518 25.3791 66.5887 25.5609C66.6433 25.7388 66.7912 25.907 66.9766 25.9049C67.0285 25.8945 67.0822 25.8986 67.132 25.9166C67.1548 25.9346 67.1733 25.9574 67.1862 25.9833C67.1992 26.0092 67.2063 26.0377 67.207 26.0667C67.2627 26.4021 67.1599 27.0215 67.5103 27.208C67.8607 27.3944 68.4115 27.2391 68.6977 27.0129Z" fill="#663D5C"/>
<path opacity="0.1" d="M73.2276 34.0526C72.8336 34.0107 72.437 34.1041 72.1031 34.3173C71.7691 34.5305 71.5176 34.851 71.3897 35.226C70.9611 36.4466 70.2463 38.6488 70.4252 39.519C70.6771 40.7525 70.9739 42.809 70.9739 42.809C70.9739 42.809 72.276 43.5591 71.6169 44.3157C70.9579 45.0723 70.7714 46.1439 70.7714 46.1439C70.7714 46.1439 69.9259 46.5094 69.7437 47.2863C69.5615 48.0632 68.327 49.136 68.327 49.136L66.4773 50.9867C66.4773 50.9867 69.5379 54.0945 70.1552 54.2531L72.0509 52.0369L74.2896 49.0674L76.2314 47.0313C76.2314 47.0313 76.6879 45.9596 76.4597 43.9235C76.2314 41.8874 75.3398 39.9488 75.3398 39.9488L75.4084 39.2629C75.4084 39.2629 75.6184 34.3494 73.2276 34.0526Z" fill="black"/>
<path d="M73.4097 34.0525C73.016 34.0112 72.62 34.1048 72.2865 34.318C71.953 34.5312 71.7018 34.8513 71.574 35.226C71.1453 36.4466 70.4306 38.6488 70.6095 39.519C70.8603 40.7525 71.1571 42.8089 71.1571 42.8089C71.1571 42.8089 72.4592 43.5591 71.8001 44.3157C71.141 45.0723 70.9557 46.1439 70.9557 46.1439C70.9557 46.1439 70.1101 46.5093 69.9269 47.2863C69.7436 48.0632 68.5112 49.1359 68.5112 49.1359L66.6605 50.9867C66.6605 50.9867 69.7211 54.0944 70.3384 54.253L72.2341 52.0369L74.4674 49.0673L76.4092 47.0312C76.4092 47.0312 76.8668 45.9596 76.6375 43.9234C76.4082 41.8873 75.5187 39.9487 75.5187 39.9487L75.5873 39.2629C75.5873 39.2629 75.8005 34.3494 73.4097 34.0525Z" fill="#585B8A"/>
<path opacity="0.1" d="M71.4969 41.0043C71.4969 41.0043 73.4388 43.3791 74.2618 42.854C75.0848 42.3289 71.4969 41.0043 71.4969 41.0043Z" fill="black"/>
<path opacity="0.1" d="M72.2278 39.176C72.4335 39.2446 74.1246 41.598 74.9926 41.3193C75.8607 41.0407 72.2278 39.176 72.2278 39.176Z" fill="black"/>
<path opacity="0.1" d="M72.7079 43.2183C72.7079 43.2183 72.8226 44.5665 74.2157 44.3832C75.6088 44.2 72.7079 43.2183 72.7079 43.2183Z" fill="black"/>
<path opacity="0.1" d="M66.5512 32.3455L65.7979 34.0247L66.7387 33.0699L66.5512 32.3455Z" fill="black"/>
<path d="M66.5512 32.2544L65.7979 33.9337L66.7387 32.9788L66.5512 32.2544Z" fill="#F0F3F7"/>
<path opacity="0.3" d="M63.5174 52.3595L62.9559 52.2406L61.9249 50.3041L62.0289 49.6118L63.5174 52.3595Z" fill="black"/>
<path opacity="0.3" d="M73.2919 52.2587L73.1687 52.9006V52.9017L71.7069 54.0945L71.155 53.9776L73.2919 52.2587Z" fill="black"/>
<path opacity="0.1" d="M50.2612 44.7647C49.9782 44.8118 49.7039 44.8547 49.4531 44.8869C48.06 45.0701 44.7465 43.4251 44.7465 43.4251C44.7465 43.4251 40.7032 40.0441 39.5383 36.8463C38.3734 33.6485 40.9314 33.1684 40.9314 33.1684C41.8959 32.6198 43.9931 34.1501 44.2899 34.4019C44.5868 34.6537 44.8386 35.2924 44.8151 35.704C44.7915 36.1155 45.5009 36.6406 45.5009 36.6406C45.5009 36.6406 46.7119 38.7421 47.0087 38.9703C47.3056 39.1986 47.3741 39.4043 47.4652 39.7933C47.5563 40.1823 48.3558 40.5017 48.6987 40.4781C49.0416 40.4545 49.4488 40.5928 49.4488 40.775C49.4488 40.9218 49.7843 40.9946 50.0597 41.0182C50.1411 42.1895 50.2215 43.7241 50.2612 44.7647Z" fill="black"/>
<path opacity="0.1" d="M50.2483 44.4303C50.0339 44.4646 49.8282 44.4957 49.6353 44.5214C48.2422 44.7047 44.9297 43.0597 44.9297 43.0597C44.9297 43.0597 40.8864 39.6787 39.7215 36.4809C38.5566 33.2831 41.1146 32.803 41.1146 32.803C42.0791 32.2543 44.1753 33.7847 44.4721 34.0365C44.769 34.2883 45.0208 34.927 44.9983 35.3385C44.9758 35.75 45.6831 36.2751 45.6831 36.2751C45.6831 36.2751 46.894 38.3766 47.1909 38.6049C47.4877 38.8332 47.5563 39.0389 47.6485 39.4279C47.7406 39.8169 48.539 40.1352 48.8819 40.1127C49.2249 40.0902 49.6321 40.2274 49.6321 40.4095C49.6321 40.5167 49.8228 40.5885 50.035 40.6239C50.0436 40.7482 50.0511 40.88 50.0607 41.0172C50.1315 42.0706 50.2043 43.4144 50.2483 44.4303Z" fill="black"/>
<path opacity="0.1" d="M55.5476 42.1296L55.4608 44.1828H55.3676L55.1747 44.0757L55.1983 42.3064C55.3109 42.2402 55.4276 42.1811 55.5476 42.1296Z" fill="black"/>
<path d="M40.9314 32.9852C40.9314 32.9852 38.3734 33.4653 39.5383 36.6631C40.7032 39.8609 44.7465 43.243 44.7465 43.243C44.7465 43.243 48.0589 44.8869 49.4531 44.7047C50.8473 44.5226 52.9703 44.0425 53.2446 44.1111C53.519 44.1796 55.3697 44.1796 55.3697 44.1796L55.4608 42.0364L53.3175 41.9217L52.2212 41.6934C52.2212 41.6934 51.8322 41.3719 51.6039 41.4191C51.3757 41.4662 50.8966 41.1447 50.8966 41.1447C50.8966 41.1447 50.5301 40.8479 50.2537 40.8479C49.9772 40.8479 49.4542 40.7793 49.4542 40.5971C49.4542 40.415 49.0427 40.2756 48.7041 40.3003C48.3654 40.3249 47.5563 40.0034 47.462 39.6101C47.3677 39.2168 47.3023 39.0165 47.0055 38.7882C46.7087 38.5599 45.4977 36.4574 45.4977 36.4574C45.4977 36.4574 44.7893 35.9323 44.8118 35.5218C44.8343 35.1114 44.5836 34.4705 44.2867 34.2187C43.9899 33.9669 41.8895 32.4376 40.9314 32.9852Z" fill="#DCE6F2"/>
<path opacity="0.1" d="M47.5114 40.3411C47.5114 40.3411 46.5287 41.3238 46.7795 41.5059L47.5114 40.3411Z" fill="black"/>
<path opacity="0.1" d="M48.5617 41.118C48.5617 41.118 47.2821 42.1007 47.625 42.1692C47.968 42.2378 48.5617 41.118 48.5617 41.118Z" fill="black"/>
<path opacity="0.1" d="M46.3904 42.5753C46.5736 42.6675 49.2913 44.2899 50.3201 44.2664L46.3904 42.5753Z" fill="black"/>
<path opacity="0.1" d="M46.5748 31.7292C46.5748 31.7292 46.0947 33.3056 45.9114 33.3056C45.7678 33.3056 43.3566 31.3531 42.3503 30.5322L42.3943 30.4958C42.3943 30.4958 42.4854 29.7874 42.8508 29.4241C43.2162 29.0608 46.5748 31.7292 46.5748 31.7292Z" fill="black"/>
<path d="M46.4826 31.546C46.4826 31.546 46.0035 33.1224 45.8203 33.1224C45.6756 33.1224 43.2644 31.1698 42.2582 30.349L42.3021 30.3125C42.3021 30.3125 42.3943 29.6042 42.7597 29.2409C43.1251 28.8776 46.4826 31.546 46.4826 31.546Z" fill="#DCE6F2"/>
<g opacity="0.15">
<path opacity="0.15" d="M40.0132 26.4514C40.3347 27.1855 41.2199 27.5413 41.7332 28.1264C41.4278 27.4074 40.5351 27.0548 40.0132 26.4514Z" fill="black"/>
<path opacity="0.15" d="M43.2892 28.1425C43.1617 28.3879 42.8606 28.5069 42.5862 28.5015C42.3423 28.484 42.1035 28.4231 41.8811 28.3215C41.9618 28.4404 42.0233 28.5714 42.0633 28.7094C42.3135 28.8297 42.5838 28.9023 42.8606 28.9238C43.1381 28.9302 43.436 28.8112 43.5636 28.5648C43.7683 28.1736 43.555 27.8392 43.3053 27.5231C43.3518 27.6203 43.3747 27.7271 43.3719 27.8347C43.3691 27.9424 43.3407 28.0479 43.2892 28.1425Z" fill="black"/>
<path opacity="0.15" d="M47.2659 22.7714C47.2198 22.5656 47.0634 22.4038 46.983 22.2098C46.9338 22.0598 46.8948 21.9065 46.8662 21.7512C46.8053 21.5315 46.6925 21.3297 46.5372 21.1628C46.5588 21.2156 46.577 21.2696 46.5919 21.3247C46.6219 21.4807 46.662 21.6346 46.7119 21.7855C46.7923 21.9794 46.9487 22.1413 46.9948 22.347C47.022 22.4924 46.9928 22.6426 46.9131 22.7672C46.8335 22.8918 46.7095 22.9814 46.5661 23.0179C46.1696 23.1047 45.7174 22.7617 45.3766 22.9825C45.1676 23.1164 45.1194 23.3961 45.0916 23.6426C45.0437 24.0713 44.9951 24.4974 44.9458 24.9211C44.9361 25.0714 44.9044 25.2194 44.8515 25.3605C44.6833 25.7463 44.2214 25.9274 43.8002 25.9209C43.6357 25.9319 43.4733 25.8781 43.348 25.7709C43.2871 25.6846 43.2216 25.6016 43.1519 25.5223C42.6161 25.0722 42.4532 26.1728 42.5946 26.4868C42.6655 26.628 42.7533 26.7601 42.8561 26.8801C42.7382 26.5264 42.9033 25.5083 43.4262 25.9445C43.4959 26.0236 43.561 26.1066 43.6213 26.1931C43.7471 26.3002 43.9097 26.354 44.0746 26.3432C44.4957 26.3496 44.9576 26.1685 45.1259 25.7827C45.1788 25.6413 45.2106 25.4929 45.2202 25.3422C45.2687 24.9136 45.3173 24.4878 45.3659 24.0648C45.3938 23.8184 45.442 23.5387 45.6499 23.4047C45.9917 23.184 46.444 23.5269 46.8405 23.439C46.9827 23.4021 47.1056 23.3128 47.1846 23.1889C47.2635 23.065 47.2926 22.9158 47.2659 22.7714Z" fill="black"/>
</g>
<path opacity="0.1" d="M70.9922 29.617C70.8782 29.6383 70.761 29.6354 70.6482 29.6085C70.2167 29.5213 69.8279 29.2891 69.5466 28.9505C69.3912 28.7619 69.269 28.5047 69.3633 28.2796C69.4383 28.0985 69.6355 27.9849 69.6848 27.7963C69.7071 27.6812 69.7008 27.5623 69.6666 27.4502L69.5509 26.9218C69.5176 26.7718 69.4598 26.595 69.3108 26.5596C69.1618 26.5243 69.0375 26.6464 68.9207 26.7386C68.6346 26.9647 68.0848 27.119 67.7419 26.9326C67.399 26.7461 67.4943 26.1267 67.4386 25.7913C67.4377 25.7623 67.4305 25.7339 67.4176 25.708C67.4046 25.6821 67.3862 25.6593 67.3636 25.6412C67.3134 25.6237 67.2594 25.6197 67.2072 25.6294C67.0218 25.6294 66.8739 25.4633 66.8192 25.2854C66.7821 25.1037 66.7616 24.919 66.7581 24.7335C66.7367 24.5492 66.6703 24.352 66.5106 24.2567C66.3847 24.1974 66.2451 24.1733 66.1066 24.187L65.3114 24.1956C65.1153 24.1956 64.8827 24.1827 64.7756 24.0198C64.6684 23.8569 64.7477 23.6255 64.8602 23.4594C64.9728 23.2932 65.1153 23.1282 65.1249 22.9235C65.1346 22.7188 65.0017 22.542 64.8935 22.3706C64.8314 22.2768 64.7857 22.1732 64.7584 22.0641L64.5302 22.0501C64.4412 22.2323 64.5302 22.4499 64.6373 22.6224C64.7445 22.7949 64.8785 22.9718 64.8688 23.1743C64.8592 23.3768 64.7166 23.5397 64.6041 23.7101C64.4916 23.8805 64.4091 24.1034 64.5205 24.2706C64.632 24.4378 64.8581 24.4496 65.0563 24.4474L65.8515 24.4378C65.9901 24.4244 66.1297 24.4488 66.2555 24.5085C66.4152 24.6039 66.4827 24.8011 66.5031 24.9854C66.5065 25.1709 66.5273 25.3557 66.5652 25.5373C66.6188 25.7141 66.7678 25.8834 66.9532 25.8802C67.0051 25.871 67.0586 25.8751 67.1086 25.892C67.1312 25.9103 67.1497 25.9332 67.1626 25.9593C67.1756 25.9854 67.1827 26.014 67.1836 26.0431C67.2393 26.3775 67.1364 26.9979 67.4868 27.1844C67.8373 27.3709 68.3838 27.2165 68.6657 26.9904C68.7825 26.8983 68.9121 26.7761 69.0568 26.8104C69.2015 26.8447 69.2636 27.0247 69.2958 27.1726L69.4126 27.702C69.4465 27.8142 69.4524 27.9331 69.4298 28.0481C69.3762 28.2357 69.1779 28.3504 69.1029 28.5304C69.0097 28.7554 69.1308 29.0137 69.2862 29.2012C69.5694 29.5413 69.9611 29.7736 70.3953 29.8592C70.5081 29.8861 70.6253 29.8891 70.7393 29.8678C70.9235 29.8117 71.0816 29.6916 71.1851 29.5292C71.1266 29.5697 71.0613 29.5995 70.9922 29.617Z" fill="black"/>
<path opacity="0.1" d="M21.8283 76.9451C23.2588 76.9451 24.4185 76.7671 24.4185 76.5475C24.4185 76.328 23.2588 76.15 21.8283 76.15C20.3978 76.15 19.2382 76.328 19.2382 76.5475C19.2382 76.7671 20.3978 76.9451 21.8283 76.9451Z" fill="#6C63FF"/>
<path opacity="0.1" d="M112.267 66.6081C113.697 66.6081 114.857 66.4301 114.857 66.2105C114.857 65.9909 113.697 65.8129 112.267 65.8129C110.836 65.8129 109.676 65.9909 109.676 66.2105C109.676 66.4301 110.836 66.6081 112.267 66.6081Z" fill="#6C63FF"/>
<path opacity="0.1" d="M85.8602 83.3825C90.0031 83.3825 93.3617 82.8672 93.3617 82.2316C93.3617 81.5959 90.0031 81.0806 85.8602 81.0806C81.7172 81.0806 78.3586 81.5959 78.3586 82.2316C78.3586 82.8672 81.7172 83.3825 85.8602 83.3825Z" fill="#6C63FF"/>
<path opacity="0.1" d="M107.185 78.2536C110.416 78.2536 113.036 77.8515 113.036 77.3556C113.036 76.8596 110.416 76.4575 107.185 76.4575C103.953 76.4575 101.334 76.8596 101.334 77.3556C101.334 77.8515 103.953 78.2536 107.185 78.2536Z" fill="#6C63FF"/>
<path opacity="0.1" d="M106.221 87.8266C111.701 87.8266 116.144 87.1448 116.144 86.3038C116.144 85.4628 111.701 84.781 106.221 84.781C100.741 84.781 96.2991 85.4628 96.2991 86.3038C96.2991 87.1448 100.741 87.8266 106.221 87.8266Z" fill="#6C63FF"/>
<path opacity="0.1" d="M10.7421 88.7943C14.8851 88.7943 18.2436 88.279 18.2436 87.6434C18.2436 87.0077 14.8851 86.4924 10.7421 86.4924C6.59914 86.4924 3.2406 87.0077 3.2406 87.6434C3.2406 88.279 6.59914 88.7943 10.7421 88.7943Z" fill="#6C63FF"/>
<path d="M21.9462 63.885C21.9462 63.885 22.2398 64.2687 21.8111 64.8495C21.3825 65.4303 21.0288 65.9211 21.1682 66.2791C21.1682 66.2791 21.8111 65.2074 22.347 65.1881C22.8828 65.1688 22.5259 64.5323 21.9462 63.885Z" fill="#FF4C01"/>
<path opacity="0.1" d="M21.9463 63.885C21.9725 63.9216 21.9927 63.9621 22.0063 64.005C22.5207 64.6094 22.794 65.1721 22.2999 65.1838C21.8402 65.1967 21.2883 66.0197 21.1565 66.2276C21.1605 66.2436 21.1655 66.2594 21.1715 66.2748C21.1715 66.2748 21.8145 65.2031 22.3503 65.1838C22.8861 65.1646 22.5261 64.5323 21.9463 63.885Z" fill="black"/>
<path d="M22.4928 64.3737C22.4928 64.5087 22.4767 64.6181 22.4585 64.6181C22.4403 64.6181 22.4242 64.5109 22.4242 64.3737C22.4242 64.2365 22.4435 64.303 22.4617 64.303C22.4799 64.303 22.4928 64.2386 22.4928 64.3737Z" fill="#FFD037"/>
<path d="M22.6792 64.5355C22.5613 64.5998 22.4574 64.6427 22.4488 64.6223C22.4402 64.6019 22.5281 64.5409 22.6471 64.4755C22.766 64.4101 22.7189 64.4584 22.7274 64.4755C22.736 64.4927 22.7982 64.4702 22.6792 64.5355Z" fill="#FFD037"/>
<path d="M20.3967 63.885C20.3967 63.885 20.103 64.2687 20.5317 64.8495C20.9603 65.4303 21.3151 65.9211 21.1747 66.2791C21.1747 66.2791 20.5317 65.2074 20.0012 65.1881C19.4708 65.1688 19.8137 64.5323 20.3967 63.885Z" fill="#FF4C01"/>
<path opacity="0.1" d="M20.3967 63.885C20.3711 63.922 20.3508 63.9624 20.3367 64.005C19.8223 64.6094 19.549 65.1721 20.043 65.1838C20.5028 65.1967 21.0547 66.0197 21.1875 66.2276C21.1831 66.2437 21.1778 66.2594 21.1715 66.2748C21.1715 66.2748 20.5285 65.2031 19.998 65.1838C19.4675 65.1646 19.8137 64.5323 20.3967 63.885Z" fill="black"/>
<path d="M19.8512 64.3737C19.8512 64.5087 19.8662 64.6181 19.8844 64.6181C19.9026 64.6181 19.9187 64.5109 19.9187 64.3737C19.9187 64.2365 19.8994 64.303 19.8812 64.303C19.863 64.303 19.8512 64.2386 19.8512 64.3737Z" fill="#FFD037"/>
<path d="M19.6636 64.5355C19.7826 64.5998 19.8855 64.6427 19.8951 64.6223C19.9047 64.6019 19.8147 64.5409 19.6958 64.4755C19.5768 64.4101 19.624 64.4584 19.6154 64.4755C19.6068 64.4927 19.5447 64.4702 19.6636 64.5355Z" fill="#FFD037"/>
<path opacity="0.1" d="M21.1715 69.2132C22.866 69.2132 24.2396 69.0026 24.2396 68.7428C24.2396 68.483 22.866 68.2723 21.1715 68.2723C19.477 68.2723 18.1034 68.483 18.1034 68.7428C18.1034 69.0026 19.477 69.2132 21.1715 69.2132Z" fill="#6C63FF"/>
<path d="M22.751 65.7604L22.736 65.8804L22.7157 66.0497L22.7071 66.1205L22.6867 66.2898L22.6771 66.3605L22.6567 66.5298L22.422 68.4588C22.4017 68.6303 22.1209 68.7642 21.7791 68.7642H20.5638C20.2252 68.7642 19.9444 68.6303 19.9208 68.4588L19.6861 66.5298L19.6658 66.3605L19.6572 66.2898L19.6358 66.1205L19.6272 66.0497L19.6068 65.8804L19.5918 65.7604C19.58 65.6629 19.7322 65.5814 19.924 65.5814H22.4199C22.6106 65.5814 22.7628 65.6629 22.751 65.7604Z" fill="#65617D"/>
<path d="M22.736 65.8804L22.7157 66.0498H19.6272L19.6068 65.8804H22.736Z" fill="#9D9CB5"/>
<path d="M22.7071 66.1205L22.6867 66.2898H19.6572L19.6357 66.1205H22.7071Z" fill="#9D9CB5"/>
<path d="M22.6782 66.3605L22.6567 66.5299H19.6861L19.6658 66.3605H22.6782Z" fill="#9D9CB5"/>
<path d="M110.225 62.4008C110.225 62.4008 109.859 64.1068 111.489 64.3083L111.589 64.1186C111.589 64.1186 110.326 62.9301 110.225 62.4008Z" fill="#6C63FF"/>
<path d="M112.108 64.1047L111.729 64.185L111.691 64.1936C111.691 64.1936 110.679 63.3727 110.692 61.5402C110.827 61.8104 110.989 62.0664 111.176 62.3043C111.576 62.8348 112.032 63.5421 112.108 64.1047Z" fill="#6C63FF"/>
<path d="M112.235 64.2804C112.206 64.2998 112.172 64.3123 112.137 64.3169C112.101 64.3216 112.066 64.3183 112.032 64.3072C111.059 64.08 111.389 60.9091 111.389 60.9091C111.442 60.9337 111.496 61.3377 111.725 61.8585C112.117 62.7726 112.548 64.0511 112.235 64.2804Z" fill="#6C63FF"/>
<path d="M114.394 62.4008C114.394 62.4008 114.457 64.1068 112.827 64.3083L112.725 64.1154C112.725 64.1154 114.293 62.9301 114.394 62.4008Z" fill="#6C63FF"/>
<path d="M113.927 61.5435C113.939 63.376 112.626 64.1968 112.626 64.1968L112.587 64.1883L112.209 64.1079C112.284 63.5453 112.745 62.838 113.14 62.3075C113.367 62.019 113.632 61.762 113.927 61.5435Z" fill="#6C63FF"/>
<path d="M112.582 64.1155C112.524 64.1867 112.451 64.2435 112.367 64.2816C112.342 64.2932 112.315 64.3022 112.287 64.3083C112.048 64.3641 111.965 64.1915 111.978 63.8979C112.001 63.376 112.329 62.4705 112.621 61.7921C112.762 61.4593 112.97 61.1591 113.232 60.9102C113.232 60.9102 113.217 63.3782 112.582 64.1155Z" fill="#6C63FF"/>
<path d="M112.309 59.7967C112.309 59.7967 111.223 63.6546 112.158 64.2311C113.094 64.8077 112.549 60.1375 112.309 59.7967Z" fill="#6C63FF"/>
<path opacity="0.1" d="M110.225 62.4008C110.225 62.4008 109.859 64.1068 111.489 64.3083L111.589 64.1186C111.589 64.1186 110.326 62.9301 110.225 62.4008Z" fill="black"/>
<path opacity="0.1" d="M112.108 64.1047L111.729 64.185L111.691 64.1936C111.691 64.1936 110.679 63.3727 110.692 61.5402C110.827 61.8104 110.989 62.0664 111.176 62.3043C111.576 62.8348 112.032 63.5421 112.108 64.1047Z" fill="black"/>
<path opacity="0.1" d="M112.235 64.2804C112.206 64.2998 112.172 64.3123 112.137 64.3169C112.101 64.3216 112.066 64.3183 112.032 64.3072C111.059 64.08 111.389 60.9091 111.389 60.9091C111.442 60.9337 111.496 61.3377 111.725 61.8585C112.117 62.7726 112.548 64.0511 112.235 64.2804Z" fill="black"/>
<path opacity="0.1" d="M114.394 62.4008C114.394 62.4008 114.457 64.1068 112.827 64.3083L112.725 64.1154C112.725 64.1154 114.293 62.9301 114.394 62.4008Z" fill="black"/>
<path opacity="0.1" d="M113.927 61.5435C113.939 63.376 112.626 64.1968 112.626 64.1968L112.587 64.1883L112.209 64.1079C112.284 63.5453 112.745 62.838 113.14 62.3075C113.367 62.019 113.632 61.762 113.927 61.5435Z" fill="black"/>
<path opacity="0.1" d="M112.582 64.1155C112.524 64.1867 112.451 64.2435 112.367 64.2816C112.342 64.2932 112.315 64.3022 112.287 64.3083C112.048 64.3641 111.965 64.1915 111.978 63.8979C112.001 63.376 112.329 62.4705 112.621 61.7921C112.762 61.4593 112.97 61.1591 113.232 60.9102C113.232 60.9102 113.217 63.3782 112.582 64.1155Z" fill="black"/>
<path opacity="0.1" d="M112.309 59.7967C112.309 59.7967 111.223 63.6546 112.158 64.2311C113.094 64.8077 112.549 60.1375 112.309 59.7967Z" fill="black"/>
<path d="M110.225 62.4008C110.225 62.4008 110.011 64.1068 111.64 64.3083L111.74 64.1186C111.74 64.1186 110.326 62.9301 110.225 62.4008Z" fill="#FF4C01"/>
<path d="M112.259 64.1047L111.88 64.1851L111.842 64.1936C111.842 64.1936 110.679 63.3728 110.689 61.5435C110.689 61.5435 110.987 61.865 111.323 62.3075C111.727 62.8348 112.183 63.5421 112.259 64.1047Z" fill="#FF4C01"/>
<path opacity="0.1" d="M112.259 64.1047L111.88 64.1851C111.521 63.87 111.378 63.047 111.327 62.3043C111.727 62.8348 112.183 63.5421 112.259 64.1047Z" fill="black"/>
<path d="M112.388 64.2805C112.358 64.2999 112.324 64.3124 112.288 64.317C112.253 64.3216 112.217 64.3183 112.183 64.3073C111.21 64.0801 111.388 60.9091 111.388 60.9091C111.441 60.9337 111.651 61.3377 111.875 61.8585C112.269 62.7727 112.699 64.0511 112.388 64.2805Z" fill="#FF4C01"/>
<path d="M114.394 62.4008C114.394 62.4008 114.608 64.1068 112.979 64.3083L112.878 64.1186C112.878 64.1186 114.293 62.9301 114.394 62.4008Z" fill="#FF4C01"/>
<path d="M113.926 61.5435C113.939 63.376 112.777 64.1968 112.777 64.1968L112.739 64.1883L112.36 64.1079C112.435 63.5453 112.896 62.838 113.292 62.3075C113.629 61.865 113.926 61.5435 113.926 61.5435Z" fill="#FF4C01"/>
<path opacity="0.1" d="M113.292 62.3043C113.243 62.9966 113.116 63.7585 112.809 64.1143C112.788 64.14 112.764 64.1637 112.739 64.1851L112.36 64.1047C112.435 63.5421 112.891 62.8348 113.292 62.3043Z" fill="black"/>
<path d="M112.733 64.1155C112.675 64.187 112.602 64.2439 112.518 64.2816C112.493 64.2931 112.466 64.302 112.439 64.3083C112.199 64.3641 112.118 64.1915 112.129 63.8979C112.153 63.376 112.481 62.4705 112.772 61.7921C112.987 61.3045 113.181 60.9348 113.232 60.9102C113.232 60.9091 113.368 63.3782 112.733 64.1155Z" fill="#FF4C01"/>
<path opacity="0.1" d="M112.388 64.2804C112.332 64.281 112.278 64.2637 112.233 64.2311C111.776 63.9461 111.766 62.8766 111.875 61.8585C112.269 62.7726 112.699 64.0511 112.388 64.2804Z" fill="black"/>
<path opacity="0.1" d="M112.733 64.1154C112.68 64.2301 112.61 64.2901 112.518 64.2815C112.472 64.2759 112.427 64.259 112.389 64.2322C112.27 64.1506 112.179 64.0336 112.129 63.8979C112.153 63.376 112.481 62.4705 112.772 61.7921C112.877 62.7319 112.913 63.7285 112.733 64.1154Z" fill="black"/>
<path d="M112.309 59.7967C112.309 59.7967 111.375 63.6546 112.309 64.2311C113.244 64.8077 112.549 60.1375 112.309 59.7967Z" fill="#FF4C01"/>
<path d="M114.103 64.0425H110.212V64.6866H110.806L110.821 64.7627L111.059 66.0133H113.321L113.559 64.7627L113.573 64.6866H114.103V64.0425Z" fill="#4B4770"/>
<path opacity="0.1" d="M114.103 64.0425H110.212V64.6866H110.806L110.821 64.7627L111.059 66.0133H113.321L113.559 64.7627L113.573 64.6866H114.103V64.0425Z" fill="black"/>
<path d="M113.775 64.4208L113.71 64.7627L113.472 66.0133H111.21L110.972 64.7627L110.907 64.4208H113.775Z" fill="#4B4770"/>
<path opacity="0.1" d="M113.775 64.4208L113.71 64.7627H110.972L110.907 64.4208H113.775Z" fill="black"/>
<path d="M114.254 64.0425H110.363V64.6866H114.254V64.0425Z" fill="#4B4770"/>
<path d="M14.9375 75.0633C14.8349 75.2048 14.7527 75.3599 14.6932 75.5241C14.6782 75.5638 14.6632 75.6099 14.6482 75.6538C14.621 75.6411 14.5926 75.6311 14.5635 75.6238C14.4386 75.5922 14.3094 75.5814 14.1809 75.5917C14.1809 75.5413 14.1874 75.4845 14.1884 75.4341C14.2045 74.8694 14.1381 74.0828 13.599 74.4161C13.0825 74.7376 13.4511 75.2734 13.7844 75.6163C13.8134 75.6463 13.8423 75.6742 13.8701 75.701C13.5658 75.9153 13.5079 76.4222 13.4576 76.9483C13.4072 77.4745 12.9603 78.05 12.6635 78.3768C12.6335 78.4101 12.6067 78.4401 12.5799 78.4679C12.4599 78.3722 12.321 78.3029 12.1723 78.2647C12.0236 78.2264 11.8685 78.2201 11.7172 78.2461C11.7054 78.2 11.6915 78.1518 11.6776 78.1014C11.4375 77.2345 10.9392 75.7331 10.3037 75.4041L10.3873 75.297C10.6574 74.9444 10.9617 74.4193 10.5127 74.2853C10.0637 74.1514 10.0229 74.7397 10.0476 75.1812C10.0519 75.2369 10.0562 75.2894 10.0604 75.3387C9.97069 75.3428 9.88272 75.3653 9.80198 75.4047C9.72125 75.4442 9.64946 75.4998 9.59107 75.5681L9.52141 75.4856C9.15705 75.0569 8.48942 74.3743 8.28688 74.8897C8.09827 75.3698 8.6866 75.9935 9.10025 76.3547L9.12597 76.3772C8.84842 77.5035 10.0604 78.4219 10.7131 78.8237L10.7977 78.8752C9.89756 79.9361 9.34137 81.9251 9.34137 81.9251L11.8619 82.3751C11.8619 82.3751 13.5336 80.9327 13.3193 79.5782H13.3365C15.0072 79.2438 15.3865 77.4627 15.1261 76.405L15.1561 76.3932C15.4605 76.2688 15.7272 76.0671 15.9298 75.8081C16.3971 75.1598 15.4197 74.4268 14.9375 75.0633Z" fill="#6C63FF"/>
<path opacity="0.1" d="M14.9375 75.0633C14.8349 75.2048 14.7527 75.3599 14.6932 75.5241C14.6782 75.5638 14.6632 75.6099 14.6482 75.6538C14.621 75.6411 14.5926 75.6311 14.5635 75.6238C14.4386 75.5922 14.3094 75.5814 14.1809 75.5917C14.1809 75.5413 14.1874 75.4845 14.1884 75.4341C14.2045 74.8694 14.1381 74.0828 13.599 74.4161C13.0825 74.7376 13.4511 75.2734 13.7844 75.6163C13.8134 75.6463 13.8423 75.6742 13.8701 75.701C13.5658 75.9153 13.5079 76.4222 13.4576 76.9483C13.4072 77.4745 12.9603 78.05 12.6635 78.3768C12.6335 78.4101 12.6067 78.4401 12.5799 78.4679C12.4599 78.3722 12.321 78.3029 12.1723 78.2647C12.0236 78.2264 11.8685 78.2201 11.7172 78.2461C11.7054 78.2 11.6915 78.1518 11.6776 78.1014C11.4375 77.2345 10.9392 75.7331 10.3037 75.4041L10.3873 75.297C10.6574 74.9444 10.9617 74.4193 10.5127 74.2853C10.0637 74.1514 10.0229 74.7397 10.0476 75.1812C10.0519 75.2369 10.0562 75.2894 10.0604 75.3387C9.97069 75.3428 9.88272 75.3653 9.80198 75.4047C9.72125 75.4442 9.64946 75.4998 9.59107 75.5681L9.52141 75.4856C9.15705 75.0569 8.48942 74.3743 8.28688 74.8897C8.09827 75.3698 8.6866 75.9935 9.10025 76.3547L9.12597 76.3772C8.84842 77.5035 10.0604 78.4219 10.7131 78.8237L10.7977 78.8752C9.89756 79.9361 9.34137 81.9251 9.34137 81.9251L11.8619 82.3751C11.8619 82.3751 13.5336 80.9327 13.3193 79.5782H13.3365C15.0072 79.2438 15.3865 77.4627 15.1261 76.405L15.1561 76.3932C15.4605 76.2688 15.7272 76.0671 15.9298 75.8081C16.3971 75.1598 15.4197 74.4268 14.9375 75.0633Z" fill="black"/>
<path d="M9.92016 75.7964L9.62546 76.6537C9.62546 76.6537 9.4615 76.538 9.25467 76.3558C8.84102 75.9946 8.25269 75.3709 8.44129 74.8908C8.64384 74.3753 9.31147 75.0558 9.67583 75.4867C9.82264 75.6581 9.92016 75.7964 9.92016 75.7964Z" fill="#6C63FF"/>
<path d="M10.5418 75.298C10.4522 75.416 10.3564 75.5291 10.2546 75.6367C10.2294 75.4862 10.2119 75.3346 10.202 75.1823C10.1774 74.7408 10.2245 74.1546 10.6671 74.2864C11.1097 74.4182 10.8118 74.9455 10.5418 75.298Z" fill="#6C63FF"/>
<path d="M14.3482 75.4342C14.3397 75.7182 14.3118 75.9454 14.3118 75.9454C14.1822 75.8439 14.0594 75.734 13.9442 75.6164C13.611 75.2702 13.2423 74.7365 13.7588 74.4161C14.2925 74.0817 14.359 74.8694 14.3482 75.4342Z" fill="#6C63FF"/>
<path d="M16.0844 75.806C15.8817 76.065 15.615 76.2666 15.3107 76.3911C15.2262 76.4277 15.1396 76.4592 15.0513 76.4854L14.7041 75.9978C14.7406 75.8367 14.7885 75.6784 14.8477 75.5241C14.9072 75.3599 14.9895 75.2047 15.092 75.0633C15.5721 74.4267 16.5516 75.1598 16.0844 75.806Z" fill="#6C63FF"/>
<path opacity="0.1" d="M9.67579 75.4866C9.82261 75.6581 9.92013 75.791 9.92013 75.791L9.62543 76.6483C9.62543 76.6483 9.46147 76.5326 9.25464 76.3504C9.30059 76.0741 9.41478 75.8137 9.58685 75.5927C9.61578 75.5574 9.64686 75.5209 9.67579 75.4866Z" fill="black"/>
<path opacity="0.1" d="M10.5419 75.298C10.4523 75.4161 10.3565 75.5291 10.2547 75.6367C10.2295 75.4862 10.212 75.3346 10.2021 75.1823C10.3246 75.1849 10.4433 75.2253 10.5419 75.298Z" fill="black"/>
<path d="M11.9906 78.723L11.2576 79.0445C11.2576 79.0445 11.0979 78.9673 10.8675 78.8237C10.097 78.3501 8.54846 77.1573 9.58152 75.7513C10.6146 74.3453 11.4858 76.8669 11.832 78.1004C11.9359 78.4754 11.9906 78.723 11.9906 78.723Z" fill="#FF4C01"/>
<path opacity="0.1" d="M13.9388 75.6163C14.0455 75.5065 14.1899 75.4413 14.3429 75.4341C14.3343 75.7181 14.3064 75.9453 14.3064 75.9453C14.1768 75.8439 14.054 75.7339 13.9388 75.6163Z" fill="black"/>
<path opacity="0.1" d="M15.3127 76.3911C15.2282 76.4277 15.1416 76.4592 15.0534 76.4854L14.7062 75.9978C14.7426 75.8367 14.7906 75.6784 14.8498 75.5242C15.0716 75.6549 15.2366 75.9807 15.3127 76.3911Z" fill="black"/>
<path d="M13.4911 79.576C13.4514 79.5846 13.4096 79.5921 13.3678 79.5985C10.9106 79.9715 12.5577 78.6458 12.5577 78.6458C12.5577 78.6458 12.6648 78.5387 12.8181 78.3768C13.1149 78.05 13.5607 77.4777 13.6122 76.9483C13.6893 76.1521 13.7783 75.4052 14.7181 75.6238C15.6408 75.8403 15.8176 79.1099 13.4911 79.576Z" fill="#FF4C01"/>
<path d="M13.445 85.694H8.75012V86.9286H13.445V85.694Z" fill="#D4DFEC"/>
<path d="M14.1382 81.6818H8.00415V85.9898H14.1382V81.6818Z" fill="#D4DFEC"/>
<path opacity="0.1" d="M13.445 85.694H8.75012V86.9286H13.445V85.694Z" fill="black"/>
<path opacity="0.1" d="M14.1382 81.6818H8.00415V85.9898H14.1382V81.6818Z" fill="black"/>
<path d="M13.7535 85.694H9.05859V86.9286H13.7535V85.694Z" fill="#D4DFEC"/>
<path opacity="0.1" d="M11.8322 78.1014C11.9393 78.4701 11.9908 78.723 11.9908 78.723L11.2578 79.0445C11.2578 79.0445 11.0981 78.9673 10.8677 78.8237C11.1549 78.4604 11.4785 78.1861 11.8322 78.1014Z" fill="black"/>
<path opacity="0.1" d="M13.4911 79.576C13.4514 79.5846 13.4096 79.5921 13.3678 79.5985C10.9106 79.9714 12.5577 78.6458 12.5577 78.6458C12.5577 78.6458 12.6648 78.5387 12.8181 78.3768C13.2767 78.7444 13.4664 79.1581 13.4911 79.576Z" fill="black"/>
<path d="M9.49573 81.9261C9.49573 81.9261 10.8717 76.9966 12.8018 78.5172C14.7318 80.0379 12.0162 82.3752 12.0162 82.3752L9.49573 81.9261Z" fill="#FF4C01"/>
<path opacity="0.1" d="M10.1903 76.6783C10.2756 76.6783 10.3446 76.6092 10.3446 76.524C10.3446 76.4388 10.2756 76.3697 10.1903 76.3697C10.1051 76.3697 10.036 76.4388 10.036 76.524C10.036 76.6092 10.1051 76.6783 10.1903 76.6783Z" fill="black"/>
<path opacity="0.1" d="M10.1774 77.3985C10.2626 77.3985 10.3317 77.3294 10.3317 77.2442C10.3317 77.1589 10.2626 77.0898 10.1774 77.0898C10.0922 77.0898 10.0231 77.1589 10.0231 77.2442C10.0231 77.3294 10.0922 77.3985 10.1774 77.3985Z" fill="black"/>
<path opacity="0.1" d="M14.6536 76.8197C14.7388 76.8197 14.8079 76.7507 14.8079 76.6654C14.8079 76.5802 14.7388 76.5111 14.6536 76.5111C14.5684 76.5111 14.4993 76.5802 14.4993 76.6654C14.4993 76.7507 14.5684 76.8197 14.6536 76.8197Z" fill="black"/>
<path opacity="0.1" d="M11.053 80.5116C11.1382 80.5116 11.2073 80.4425 11.2073 80.3573C11.2073 80.272 11.1382 80.2029 11.053 80.2029C10.9678 80.2029 10.8987 80.272 10.8987 80.3573C10.8987 80.4425 10.9678 80.5116 11.053 80.5116Z" fill="black"/>
<path opacity="0.1" d="M14.3322 78.0157C14.4174 78.0157 14.4865 77.9466 14.4865 77.8614C14.4865 77.7762 14.4174 77.7071 14.3322 77.7071C14.2469 77.7071 14.1779 77.7762 14.1779 77.8614C14.1779 77.9466 14.2469 78.0157 14.3322 78.0157Z" fill="black"/>
<path opacity="0.1" d="M12.7377 79.6114C12.8229 79.6114 12.892 79.5423 12.892 79.4571C12.892 79.3718 12.8229 79.3027 12.7377 79.3027C12.6525 79.3027 12.5834 79.3718 12.5834 79.4571C12.5834 79.5423 12.6525 79.6114 12.7377 79.6114Z" fill="black"/>
<path opacity="0.1" d="M10.7174 76.9869C10.8027 76.9869 10.8717 76.9178 10.8717 76.8326C10.8717 76.7474 10.8027 76.6783 10.7174 76.6783C10.6322 76.6783 10.5631 76.7474 10.5631 76.8326C10.5631 76.9178 10.6322 76.9869 10.7174 76.9869Z" fill="black"/>
<path opacity="0.1" d="M14.2293 77.2827C14.3145 77.2827 14.3836 77.2136 14.3836 77.1284C14.3836 77.0431 14.3145 76.9741 14.2293 76.9741C14.144 76.9741 14.075 77.0431 14.075 77.1284C14.075 77.2136 14.144 77.2827 14.2293 77.2827Z" fill="black"/>
<path opacity="0.1" d="M13.7022 78.4787C13.7874 78.4787 13.8565 78.4096 13.8565 78.3244C13.8565 78.2391 13.7874 78.17 13.7022 78.17C13.6169 78.17 13.5479 78.2391 13.5479 78.3244C13.5479 78.4096 13.6169 78.4787 13.7022 78.4787Z" fill="black"/>
<path opacity="0.1" d="M12.0817 80.3959C12.1669 80.3959 12.236 80.3268 12.236 80.2415C12.236 80.1563 12.1669 80.0872 12.0817 80.0872C11.9965 80.0872 11.9274 80.1563 11.9274 80.2415C11.9274 80.3268 11.9965 80.3959 12.0817 80.3959Z" fill="black"/>
<path opacity="0.1" d="M11.7475 79.6371C11.8327 79.6371 11.9018 79.568 11.9018 79.4828C11.9018 79.3976 11.8327 79.3285 11.7475 79.3285C11.6622 79.3285 11.5931 79.3976 11.5931 79.4828C11.5931 79.568 11.6622 79.6371 11.7475 79.6371Z" fill="black"/>
<path opacity="0.1" d="M10.949 77.9257C11.0342 77.9257 11.1033 77.8566 11.1033 77.7714C11.1033 77.6861 11.0342 77.6171 10.949 77.6171C10.8638 77.6171 10.7947 77.6861 10.7947 77.7714C10.7947 77.8566 10.8638 77.9257 10.949 77.9257Z" fill="black"/>
<path opacity="0.1" d="M13.7535 85.694H9.05859V86.1452H13.7535V85.694Z" fill="black"/>
<path d="M14.4468 81.6818H8.31274V85.9898H14.4468V81.6818Z" fill="#D4DFEC"/>
<path opacity="0.1" d="M12.2875 81.0902C12.3727 81.0902 12.4418 81.0212 12.4418 80.9359C12.4418 80.8507 12.3727 80.7816 12.2875 80.7816C12.2023 80.7816 12.1332 80.8507 12.1332 80.9359C12.1332 81.0212 12.2023 81.0902 12.2875 81.0902Z" fill="black"/>
<path opacity="0.1" d="M11.3615 81.2832C11.4467 81.2832 11.5158 81.2141 11.5158 81.1289C11.5158 81.0436 11.4467 80.9745 11.3615 80.9745C11.2762 80.9745 11.2072 81.0436 11.2072 81.1289C11.2072 81.2141 11.2762 81.2832 11.3615 81.2832Z" fill="black"/>
<path opacity="0.1" d="M5.35824 6.69345C5.97732 6.69345 6.47919 6.19159 6.47919 5.57251C6.47919 4.95343 5.97732 4.45157 5.35824 4.45157C4.73917 4.45157 4.2373 4.95343 4.2373 5.57251C4.2373 6.19159 4.73917 6.69345 5.35824 6.69345Z" fill="#6C63FF"/>
<path opacity="0.1" d="M113.012 42.3397C113.841 42.3397 114.513 41.6679 114.513 40.8394C114.513 40.0108 113.841 39.3391 113.012 39.3391C112.184 39.3391 111.512 40.0108 111.512 40.8394C111.512 41.6679 112.184 42.3397 113.012 42.3397Z" fill="#6C63FF"/>
<path opacity="0.1" d="M115.905 38.7196C116.51 38.7196 117 38.2293 117 37.6244C117 37.0195 116.51 36.5292 115.905 36.5292C115.3 36.5292 114.81 37.0195 114.81 37.6244C114.81 38.2293 115.3 38.7196 115.905 38.7196Z" fill="#6C63FF"/>
<path opacity="0.1" d="M7.28717 3.0006C8.11576 3.0006 8.78747 2.3289 8.78747 1.5003C8.78747 0.671708 8.11576 0 7.28717 0C6.45857 0 5.78687 0.671708 5.78687 1.5003C5.78687 2.3289 6.45857 3.0006 7.28717 3.0006Z" fill="#6C63FF"/>
<path opacity="0.1" d="M1.5003 9.85912C2.3289 9.85912 3.0006 9.18742 3.0006 8.35882C3.0006 7.53023 2.3289 6.85852 1.5003 6.85852C0.671708 6.85852 0 7.53023 0 8.35882C0 9.18742 0.671708 9.85912 1.5003 9.85912Z" fill="#6C63FF"/>
</g>
<defs>
<linearGradient id="paint0_linear" x1="56.4895" y1="83.1435" x2="56.4895" y2="20.3987" gradientUnits="userSpaceOnUse">
<stop stop-color="#808080" stop-opacity="0.25"/>
<stop offset="0.54" stop-color="#808080" stop-opacity="0.12"/>
<stop offset="1" stop-color="#808080" stop-opacity="0.1"/>
</linearGradient>
<clipPath id="clip0">
<rect width="117" height="88.7943" fill="white"/>
</clipPath>
</defs>
</svg>
