<svg width="117" height="72" viewBox="0 0 117 72" fill="none" xmlns="http://www.w3.org/2000/svg">
<g clip-path="url(#clip0)">
<path d="M14.1386 71.3228L13.9379 71.2776C16.1766 61.3217 21.8027 52.2809 29.7798 45.8204C35.8108 40.9437 42.9837 37.6822 50.6231 36.3429C58.2625 35.0035 66.1172 35.6305 73.4474 38.1648C80.7776 40.699 87.3423 45.0572 92.5233 50.8289C97.7042 56.6005 101.331 63.5959 103.062 71.1561L102.862 71.2018C98.1226 50.394 79.8862 35.8615 58.5138 35.8615C37.4216 35.8615 18.7591 50.7751 14.1386 71.3228Z" fill="#3F3D56"/>
<path d="M42.924 12.7309C46.0108 12.7309 48.5132 10.2285 48.5132 7.14174C48.5132 4.05493 46.0108 1.55258 42.924 1.55258C39.8372 1.55258 37.3348 4.05493 37.3348 7.14174C37.3348 10.2285 39.8372 12.7309 42.924 12.7309Z" fill="#FF6584"/>
<path d="M18.8446 70.0531C19.0189 70.6975 19.616 71.0966 19.616 71.0966C19.616 71.0966 19.9304 70.4509 19.7561 69.8066C19.5818 69.1622 18.9848 68.7631 18.9848 68.7631C18.9848 68.7631 18.6703 69.4088 18.8446 70.0531Z" fill="#3F3D56"/>
<path d="M19.1008 69.9147C19.5791 70.3803 19.6375 71.0961 19.6375 71.0961C19.6375 71.0961 18.9204 71.0569 18.4421 70.5913C17.9638 70.1257 17.9054 69.4099 17.9054 69.4099C17.9054 69.4099 18.6225 69.4491 19.1008 69.9147Z" fill="#6C63FF"/>
<path d="M32.119 70.0531C32.2934 70.6975 32.8904 71.0966 32.8904 71.0966C32.8904 71.0966 33.2049 70.4509 33.0306 69.8066C32.8562 69.1622 32.2592 68.7631 32.2592 68.7631C32.2592 68.7631 31.9447 69.4088 32.119 70.0531Z" fill="#3F3D56"/>
<path d="M32.3751 69.9147C32.8534 70.3803 32.9118 71.0961 32.9118 71.0961C32.9118 71.0961 32.1948 71.0569 31.7164 70.5913C31.2381 70.1257 31.1797 69.4099 31.1797 69.4099C31.1797 69.4099 31.8968 69.4491 32.3751 69.9147Z" fill="#6C63FF"/>
<path d="M34.7512 18.7269L32.6495 17.0455L44.4189 6.53723H74.2625V15.7846L54.9272 28.8149L34.7512 18.7269Z" fill="#3F3D56"/>
<path d="M79.7037 12.4318V6.74715H75.7413V8.13932L74.2625 6.53723L64.5948 17.0455L60.8118 19.5676L54.9462 62.4226L63.7923 71.2686H84.3505V17.4659L79.7037 12.4318Z" fill="#CCCCCC"/>
<path d="M64.5948 17.0456H32.6495V71.2686H64.5948V17.0456Z" fill="#F2F2F2"/>
<path d="M50.934 58.0281H45.0493V71.2686H50.934V58.0281Z" fill="#CCCCCC"/>
<path d="M38.7443 61.8111V59.7094H36.2224V61.8111H38.5342H38.7443Z" fill="#3F3D56"/>
<path d="M38.5342 63.4924H36.2224V65.5941H38.7443V63.4924H38.5342Z" fill="#3F3D56"/>
<path d="M42.9477 59.7095H40.4257V61.8111H42.9477V59.7095Z" fill="#3F3D56"/>
<path d="M42.9477 63.4924H40.4257V65.5941H42.9477V63.4924Z" fill="#3F3D56"/>
<path d="M55.978 61.8111V59.7094H53.4561V61.8111H55.7679H55.978Z" fill="#3F3D56"/>
<path d="M55.7679 63.4924H53.4561V65.5941H55.978V63.4924H55.7679Z" fill="#3F3D56"/>
<path d="M60.1813 59.7095H57.6593V61.8111H60.1813V59.7095Z" fill="#3F3D56"/>
<path d="M60.1813 63.4924H57.6593V65.5941H60.1813V63.4924Z" fill="#3F3D56"/>
<path d="M73.632 19.7777V17.6761H71.11V19.7777H73.4219H73.632Z" fill="#3F3D56"/>
<path d="M73.4219 21.4591H71.11V23.5607H73.632V21.4591H73.4219Z" fill="#3F3D56"/>
<path d="M77.8354 17.6761H75.3134V19.7777H77.8354V17.6761Z" fill="#3F3D56"/>
<path d="M77.8354 21.4591H75.3134V23.5608H77.8354V21.4591Z" fill="#3F3D56"/>
<path d="M73.632 31.5471V29.4455H71.11V31.5471H73.4219H73.632Z" fill="#3F3D56"/>
<path d="M73.4219 33.2284H71.11V35.3301H73.632V33.2284H73.4219Z" fill="#3F3D56"/>
<path d="M77.8354 29.4454H75.3134V31.5471H77.8354V29.4454Z" fill="#3F3D56"/>
<path d="M77.8354 33.2285H75.3134V35.3301H77.8354V33.2285Z" fill="#3F3D56"/>
<path d="M73.632 43.3165V41.2148H71.11V43.3165H73.4219H73.632Z" fill="#3F3D56"/>
<path d="M73.4219 44.9977H71.11V47.0994H73.632V44.9977H73.4219Z" fill="#3F3D56"/>
<path d="M77.8354 41.2148H75.3134V43.3164H77.8354V41.2148Z" fill="#3F3D56"/>
<path d="M77.8354 44.9978H75.3134V47.0995H77.8354V44.9978Z" fill="#3F3D56"/>
<path d="M73.632 55.0858V52.9841H71.11V55.0858H73.4219H73.632Z" fill="#3F3D56"/>
<path d="M73.4219 56.7671H71.11V58.8688H73.632V56.7671H73.4219Z" fill="#3F3D56"/>
<path d="M77.8354 52.9841H75.3134V55.0858H77.8354V52.9841Z" fill="#3F3D56"/>
<path d="M77.8354 56.7671H75.3134V58.8688H77.8354V56.7671Z" fill="#3F3D56"/>
<path d="M60.6016 19.7778H36.2223V24.8218H60.6016V19.7778Z" fill="#3F3D56"/>
<path d="M60.6016 29.8658H36.2223V34.9098H60.6016V29.8658Z" fill="#3F3D56"/>
<path d="M60.6016 39.9538H36.2223V44.9978H60.6016V39.9538Z" fill="#3F3D56"/>
<path d="M60.6016 50.0418H36.2223V55.0858H60.6016V50.0418Z" fill="#3F3D56"/>
<path d="M117 71.0571H0V71.2629H117V71.0571Z" fill="#3F3D56"/>
<path d="M20.1977 47.2955H19.5931V71.1743H20.1977V47.2955Z" fill="#3F3D56"/>
<path d="M25.7768 50.3385C25.8153 58.6884 19.9407 65.4845 19.9407 65.4845C19.9407 65.4845 14.0038 58.7428 13.9653 50.393C13.9268 42.0431 19.8013 35.247 19.8013 35.247C19.8013 35.247 25.7383 41.9887 25.7768 50.3385Z" fill="#FF4C01" fill-opacity="0.53"/>
<path d="M12.3388 47.2955H11.7343V71.1743H12.3388V47.2955Z" fill="#3F3D56"/>
<path d="M17.9179 50.3385C17.9564 58.6884 12.0818 65.4845 12.0818 65.4845C12.0818 65.4845 6.14487 58.7428 6.10639 50.393C6.06791 42.0431 11.9425 35.247 11.9425 35.247C11.9425 35.247 17.8794 41.9887 17.9179 50.3385Z" fill="#FF4C01"/>
<path d="M97.2998 17.0118C92.5378 17.0338 88.6617 17.1041 88.6617 17.1041C88.6617 17.1041 93.2691 11.0013 97.2825 13.2623C101.296 15.5234 105.906 17.0246 105.906 17.0246C105.906 17.0246 102.062 16.9899 97.2998 17.0118Z" fill="#F2F2F2"/>
<path d="M17.962 28.7427C13.2 28.7646 9.32397 28.835 9.32397 28.835C9.32397 28.835 13.9313 22.7321 17.9447 24.9932C21.9582 27.2542 26.5686 28.7555 26.5686 28.7555C26.5686 28.7555 22.724 28.7207 17.962 28.7427Z" fill="#F2F2F2"/>
<path d="M35.2496 4.25193C30.4876 4.27388 26.6116 4.34423 26.6116 4.34423C26.6116 4.34423 31.2189 -1.75863 35.2323 0.502438C39.2458 2.7635 43.8562 4.26475 43.8562 4.26475C43.8562 4.26475 40.0116 4.22998 35.2496 4.25193Z" fill="#F2F2F2"/>
<path d="M96.3045 48H95.7V71.8788H96.3045V59.9394V48Z" fill="#3F3D56"/>
<path d="M101.812 50.0915C101.85 58.4413 95.9756 65.2374 95.9756 65.2374C95.9756 65.2374 90.0387 58.4958 90.0002 50.1459C89.9617 41.7961 95.8363 35 95.8363 35C95.8363 35 101.773 41.7417 101.812 50.0915Z" fill="#FF4C01"/>
</g>
<defs>
<clipPath id="clip0">
<rect width="117" height="71.3229" fill="white"/>
</clipPath>
</defs>
</svg>
