<svg width="362" height="223" viewBox="0 0 362 223" fill="none" xmlns="http://www.w3.org/2000/svg">
<g clip-path="url(#clip0)">
<path opacity="0.1" d="M361.999 143.228C362.005 149.27 361.276 155.29 359.826 161.155C359.338 163.131 358.772 165.066 358.127 166.96C357.337 169.298 356.422 171.591 355.385 173.83C354.862 174.963 354.31 176.073 353.728 177.161C353.738 183.356 352.464 189.487 349.988 195.165C345.512 205.351 337.529 213.588 327.496 218.374C321.223 221.371 314.368 222.948 307.417 222.991H68.7189C58.0987 223.013 47.662 220.219 38.4697 214.892L38.3284 214.812C37.0191 214.045 35.7426 213.232 34.4988 212.374C31.7005 210.438 29.0714 208.267 26.6399 205.886C23.349 202.665 20.4491 199.066 18.0004 195.165C12.2493 186.019 9.20266 175.429 9.21334 164.62C3.38911 154.386 -0.00708008 142.126 -0.00708008 128.951C-0.00708008 112.33 5.38994 97.1667 14.2569 85.6884C16.1055 83.2904 18.1304 81.034 20.3147 78.9381C22.47 76.8642 24.7865 74.9651 27.2423 73.259C29.2072 71.8925 31.2607 70.6586 33.3893 69.5653C34.2775 69.1128 35.1688 68.6849 36.0755 68.2879C36.8715 67.9339 37.6768 67.6045 38.4913 67.2936C39.4686 66.9222 40.4583 66.5805 41.4602 66.2686C42.4622 65.9567 43.4508 65.6838 44.4261 65.4499C45.8604 65.099 47.3193 64.8137 48.8028 64.5941C50.0322 64.4125 51.2616 64.2863 52.4909 64.1909C53.4683 64.117 54.4549 64.077 55.4476 64.0647H55.9855C57.0796 64.0647 58.1677 64.1078 59.2464 64.1817C59.3602 63.9539 59.4831 63.723 59.5968 63.4983C60.0271 62.6765 60.4728 61.8577 60.9215 61.0574C60.9205 61.0502 60.9205 61.043 60.9215 61.0358C60.9983 60.8942 61.0752 60.7557 61.1551 60.6203C61.5177 59.9647 61.8958 59.3152 62.283 58.6718C62.4613 58.364 62.6365 58.0747 62.8178 57.7854C62.8562 57.7134 62.8982 57.6436 62.9438 57.576C63.1282 57.2682 63.3157 56.9604 63.5063 56.6526C64.455 55.1341 65.4415 53.6422 66.466 52.177L66.7273 51.8015C66.8871 51.5737 67.0346 51.3521 67.2129 51.1243C67.637 50.5302 68.0735 49.9331 68.513 49.3482C68.8203 48.9296 69.1277 48.5141 69.4596 48.117C70.2587 47.091 71.0783 46.0649 71.9184 45.0389C72.7585 44.0129 73.6313 43.0002 74.537 42.0008C74.6599 41.8623 74.7829 41.7268 74.9119 41.5914L76.2243 40.157C76.2889 40.0893 76.3442 40.0277 76.4056 39.9662C76.5624 39.7969 76.713 39.6276 76.882 39.4644C77.5859 38.7164 78.3081 37.9839 79.0335 37.2543C82.7249 33.5721 86.6574 30.1406 90.8049 26.9827C90.9678 26.8534 91.1337 26.7303 91.2966 26.6072C92.0773 26.0192 92.8702 25.4375 93.6632 24.8649C98.0248 21.7313 102.584 18.8832 107.313 16.3386C107.638 16.1508 107.97 15.9754 108.305 15.803C112.544 13.5569 116.904 11.5469 121.364 9.7822C123.796 8.81875 126.282 7.91378 128.784 7.08577C130.45 6.53787 132.122 6.01767 133.815 5.52825C136.462 4.76487 139.128 4.08051 141.812 3.47515C149.72 1.69811 157.765 0.600364 165.859 0.193878C168.318 0.0687012 170.804 0.00406174 173.318 -4.24124e-05C185.449 -0.0161268 197.533 1.51472 209.278 4.55556C209.4 4.73935 209.566 4.88918 209.761 4.99096C209.956 5.09273 210.174 5.1431 210.394 5.13733H211.426C211.875 5.26045 212.321 5.38357 212.77 5.51286C215.275 6.23519 217.746 7.02421 220.18 7.87992L220.794 8.10155C226.802 10.2411 232.648 12.8129 238.286 15.7968C243.367 18.4802 248.261 21.5079 252.931 24.8588C253.65 25.3759 254.359 25.8971 255.058 26.4225C255.906 25.8787 256.768 25.3574 257.645 24.8588C261.032 22.9271 264.629 21.3913 268.366 20.2816C276.178 17.9663 284.444 17.6426 292.413 19.3397C302.632 21.5098 311.883 26.8965 319.355 34.5579C322.397 37.6926 325.105 41.1361 327.435 44.8327C327.604 45.0974 327.773 45.3652 327.936 45.636C329.938 48.9077 331.659 52.344 333.081 55.9077C333.133 56.0401 333.185 56.1632 333.231 56.2925C334.543 59.6295 335.602 63.0611 336.397 66.558C336.434 66.7365 336.477 66.912 336.514 67.0905C337.258 70.4746 337.763 73.907 338.026 77.3621C338.026 77.4853 338.026 77.6115 338.051 77.7408C338.18 79.5281 338.245 81.3339 338.247 83.1582C338.247 84.7896 338.192 86.4087 338.091 88.0155C338.091 88.1909 338.066 88.3726 338.051 88.5542C338.023 89.019 337.983 89.4776 337.943 89.9455C340.29 91.8418 342.487 93.9175 344.514 96.154C345.41 97.1329 346.276 98.1486 347.114 99.2014C349.667 102.405 351.91 105.845 353.814 109.473C359.012 119.298 361.999 130.857 361.999 143.228Z" fill="#6C63FF"/>
<path opacity="0.1" d="M327.27 217.235C327.27 219.337 320.038 221.307 307.418 223H68.7199C58.0997 223.023 47.6629 220.228 38.4707 214.901L38.3293 214.821C41.956 213.498 48.5025 212.264 57.4126 211.149L57.8121 211.1C61.8076 210.611 66.2734 210.146 71.1541 209.706C71.277 209.706 71.403 209.687 71.5259 209.672C75.3985 209.327 79.518 209.004 83.8844 208.702C84.0227 208.702 84.1579 208.678 84.2962 208.671C85.9805 208.55 87.6996 208.435 89.4535 208.327L90.1297 208.284C102.9 207.489 117.416 206.855 133.158 206.437H133.177C135.381 206.375 137.61 206.321 139.862 206.274C142.365 206.214 144.9 206.162 147.465 206.117C149.423 206.073 151.406 206.043 153.394 206.012H153.44C162.412 205.876 171.681 205.809 181.16 205.809C204.598 205.809 226.752 206.237 246.382 207.006H246.437C249.456 207.123 252.418 207.252 255.307 207.385L257.766 207.502C261.026 207.658 264.202 207.825 267.294 208.003C303.653 210.075 327.27 213.439 327.27 217.235Z" fill="#6C63FF"/>
<g opacity="0.2">
<path opacity="0.2" d="M209.082 204.396C209.073 204.728 209.035 205.058 208.969 205.384C206.83 205.043 204.678 204.735 202.514 204.46C202.514 204.374 202.514 204.285 202.514 204.196C202.534 203.273 202.8 202.372 203.283 201.586C203.916 200.582 204.878 199.954 205.938 199.988C206.999 200.022 207.918 200.708 208.486 201.746C208.916 202.56 209.122 203.475 209.082 204.396Z" fill="#3F3D56"/>
<path opacity="0.2" d="M209.259 199.136C209.334 196.755 207.923 194.779 206.108 194.722C204.293 194.664 202.76 196.547 202.685 198.928C202.61 201.308 204.021 203.285 205.836 203.342C207.651 203.4 209.184 201.516 209.259 199.136Z" fill="#3F3D56"/>
<path opacity="0.2" d="M209.427 193.866C209.502 191.486 208.091 189.509 206.276 189.452C204.46 189.394 202.928 191.278 202.853 193.658C202.778 196.039 204.188 198.015 206.004 198.072C207.819 198.13 209.352 196.247 209.427 193.866Z" fill="#3F3D56"/>
<path opacity="0.2" d="M209.591 188.596C209.666 186.216 208.256 184.239 206.44 184.182C204.625 184.124 203.092 186.008 203.017 188.388C202.942 190.769 204.353 192.745 206.168 192.802C207.984 192.86 209.516 190.977 209.591 188.596Z" fill="#3F3D56"/>
<path opacity="0.2" d="M209.756 183.326C209.831 180.946 208.42 178.969 206.605 178.912C204.79 178.855 203.257 180.738 203.182 183.118C203.107 185.499 204.518 187.475 206.333 187.533C208.148 187.59 209.681 185.707 209.756 183.326Z" fill="#3F3D56"/>
<path opacity="0.2" d="M195.283 146.761C194.85 146.174 194.459 145.557 194.115 144.914L202.8 143.766L193.451 143.542C192.616 141.56 192.195 139.428 192.211 137.277C192.227 135.126 192.682 133.001 193.546 131.032L205.877 137.943L194.582 129.065C195.721 127.22 197.228 125.629 199.009 124.393C200.79 123.157 202.806 122.302 204.932 121.881C207.057 121.46 209.247 121.483 211.363 121.948C213.48 122.413 215.478 123.31 217.232 124.582C218.987 125.855 220.461 127.477 221.562 129.346C222.663 131.215 223.367 133.291 223.631 135.445C223.895 137.599 223.712 139.784 223.095 141.864C222.477 143.944 221.438 145.874 220.043 147.534C220.716 148.447 221.288 149.43 221.748 150.467L210.349 155.946L222.437 152.305C223.198 154.821 223.321 157.487 222.794 160.062C222.267 162.637 221.107 165.039 219.419 167.052C221.174 169.437 222.223 172.268 222.447 175.222C222.671 178.176 222.06 181.134 220.685 183.756C219.31 186.379 217.225 188.561 214.67 190.053C212.114 191.546 209.191 192.287 206.235 192.194C203.278 192.101 200.408 191.176 197.951 189.525C195.495 187.875 193.552 185.566 192.344 182.861C191.136 180.157 190.713 177.167 191.122 174.233C191.532 171.299 192.757 168.54 194.659 166.27C192.562 163.42 191.483 159.947 191.594 156.409C191.706 152.871 193.001 149.473 195.273 146.761H195.283Z" fill="#6C63FF"/>
<path opacity="0.1" d="M223.107 157.405C222.999 160.946 221.699 164.345 219.419 167.052C221.174 169.437 222.223 172.268 222.447 175.222C222.671 178.176 222.06 181.134 220.685 183.756C219.31 186.379 217.225 188.561 214.67 190.053C212.114 191.546 209.191 192.287 206.235 192.194C203.278 192.101 200.408 191.176 197.951 189.526C195.495 187.875 193.552 185.566 192.344 182.861C191.136 180.157 190.713 177.167 191.122 174.233C191.532 171.299 192.757 168.54 194.659 166.27C192.639 163.522 223.162 155.636 223.107 157.405Z" fill="black"/>
</g>
<g opacity="0.2">
<path opacity="0.2" d="M162.365 204.396C162.356 204.728 162.318 205.058 162.252 205.384C160.113 205.043 157.961 204.735 155.797 204.46C155.797 204.374 155.797 204.285 155.797 204.196C155.817 203.273 156.083 202.372 156.566 201.586C157.199 200.582 158.161 199.954 159.221 199.988C160.282 200.022 161.201 200.708 161.769 201.746C162.199 202.56 162.405 203.475 162.365 204.396Z" fill="#3F3D56"/>
<path opacity="0.2" d="M162.539 199.137C162.614 196.757 161.203 194.78 159.388 194.723C157.572 194.665 156.04 196.549 155.965 198.929C155.89 201.31 157.3 203.286 159.116 203.344C160.931 203.401 162.463 201.518 162.539 199.137Z" fill="#3F3D56"/>
<path opacity="0.2" d="M162.706 193.867C162.781 191.487 161.371 189.51 159.555 189.453C157.74 189.396 156.207 191.279 156.132 193.659C156.057 196.04 157.468 198.016 159.283 198.074C161.099 198.131 162.631 196.248 162.706 193.867Z" fill="#3F3D56"/>
<path opacity="0.2" d="M162.871 188.598C162.946 186.217 161.535 184.241 159.72 184.183C157.905 184.126 156.372 186.009 156.297 188.389C156.222 190.77 157.633 192.746 159.448 192.804C161.263 192.861 162.796 190.978 162.871 188.598Z" fill="#3F3D56"/>
<path opacity="0.2" d="M163.036 183.328C163.111 180.947 161.7 178.971 159.885 178.913C158.069 178.856 156.537 180.739 156.462 183.12C156.387 185.5 157.797 187.476 159.613 187.534C161.428 187.591 162.961 185.708 163.036 183.328Z" fill="#3F3D56"/>
<path opacity="0.2" d="M148.566 146.761C148.133 146.174 147.742 145.557 147.398 144.914L156.083 143.766L146.734 143.542C145.899 141.56 145.478 139.428 145.494 137.277C145.51 135.126 145.965 133.001 146.829 131.032L159.16 137.943L147.865 129.065C149.004 127.22 150.511 125.629 152.292 124.393C154.073 123.157 156.089 122.302 158.215 121.881C160.34 121.46 162.53 121.483 164.646 121.948C166.763 122.413 168.761 123.31 170.515 124.582C172.27 125.855 173.744 127.477 174.845 129.346C175.946 131.215 176.65 133.291 176.914 135.445C177.178 137.599 176.995 139.784 176.378 141.864C175.76 143.944 174.721 145.874 173.325 147.534C173.999 148.447 174.571 149.43 175.031 150.467L163.632 155.946L175.72 152.305C176.481 154.821 176.604 157.487 176.077 160.062C175.55 162.637 174.39 165.039 172.702 167.052C174.457 169.437 175.506 172.268 175.73 175.222C175.954 178.176 175.343 181.134 173.968 183.756C172.593 186.379 170.508 188.561 167.953 190.053C165.397 191.546 162.474 192.287 159.518 192.194C156.561 192.101 153.691 191.176 151.234 189.525C148.778 187.875 146.835 185.566 145.627 182.861C144.419 180.157 143.996 177.167 144.405 174.233C144.815 171.299 146.04 168.54 147.942 166.27C145.845 163.42 144.766 159.947 144.877 156.409C144.989 152.871 146.284 149.473 148.556 146.761H148.566Z" fill="#6C63FF"/>
<path opacity="0.1" d="M176.39 157.405C176.282 160.946 174.982 164.345 172.702 167.052C174.457 169.437 175.506 172.268 175.73 175.222C175.954 178.176 175.343 181.134 173.968 183.756C172.593 186.379 170.508 188.561 167.953 190.053C165.397 191.546 162.474 192.287 159.518 192.194C156.561 192.101 153.691 191.176 151.234 189.526C148.778 187.875 146.835 185.566 145.627 182.861C144.419 180.157 143.996 177.167 144.405 174.233C144.815 171.299 146.04 168.54 147.942 166.27C145.922 163.522 176.445 155.636 176.39 157.405Z" fill="black"/>
</g>
<g opacity="0.2">
<path opacity="0.2" d="M289.976 207.763C289.953 208.392 289.878 209.018 289.752 209.635C285.633 208.976 281.485 208.387 277.307 207.868C277.307 207.702 277.307 207.532 277.307 207.36C277.346 205.583 277.858 203.847 278.789 202.334C280.018 200.404 281.862 199.194 283.9 199.255C285.938 199.317 287.711 200.644 288.818 202.641C289.652 204.215 290.052 205.983 289.976 207.763Z" fill="#3F3D56"/>
<path opacity="0.2" d="M290.311 197.629C290.455 193.045 287.738 189.239 284.241 189.128C280.745 189.018 277.793 192.644 277.648 197.228C277.503 201.813 280.221 205.619 283.717 205.729C287.214 205.84 290.166 202.213 290.311 197.629Z" fill="#3F3D56"/>
<path opacity="0.2" d="M290.63 187.484C290.775 182.899 288.057 179.093 284.561 178.982C281.064 178.872 278.112 182.498 277.967 187.083C277.823 191.667 280.54 195.473 284.037 195.584C287.534 195.694 290.485 192.068 290.63 187.484Z" fill="#3F3D56"/>
<path opacity="0.2" d="M290.953 177.338C291.097 172.754 288.38 168.948 284.883 168.837C281.387 168.726 278.435 172.353 278.29 176.937C278.145 181.522 280.863 185.328 284.359 185.438C287.856 185.549 290.808 181.922 290.953 177.338Z" fill="#3F3D56"/>
<path opacity="0.2" d="M290.912 166.731C291.049 162.144 288.324 158.341 284.826 158.236C281.328 158.131 278.38 161.763 278.243 166.35C278.105 170.937 280.83 174.74 284.328 174.845C287.827 174.95 290.774 171.317 290.912 166.731Z" fill="#3F3D56"/>
<path opacity="0.2" d="M263.406 96.8097C262.577 95.6797 261.826 94.4939 261.159 93.2606L277.879 91.0506L259.884 90.6165C258.276 86.8012 257.463 82.6975 257.494 78.5566C257.524 74.4156 258.398 70.3245 260.062 66.5334L283.805 79.8339L262.063 62.7442C264.261 59.1995 267.165 56.1462 270.593 53.7746C274.021 51.403 277.901 49.764 281.989 48.9597C286.077 48.1554 290.288 48.203 294.357 49.0997C298.426 49.9963 302.267 51.7226 305.641 54.1712C309.015 56.6197 311.849 59.738 313.967 63.3316C316.085 66.9252 317.441 70.9171 317.951 75.0586C318.46 79.2001 318.113 83.4023 316.93 87.4035C315.748 91.4046 313.755 95.1189 311.076 98.3149C312.37 100.074 313.472 101.968 314.361 103.963L292.413 114.518L315.683 107.5C317.149 112.337 317.388 117.464 316.377 122.417C315.367 127.37 313.139 131.992 309.895 135.865C313.273 140.456 315.293 145.906 315.724 151.593C316.155 157.279 314.979 162.972 312.331 168.021C309.683 173.07 305.67 177.27 300.751 180.143C295.832 183.015 290.205 184.443 284.513 184.263C278.822 184.083 273.296 182.303 268.567 179.126C263.838 175.95 260.097 171.504 257.772 166.298C255.447 161.092 254.632 155.336 255.42 149.688C256.207 144.04 258.566 138.728 262.226 134.36C258.192 128.873 256.115 122.189 256.329 115.379C256.543 108.569 259.035 102.028 263.406 96.8066V96.8097Z" fill="#6C63FF"/>
<path opacity="0.1" d="M316.977 117.298C316.775 124.109 314.284 130.653 309.908 135.871C313.286 140.462 315.306 145.912 315.736 151.599C316.167 157.285 314.991 162.978 312.343 168.027C309.696 173.076 305.683 177.277 300.763 180.149C295.844 183.021 290.217 184.449 284.526 184.269C278.834 184.09 273.308 182.31 268.579 179.133C263.851 175.956 260.11 171.51 257.785 166.304C255.46 161.099 254.644 155.343 255.432 149.695C256.22 144.047 258.578 138.735 262.238 134.366C258.323 129.068 317.084 113.89 316.977 117.298Z" fill="black"/>
</g>
<path d="M48.5056 208.305L51.7297 208.296H56.2754L62.0228 114.789L118.94 19.6661L116.466 17.0066V10.2717L54.9107 112.585L48.5056 208.305Z" fill="#F1C0C0"/>
<path opacity="0.1" d="M52.074 208.296H56.2754L62.0228 114.789L118.94 19.6661L116.466 17.0066L57.7568 113.364L52.074 208.296Z" fill="black"/>
<path d="M39.0054 209.084L186.486 220.387L186.612 220.396L329.341 211.605L329.449 211.599V205.563L172.179 202.672L40.9693 202.546H40.0104L39.9059 203.223L39.0054 209.084Z" fill="#F1C0C0"/>
<path opacity="0.1" d="M39.0054 209.084L186.486 220.387L186.612 220.396L329.341 211.605L329.449 211.488V205.689H329.323L186.486 210.466L40.9693 202.546H40.9478L40.6896 202.715L39.9059 203.223L39.0054 209.084Z" fill="black"/>
<path opacity="0.1" d="M39.0054 209.084L186.486 220.387V210.466L40.6896 202.715L39.9059 203.223L39.0054 209.084Z" fill="black"/>
<path d="M116.448 16.8804L181.467 86.772L179.457 209.712L184.98 210.38L185.072 210.392H190.595L191.256 92.051L313.006 132.781L315.059 205.301L319.503 205.8L321.009 205.969L317.524 127.751L190.251 83.0013L120.465 10.3425H116.448V16.8804Z" fill="#F1C0C0"/>
<path opacity="0.1" d="M190.755 89.7886L191.256 92.051L313.006 132.781L315.059 205.301L319.503 205.8L316.018 131.272L190.755 89.7886Z" fill="black"/>
<path opacity="0.1" d="M116.448 16.8804L181.467 86.772L179.457 209.712L184.98 210.38L186.486 82.7489L116.448 10.3425V16.8804Z" fill="black"/>
<path d="M190.992 139.128L235.646 147.934L235.662 147.937L313.873 163.368L317.453 161.93L317.441 161.678L317.207 156.676L191.038 131.143L190.992 139.128Z" fill="#F1C0C0"/>
<path opacity="0.1" d="M235.662 147.937L313.872 163.368L317.453 161.93L317.441 161.678L235.662 147.937Z" fill="black"/>
<path d="M238.652 107.906L239.86 174.498L240.484 208.662L245.982 208.477L249.443 208.36L248.367 108.87L245.982 108.076L245.46 107.906H238.652Z" fill="#F1C0C0"/>
<path opacity="0.1" d="M238.701 107.891V107.906L239.86 174.498L240.484 208.662L245.982 208.477V107.891H238.701Z" fill="black"/>
<path d="M152.524 124.913C152.847 125.088 153.155 125.289 153.446 125.513C153.791 125.815 154.1 126.155 154.368 126.526C155.687 128.234 156.904 130.22 156.775 132.374C156.778 132.688 156.719 132.999 156.601 133.289C156.483 133.58 156.31 133.844 156.09 134.067C155.546 134.532 154.765 134.554 154.052 134.554C153.277 134.554 152.463 134.554 151.793 134.153C151.123 133.753 150.563 132.974 149.77 132.993C149.659 133.011 149.544 133.011 149.432 132.993C149.159 132.904 149.104 132.544 148.925 132.316C148.618 131.906 147.969 132.008 147.487 132.186C147.004 132.365 146.47 132.633 145.993 132.427C145.717 132.28 145.491 132.054 145.345 131.777C144.204 129.93 143.962 127.711 143.746 125.565C143.614 124.26 142.606 119.809 145.388 120.822C146.617 121.265 147.767 122.152 148.885 122.801L152.524 124.913Z" fill="#3F3D56"/>
<path d="M149.777 125.353C150.025 125.532 150.326 125.623 150.632 125.61C150.938 125.598 151.231 125.484 151.464 125.285C151.922 124.871 152.213 124.304 152.285 123.691C152.592 123.595 152.749 123.999 152.945 124.245C153.29 124.664 153.99 124.657 154.304 125.104C154.522 125.412 154.473 125.839 154.627 126.187C154.826 126.637 155.321 126.871 155.659 127.234C155.978 127.631 156.209 128.091 156.335 128.585L156.839 130.099C157.081 130.729 157.236 131.389 157.3 132.06C157.332 132.396 157.297 132.734 157.197 133.056C157.096 133.378 156.933 133.677 156.716 133.935C156.04 134.664 154.931 134.741 153.95 134.72C153.623 134.727 153.296 134.688 152.979 134.606C152.109 134.335 151.553 133.458 151.323 132.574C151.092 131.691 151.117 130.764 150.981 129.859C150.835 128.97 150.577 128.104 150.213 127.28C149.943 126.64 149.199 125.685 149.211 125.005C149.432 125.005 149.592 125.208 149.777 125.353Z" fill="#3F3D56"/>
<path d="M150.88 122.235C150.736 121.798 150.653 121.343 150.631 120.884C150.631 119.96 151.052 119.092 151.476 118.267L147.963 118.744C147.539 118.803 147.066 118.889 146.826 119.243C146.735 119.418 146.688 119.613 146.688 119.811C146.688 120.009 146.735 120.203 146.826 120.379C147.002 120.73 147.142 121.098 147.244 121.478C147.252 121.81 147.29 122.141 147.358 122.466C147.467 122.705 147.62 122.921 147.81 123.103C148.815 124.217 149.568 125.532 150.318 126.834C150.296 126.797 152.435 125.138 152.349 124.596C152.3 124.288 151.682 123.919 151.485 123.623C151.214 123.194 151.01 122.726 150.88 122.235Z" fill="#BE6F72"/>
<path d="M181 110.209V113.241L129.16 123.368L126.47 124.999H117.192V123.291L168.125 110.966L181 110.209Z" fill="#F1C0C0"/>
<path opacity="0.1" d="M181 113.241L129.16 123.368L126.47 124.999H117.192L168.503 114.001L181 113.241Z" fill="black"/>
<path d="M139.379 196.279C138.802 195.578 138.004 195.094 137.117 194.905C136.23 194.716 135.304 194.834 134.492 195.238C134.318 195.32 134.165 195.44 134.044 195.589C133.736 196.02 133.933 196.614 133.961 197.147C134.031 198.446 132.999 199.502 132.07 200.41C131.573 200.896 131.065 201.416 130.841 202.078C130.617 202.74 130.783 203.58 131.385 203.925C131.648 204.057 131.934 204.136 132.227 204.159C133.21 204.351 134.217 204.379 135.208 204.242C136.189 204.054 137.151 203.497 137.575 202.592C137.657 202.347 137.792 202.123 137.971 201.936C138.512 201.509 139.342 202.01 139.957 201.706C140.464 201.453 140.486 201.056 140.492 200.533C140.51 199.086 140.295 197.449 139.379 196.279Z" fill="#FF4C01"/>
<path d="M146.755 196.224C147.133 197.221 147.186 198.307 147.235 199.372C147.262 199.988 147.281 200.647 146.949 201.167C146.617 201.687 145.968 201.961 145.348 202.09C144.066 202.355 142.581 202.106 141.755 201.087C141.122 200.308 140.989 199.24 141.106 198.23C141.205 197.402 141.414 196.433 140.82 195.845C140.667 195.688 140.467 195.577 140.326 195.408C140.018 195.032 140.067 194.466 140.233 194.004C140.449 193.563 140.611 193.097 140.716 192.616C140.74 192.388 144.877 192.776 145.258 192.964C145.778 193.219 145.698 193.647 145.855 194.164C146.073 194.885 146.491 195.534 146.755 196.224Z" fill="#FF4C01"/>
<path d="M147.514 152.003C148.326 152.53 148.639 153.564 148.765 154.524C149.113 157.156 148.504 159.816 148.458 162.472C148.415 166.193 149.491 169.983 148.572 173.587C148.022 175.742 148.489 178.204 147.972 180.38C147.819 181.027 147.536 181.636 147.388 182.283C147.081 183.683 147.404 185.148 147.837 186.518C147.976 186.887 148.063 187.274 148.098 187.666C148.078 188.271 147.924 188.864 147.65 189.402L145.806 193.77C145.6 194.26 144.788 194.34 144.269 194.404C143.291 194.521 142.2 194.604 141.423 193.998C140.645 193.392 140.458 192.376 140.338 191.428C140.108 189.608 140.005 187.774 140.031 185.94C140.064 185.461 140.022 184.98 139.905 184.514C139.735 183.988 139.364 183.532 139.262 182.975C139.133 182.255 139.499 181.547 139.634 180.821C139.727 180.157 139.716 179.483 139.603 178.823C139.483 177.838 139.345 176.853 139.188 175.874C138.967 174.504 139.284 173.153 139.496 171.78C139.696 170.491 139.44 169.176 139.188 167.896C139.21 168.935 139.081 169.972 138.804 170.974C138.641 171.463 138.408 171.931 138.266 172.43C137.636 174.668 138.979 177.016 138.789 179.334C138.7 180.417 138.276 181.489 138.395 182.557C138.478 183.339 138.841 184.056 139.09 184.801C139.339 185.546 139.468 186.398 139.09 187.094C138.091 188.984 138.838 191.554 139.732 193.493C139.914 193.837 140.072 194.193 140.206 194.558C140.47 195.432 140.249 196.371 140.319 197.282C140.062 197.325 139.798 197.307 139.549 197.232C139.299 197.157 139.069 197.026 138.878 196.848C138.743 196.707 138.632 196.541 138.5 196.393C138.131 196.04 137.694 195.767 137.215 195.589C136.934 195.432 136.614 195.358 136.293 195.377C135.955 195.472 135.652 195.661 135.417 195.922C135.113 196.19 134.791 196.435 134.452 196.658C134.308 196.769 134.139 196.843 133.96 196.876C133.87 196.89 133.778 196.875 133.697 196.834C133.616 196.792 133.55 196.726 133.509 196.645C133.489 196.594 133.478 196.54 133.475 196.485C133.361 195.556 133.3 194.621 133.293 193.684C133.293 192.074 131.369 190.966 131.127 189.375C130.933 188.091 131.293 186.783 131.173 185.49C131.114 184.825 130.93 184.173 130.942 183.508C130.942 183.077 131.041 182.655 131.074 182.227C131.103 181.752 131.095 181.276 131.053 180.802L130.958 179.315C130.865 177.847 130.764 176.348 130.186 175.006C129.501 173.439 129.095 171.764 128.988 170.056C128.926 168.979 128.966 167.902 128.843 166.821C128.732 165.846 128.487 164.876 128.557 163.897C128.616 163.14 128.865 162.407 128.923 161.65C129.043 160.194 128.49 158.778 128.056 157.384C127.623 155.99 127.303 154.444 127.872 153.099C127.953 152.878 128.088 152.682 128.265 152.527C128.483 152.382 128.731 152.29 128.991 152.256C134.264 151.146 139.669 150.801 145.04 151.231C145.916 151.28 146.766 151.546 147.514 152.003Z" fill="#3F3D56"/>
<path d="M130.066 119.311C132.786 119.311 134.99 117.103 134.99 114.38C134.99 111.656 132.786 109.448 130.066 109.448C127.347 109.448 125.143 111.656 125.143 114.38C125.143 117.103 127.347 119.311 130.066 119.311Z" fill="#BE6F72"/>
<path d="M129.114 120.539C129.184 120.821 129.184 121.116 129.114 121.398C129.036 121.595 128.927 121.778 128.791 121.939C128.314 122.555 127.787 123.13 127.214 123.657C127.506 124.31 128.031 124.829 128.686 125.113C129.337 125.39 130.019 125.586 130.718 125.695C131.067 125.787 131.429 125.812 131.787 125.769C132.117 125.686 132.43 125.544 132.709 125.35L135.445 123.709C135.858 123.485 136.24 123.209 136.582 122.887C137.084 122.371 137.368 121.681 137.375 120.961C137.388 120.832 137.353 120.702 137.277 120.597C137.172 120.506 137.04 120.451 136.902 120.44C135.94 120.228 135.181 119.446 134.75 118.56C134.361 117.651 134.11 116.689 134.003 115.706L131.087 117.245C130.653 117.476 130.223 117.707 129.774 117.907C129.488 118.036 128.911 118.144 128.708 118.406C128.321 118.889 129.012 119.957 129.114 120.539Z" fill="#BE6F72"/>
<path d="M127.233 122.761C126.817 123.102 126.493 123.541 126.289 124.039C126.099 124.654 126.289 125.304 126.461 125.913C127.268 128.511 127.884 131.164 128.305 133.852C128.563 135.699 128.659 137.573 128.785 139.442C129.043 143.252 129.418 149.328 129.919 153.115C131.763 153.198 133.561 152.659 135.39 152.462C138.807 152.099 142.327 152.93 145.674 152.154C144.862 148.944 144.051 143.462 143.239 140.254C142.88 138.99 142.631 137.698 142.496 136.391C142.425 135.452 142.468 134.51 142.48 133.565C142.508 131.719 142.406 129.872 142.305 128.025C142.188 125.87 142.071 123.715 141.561 121.607C141.526 121.338 141.4 121.09 141.205 120.902C140.897 120.677 140.498 120.757 140.132 120.807C139.012 120.949 137.879 120.68 136.942 120.049C136.536 119.772 135.992 119.434 135.614 119.742C135.453 119.927 135.346 120.154 135.307 120.397C135.139 120.833 134.881 121.227 134.549 121.555C134.218 121.882 133.82 122.135 133.383 122.296C132.507 122.614 131.59 122.803 130.66 122.857C130.375 122.918 130.078 122.884 129.814 122.761C129.378 122.493 129.347 121.53 128.797 121.465C128.315 121.41 127.558 122.45 127.233 122.761Z" fill="#3F3D56"/>
<path d="M134.505 130.278C133.37 129.191 132.873 127.615 132.046 126.276C131.483 125.376 130.764 124.584 129.922 123.937C129.499 123.657 129.111 123.328 128.766 122.955C128.474 122.595 128.253 122.115 127.81 121.976C127.628 121.936 127.438 121.942 127.257 121.992C127.077 122.041 126.911 122.134 126.775 122.263C126.504 122.521 126.247 122.795 126.006 123.081C124.703 124.433 122.413 124.62 121.381 126.184C121.102 126.516 120.913 126.913 120.831 127.338C120.533 129.614 121.121 131.918 122.472 133.772C122.733 134.201 123.135 134.528 123.609 134.695C123.545 135.269 123.621 135.85 123.83 136.388C124.399 138.336 125.099 140.244 125.923 142.098C125.726 142.823 125.588 143.563 125.512 144.311C125.296 146.192 125.496 148.1 125.293 149.984C125.127 151.523 124.679 153.022 124.663 154.564C124.663 154.811 124.685 155.103 124.897 155.229C125.01 155.287 125.136 155.314 125.263 155.306L129.043 155.42C131.237 155.485 133.453 155.549 135.614 155.143C135.902 155.1 136.181 155.012 136.441 154.881C137.172 154.472 137.415 153.549 137.532 152.727C137.684 151.661 137.745 150.583 137.713 149.507C138.171 150.957 138.715 152.456 140.098 153.084C140.83 153.416 141.666 153.392 142.468 153.37C144.197 153.293 145.92 153.115 147.628 152.838C147.734 152.851 147.84 152.839 147.94 152.803C148.04 152.767 148.13 152.709 148.204 152.632C148.277 152.555 148.331 152.462 148.362 152.36C148.393 152.259 148.399 152.151 148.381 152.046L148.4 150.366C148.437 146.952 147.591 143.689 147.263 140.291C147.158 139.22 147.167 138.136 146.906 137.087C146.798 136.647 146.642 136.216 146.546 135.772C146.464 135.338 146.413 134.899 146.393 134.458L146.153 131.072C146.039 129.505 145.876 127.994 145.757 126.43C145.691 124.908 145.47 123.396 145.099 121.918C144.831 120.994 144.275 119.948 143.313 119.834C142.8 119.776 142.302 120 141.813 120.157C140.612 120.536 139.323 120.531 138.125 120.142C137.755 119.995 137.369 119.892 136.976 119.834C136.777 119.807 136.576 119.833 136.391 119.91C136.206 119.987 136.045 120.111 135.924 120.271C135.805 120.512 135.749 120.779 135.762 121.047C135.617 124.122 135.35 127.289 134.505 130.278Z" fill="#FF4C01"/>
<path d="M129.559 130.37C128.142 128.874 126.689 127.351 124.863 126.4C124.144 126.024 123.326 125.741 122.53 125.883C121.734 126.024 120.993 126.717 121.03 127.526C121.055 128.028 121.359 128.471 121.455 128.964C121.565 129.518 121.405 130.109 121.577 130.644C121.717 130.997 121.926 131.319 122.192 131.589L124.368 134.172C125.29 135.249 126.212 136.342 127.399 137.087C128.585 137.832 130.122 138.18 131.425 137.65C132.352 137.219 133.123 136.51 133.632 135.622C134.173 134.76 134.554 133.818 135.061 132.928C135.85 131.507 136.892 130.242 138.134 129.195C137.495 129.028 136.693 128.794 136.29 128.271C136.176 128.105 136.078 127.927 135.998 127.742L135.5 126.664C135.331 126.656 135.162 126.682 135.003 126.742C134.844 126.802 134.7 126.894 134.578 127.012C134.365 127.259 134.136 127.493 133.893 127.711C133.46 128.037 132.872 128.126 132.479 128.499C132.327 128.659 132.189 128.832 132.067 129.016C131.77 129.408 131.392 129.731 130.959 129.965C130.527 130.198 130.05 130.337 129.559 130.37Z" fill="#3F3D56"/>
<path d="M138.248 123.934C139.314 121.986 139.265 119.649 139.569 117.448C139.602 116.866 139.807 116.306 140.156 115.839C140.771 115.143 141.856 115.134 142.784 115.223C143.058 115.254 143.399 115.383 143.384 115.657C143.362 115.755 143.314 115.846 143.245 115.919C142.346 117.082 141.817 118.489 141.727 119.957C142.21 120.293 142.956 119.603 143.42 119.957C143.728 120.216 143.586 120.727 143.402 121.096C142.974 121.952 142.532 122.801 142.077 123.645C141.714 124.388 141.241 125.072 140.673 125.673C140.282 126.049 139.825 126.344 139.428 126.714C138.506 127.579 137.95 128.801 136.997 129.644C136.916 129.731 136.807 129.787 136.69 129.801C136.568 129.792 136.454 129.741 136.367 129.656C135.891 129.269 135.496 128.79 135.205 128.25C134.842 127.579 134.898 127.382 135.469 126.908C136.539 126.061 137.581 125.153 138.248 123.934Z" fill="#BE6F72"/>
<path d="M127.777 129.047C127.961 129.161 128.188 129.29 128.391 129.195C128.474 129.144 128.545 129.076 128.597 128.994C128.949 128.525 129.242 128.014 129.47 127.474C129.509 127.398 129.531 127.313 129.535 127.228C129.535 127.031 129.359 126.886 129.197 126.772C128.324 126.215 127.385 125.768 126.403 125.442C125.591 125.134 124.743 124.867 123.883 124.944C123.559 124.965 123.244 125.052 122.955 125.199C122.666 125.347 122.409 125.551 122.201 125.799C121.587 126.59 122.616 126.831 123.262 127.117C124.755 127.797 126.372 128.191 127.777 129.047Z" fill="#FF4C01"/>
<path opacity="0.1" d="M126.809 134.28C126.798 134.35 126.804 134.421 126.827 134.489C126.849 134.556 126.887 134.617 126.938 134.667C127.027 134.23 126.91 133.769 127.002 133.328C127.137 132.667 127.78 132.168 127.835 131.503C126.658 131.272 126.818 133.565 126.809 134.28Z" fill="black"/>
<path opacity="0.2" d="M181 110.209V113.241L168.503 114.001L168.125 110.966L181 110.209Z" fill="black"/>
<path d="M125.635 115.112C126.415 114.475 125.963 113.139 126.492 112.283C126.799 111.816 127.319 111.569 127.829 111.36C128.445 111.071 129.104 110.888 129.781 110.818C130.119 110.786 130.461 110.83 130.78 110.948C131.099 111.065 131.388 111.254 131.625 111.498C131.825 111.726 131.96 112.003 132.147 112.24C132.379 112.517 132.682 112.725 133.023 112.843C133.364 112.961 133.73 112.985 134.084 112.911C134.492 112.819 134.916 112.508 134.889 112.089C134.843 111.835 134.713 111.603 134.52 111.431L133.641 110.455C132.642 109.347 131.533 108.171 130.066 107.894C129.046 107.7 128.001 107.974 127.018 108.303C126.621 108.436 126.175 108.633 126.065 109.036C125.991 109.313 126.102 109.615 126.037 109.895C125.911 110.452 125.198 110.64 124.866 111.108C124.534 111.575 124.636 112.129 124.54 112.647C124.445 113.164 124.169 113.669 124.135 114.204C124.113 114.527 124.276 115.128 124.639 115.245C125.001 115.362 125.41 114.727 125.635 115.112Z" fill="#3F3D56"/>
<path d="M134.59 111.646C134.331 110.292 133.773 109.013 132.955 107.903C132.229 106.866 131.218 106.062 130.045 105.589C129.458 105.359 128.828 105.266 128.2 105.315C127.573 105.365 126.964 105.556 126.421 105.875C125.615 106.451 124.987 107.244 124.611 108.162C123.815 109.879 123.52 111.979 124.445 113.629C124.814 113.179 125.447 113.382 126.006 113.219C126.707 113.019 127.3 112.551 127.967 112.259C129.98 111.369 132.439 112.09 134.59 111.646Z" fill="#FED253"/>
<path opacity="0.1" d="M124.915 111.551C124.844 110.997 124.798 110.353 125.192 109.959C125.211 109.935 125.236 109.916 125.265 109.903C125.293 109.89 125.324 109.884 125.355 109.886C125.382 109.894 125.407 109.909 125.429 109.928C125.451 109.947 125.468 109.97 125.481 109.996C125.708 110.355 125.901 110.734 126.059 111.129C125.829 111.076 125.59 111.093 125.371 111.178C125.151 111.264 124.963 111.413 124.829 111.606" fill="black"/>
<path opacity="0.1" d="M132.098 109.987L131.987 108.888C131.97 108.798 131.977 108.704 132.009 108.617C132.055 108.545 132.127 108.492 132.21 108.469C132.293 108.447 132.381 108.455 132.458 108.494C132.609 108.578 132.733 108.703 132.817 108.854C133.073 109.248 133.285 109.668 133.45 110.107C132.955 110.012 132.446 110.018 131.954 110.126" fill="black"/>
<path opacity="0.1" d="M134.849 154.586V157.098L132.731 157.239H121.593V154.586H134.849Z" fill="black"/>
<path d="M134.849 154.586V157.239H121.593L86.377 113.059V110.972H93.7594L134.849 154.586Z" fill="#F1C0C0"/>
<path opacity="0.1" d="M134.849 154.586V157.239H121.593L86.377 113.059V110.972H93.7594L134.849 154.586Z" fill="black"/>
<path opacity="0.1" d="M134.849 154.586V157.239H121.593L86.377 113.059V110.972L121.783 154.586H134.849Z" fill="black"/>
<path d="M90.9932 198.868C91.0163 198.992 91.0136 199.121 90.985 199.244C90.9564 199.368 90.9026 199.485 90.827 199.587C90.7515 199.689 90.6557 199.774 90.5457 199.837C90.4358 199.9 90.314 199.94 90.1879 199.954C89.3335 200.244 88.4268 200.53 87.8214 201.185C87.2159 201.841 87.096 203.057 87.8214 203.589C88.1921 203.813 88.6178 203.93 89.0507 203.925C90.443 204.02 91.8937 204.002 93.1569 203.411C94.0605 202.992 94.9119 202.278 95.9046 202.343C96.4179 202.374 96.9649 202.614 97.4229 202.38C97.8808 202.146 98.0099 201.493 98.013 200.948C98.0247 199.811 97.8534 198.679 97.5059 197.596C97.4598 197.449 95.505 197.335 95.2715 197.289L92.9018 196.981C92.4531 196.922 91.4849 196.584 91.1315 196.959C90.778 197.335 90.9932 198.421 90.9932 198.868Z" fill="#FF4C01"/>
<path d="M105.134 191.185C105.235 191.739 105.398 192.28 105.62 192.798C105.949 193.635 106.37 194.524 107.175 194.931C107.907 195.297 108.804 195.165 109.548 194.817C109.858 194.688 110.13 194.481 110.338 194.217C110.578 193.798 110.685 193.316 110.645 192.834C110.645 191.643 110.574 190.412 110.03 189.353C109.563 188.43 108.749 187.636 108.737 186.614L105.937 187.155C105.787 187.17 105.644 187.226 105.525 187.319C105.436 187.412 105.374 187.528 105.346 187.654C105.048 188.806 104.976 190.005 105.134 191.185Z" fill="#FF4C01"/>
<path d="M71.698 161.943C71.5812 162.934 71.6304 163.996 72.1467 164.851C72.663 165.707 73.7511 166.273 74.6915 165.932C74.7397 165.919 74.785 165.898 74.8245 165.867C74.8641 165.837 74.8973 165.8 74.922 165.756C74.9471 165.652 74.9328 165.543 74.8821 165.449C74.4669 164.339 74.5011 163.111 74.9774 162.026C75.0388 161.884 75.171 161.718 75.3155 161.773C75.3759 161.804 75.4245 161.854 75.4538 161.915C75.6025 162.173 75.677 162.467 75.6689 162.764C75.6255 163.034 75.6173 163.308 75.6443 163.58C75.7027 163.845 75.9855 164.094 76.2313 163.98C76.3024 163.937 76.3639 163.879 76.412 163.811C76.4601 163.742 76.4938 163.665 76.511 163.583C77.1964 161.598 76.886 159.428 76.5725 157.35C76.5751 157.302 76.5672 157.255 76.5494 157.21C76.5316 157.166 76.5043 157.126 76.4694 157.093C76.4345 157.061 76.3929 157.036 76.3476 157.022C76.3022 157.007 76.2541 157.002 76.2068 157.008C74.7561 156.864 73.9631 156.516 73.1333 157.867C72.4202 159.006 71.698 160.573 71.698 161.943Z" fill="#FF4C01"/>
<path d="M88.6574 156.891C88.2271 158.683 87.7938 160.496 87.7661 162.337C87.7737 163.483 87.8599 164.628 88.0243 165.763L88.347 168.428C88.4577 169.327 88.5652 170.223 88.722 171.112C88.822 171.571 88.8765 172.038 88.8849 172.507C88.8547 172.969 88.7817 173.428 88.6666 173.876C88.4734 174.819 88.3654 175.777 88.3439 176.739C88.3101 178.278 88.5007 179.817 88.6205 181.356C88.8598 184.423 88.8238 187.505 88.513 190.566C88.3889 191.392 88.5679 192.235 89.017 192.939C89.1993 193.161 89.3493 193.408 89.4627 193.672C89.6932 194.377 89.1553 195.082 89.017 195.805C88.9286 196.369 89.0672 196.945 89.4026 197.407C89.738 197.869 90.2427 198.178 90.8058 198.267C93.2646 198.56 95.791 198.427 98.0069 199.554C98.2405 198.871 97.7303 198.095 97.9639 197.399C98.1114 196.968 98.5171 196.688 98.7937 196.325C99.1654 195.772 99.3506 195.114 99.3224 194.447C99.3332 193.578 99.1789 192.714 98.8675 191.902C98.6063 191.225 98.2313 190.557 98.2528 189.83C98.2528 189.473 98.3788 189.098 98.2344 188.768C98.1353 188.579 98.0007 188.411 97.8379 188.273C96.9193 187.265 96.3549 185.984 96.2305 184.625C96.1106 183.277 96.154 181.919 96.3596 180.581C96.5102 179.306 96.713 177.961 97.5213 176.967C97.1465 173.952 97.3668 170.893 98.1698 167.963C98.2497 167.692 98.3758 167.379 98.6524 167.314C98.7623 167.303 98.8732 167.318 98.9759 167.359C99.0787 167.399 99.1701 167.464 99.2425 167.548C99.725 168 99.9555 168.656 100.165 169.284C100.395 169.964 100.629 170.691 100.453 171.386C100.38 171.694 100.232 171.965 100.146 172.26C99.9591 172.854 99.9918 173.496 100.238 174.067C100.358 174.276 100.434 174.508 100.46 174.748C100.431 174.953 100.369 175.153 100.275 175.339C100.161 175.703 100.125 176.087 100.169 176.466C100.213 176.845 100.336 177.211 100.53 177.539C100.922 178.193 101.405 178.787 101.966 179.303C101.698 180.485 101.767 181.718 102.165 182.861C102.194 182.913 102.212 182.97 102.219 183.028C102.226 183.087 102.221 183.146 102.205 183.203C102.15 183.32 102.009 183.363 101.898 183.446C101.591 183.699 101.781 184.176 101.987 184.505C102.551 185.409 103.175 186.275 103.853 187.097C104.467 187.833 104.412 189.252 105.328 189.516C105.713 189.6 106.111 189.6 106.496 189.516C107.399 189.378 108.408 189.116 108.85 188.316C109.031 187.986 109.105 187.586 109.388 187.34C109.671 187.094 110.037 187.051 110.193 186.755C110.35 186.46 110.175 186.072 110.227 185.73C110.279 185.389 110.577 185.115 110.673 184.754C110.9 183.923 109.932 183.24 109.8 182.39C109.609 181.159 111.158 180.236 111.094 179.005C110.959 176.33 110.873 173.642 110.734 170.968C110.561 168.572 110.536 166.167 110.66 163.768C110.768 162.275 110.968 160.711 110.421 159.323C109.634 157.365 107.464 156.267 105.365 156.057C103.266 155.848 101.173 156.347 99.0919 156.673C95.6385 157.206 92.13 157.279 88.6574 156.891Z" fill="#3F3D56"/>
<path d="M94.8966 127.471C97.6159 127.471 99.8203 125.263 99.8203 122.54C99.8203 119.816 97.6159 117.609 94.8966 117.609C92.1773 117.609 89.9729 119.816 89.9729 122.54C89.9729 125.263 92.1773 127.471 94.8966 127.471Z" fill="#FBBEBE"/>
<path d="M92.8928 128.391C92.7255 128.781 92.4442 129.111 92.086 129.338C91.7278 129.565 91.3094 129.678 90.8858 129.662C90.7075 130.401 91.1347 131.146 91.6234 131.728C92.6382 132.91 93.9495 133.801 95.4223 134.306C96.895 134.812 98.4758 134.916 100.002 134.606C100.595 134.499 101.159 134.264 101.652 133.916C102.317 133.36 102.764 132.586 102.912 131.731C103.054 130.882 103.094 130.019 103.032 129.161C103.049 128.991 103.001 128.821 102.897 128.687C102.774 128.591 102.622 128.541 102.467 128.545C101.428 128.453 100.343 128.413 99.43 127.902C98.5172 127.391 97.8687 126.236 98.3082 125.288C98.2375 125.436 96.4426 125.507 96.206 125.538C95.4653 125.642 94.7246 125.759 93.9869 125.895C93.6325 125.914 93.2821 125.98 92.945 126.092C92.4994 126.323 92.6653 126.209 92.7698 126.627C92.9266 127.268 93.1571 127.726 92.8928 128.391Z" fill="#FBBEBE"/>
<path d="M96.6393 131.389C95.9762 131.397 95.3146 131.323 94.6692 131.171C94.0176 131.018 93.4432 130.634 93.0525 130.09C92.8251 129.746 92.6776 129.311 92.3149 129.118C91.7217 128.81 91.0456 129.33 90.5723 129.807C90.1413 130.278 89.6419 130.68 89.0908 131.001C88.4331 131.349 87.6647 131.472 87.0439 131.882C86.5589 132.249 86.1427 132.699 85.8145 133.211L81.4594 139.152C79.7106 141.541 78.1892 144.105 76.631 146.626C75.2817 148.808 74.5748 151.32 73.5575 153.675C73.4769 153.819 73.4436 153.985 73.4622 154.149C73.4991 154.309 73.6927 154.438 73.828 154.346C73.37 154.801 73.7727 155.577 73.6651 156.217C73.5428 156.665 73.2877 157.066 72.9336 157.365C73.6101 157.277 74.2969 157.309 74.9621 157.461C75.6496 157.656 76.2984 157.968 76.8799 158.384C77.2518 158.326 77.218 157.664 77.4946 157.418C77.6606 157.273 77.9065 157.292 78.1247 157.248C78.9453 157.088 79.2711 156.1 79.9012 155.543C80.4267 155.078 81.1705 154.928 81.7268 154.49C82.6304 153.779 82.824 152.514 83.2973 151.465C83.7 150.575 84.3331 149.799 84.6866 148.888C84.9171 148.297 85.0277 147.657 85.3566 147.112C85.8821 146.232 86.8718 145.764 87.8153 145.342C88.4116 145.075 89.0447 144.797 89.6871 144.841C89.6533 146.272 89.4719 147.682 89.7824 149.079C89.8899 149.572 90.0405 150.052 90.1696 150.541C90.7567 152.745 90.895 155.041 90.9226 157.313C92.3347 156.99 93.777 156.816 95.2255 156.796C96.3658 156.762 97.5029 156.91 98.6432 156.888C99.9955 156.864 101.332 156.602 102.685 156.51C104.037 156.417 105.451 156.51 106.647 157.125C106.549 155.175 106.604 153.219 106.809 151.277L107.135 148.217C107.209 147.328 107.345 146.446 107.544 145.576C107.722 144.874 107.98 144.197 108.177 143.499C108.869 141.036 108.743 138.407 108.61 135.843C108.543 134.526 108.036 133.23 107.439 132.057C107.224 131.622 106.977 131.202 106.702 130.801C105.981 129.807 105.021 129.012 103.911 128.49C102.8 127.968 101.576 127.736 100.352 127.816C100.196 127.82 100.042 127.854 99.8972 127.914C99.6378 128.08 99.4351 128.322 99.3163 128.607C98.6804 129.751 97.7578 130.71 96.6393 131.389Z" fill="#3F3D56"/>
<path d="M90.5662 124.174C90.7045 123.866 91.0764 123.752 91.3039 123.506C91.7403 123.038 91.5436 122.29 91.6112 121.659C91.7219 120.736 92.4871 119.963 93.3631 119.634C94.2564 119.347 95.2069 119.287 96.1292 119.459C96.5732 119.491 97.0021 119.634 97.377 119.874C97.5369 119.991 97.6844 120.142 97.835 120.25C98.1095 120.416 98.438 120.468 98.7504 120.395C99.0628 120.322 99.3343 120.129 99.507 119.859C98.4189 118.547 97.2141 117.162 95.5606 116.759C94.9934 116.643 94.4153 116.588 93.8364 116.596C93.0711 116.58 92.2812 116.568 91.5743 116.861C90.6123 117.258 89.9362 118.172 89.5889 119.157C89.2851 120.155 89.1227 121.191 89.1063 122.235C89.0433 122.931 89.0433 123.632 89.1063 124.328C89.2251 125.279 89.5779 126.185 90.1329 126.966C90.2079 127.087 90.314 127.186 90.4402 127.252C91.8417 127.868 90.4525 124.43 90.5662 124.174Z" fill="#3F3D56"/>
<path d="M99.3469 119.098C99.1778 117.649 98.1451 116.451 97.0479 115.488C96.1635 114.652 95.1101 114.017 93.9591 113.625C92.8004 113.284 91.4665 113.358 90.4737 114.05C89.6746 114.607 89.1675 115.494 88.7772 116.386C88.2644 117.44 88.0105 118.601 88.0365 119.772C88.1133 120.936 88.6788 122.115 89.6869 122.703C90.0496 122.167 90.6797 121.89 91.2851 121.672C93.9241 120.669 96.6153 119.81 99.3469 119.098Z" fill="#FED253"/>
<path opacity="0.1" d="M90.0252 118.495C90.1235 118.495 90.1881 118.597 90.2373 118.68C90.4875 119.07 90.7025 119.482 90.8796 119.911C90.52 119.988 89.9022 120.074 89.724 119.757C89.6287 119.597 89.7424 118.48 90.0252 118.495Z" fill="black"/>
<path opacity="0.1" d="M97.0295 117.799C96.9558 117.87 96.8697 117.726 96.8697 117.621V116.427C96.8677 116.393 96.8752 116.36 96.8912 116.331C96.904 116.317 96.9195 116.305 96.9369 116.296C96.9544 116.288 96.9733 116.283 96.9927 116.282C97.2416 116.254 97.4475 116.467 97.6073 116.67C97.8499 116.999 98.0608 117.35 98.2374 117.719L96.9373 117.679" fill="black"/>
<path d="M113.255 137.576C113.537 137.307 113.839 137.059 114.158 136.834C115.01 136.265 116.039 136.04 116.995 135.677C117.951 135.314 118.922 134.726 119.294 133.772C119.48 133.175 119.541 132.546 119.472 131.925C119.481 131.665 119.435 131.406 119.337 131.165C119.22 130.952 119.053 130.77 118.851 130.635C117.554 129.675 115.815 129.598 114.204 129.696C110.654 129.917 107.173 130.787 103.936 132.263C103.765 132.32 103.615 132.427 103.505 132.571C103.442 132.705 103.414 132.852 103.423 132.999C103.365 133.907 103.483 134.817 103.77 135.68C104.194 136.776 105.067 137.659 105.433 138.777C105.599 139.278 105.654 139.811 105.798 140.316C105.917 140.837 106.225 141.296 106.662 141.602C107.876 142.329 109.022 141.353 109.865 140.596L113.255 137.576Z" fill="#3F3D56"/>
<path d="M97.3555 141.839L95.7972 138.435C95.5688 137.963 95.3716 137.477 95.2071 136.979C95.0289 136.385 94.9428 135.769 94.7769 135.172C94.2298 133.184 92.8498 131.528 92.1767 129.579C92.1341 129.403 92.0474 129.241 91.9247 129.108C91.8264 129.039 91.7141 128.992 91.5957 128.97C91.4772 128.949 91.3556 128.954 91.2393 128.985C90.2988 129.148 89.5642 129.866 88.7037 130.272C88.3041 130.457 87.8738 130.58 87.4743 130.792C87.2746 130.887 87.0976 131.024 86.9554 131.193C86.8133 131.362 86.7093 131.561 86.6506 131.774C86.5553 132.245 86.7889 132.697 86.9856 133.156C87.8216 135.046 88.0121 137.158 88.049 139.226C88.0767 140.617 88.006 142.11 87.1854 143.228C85.6087 145.382 86.6168 148.547 87.2069 151.154C87.2776 151.462 87.3606 151.794 87.4097 152.12C87.4617 152.529 87.4854 152.94 87.4804 153.352C87.4804 154.734 87.4036 156.159 86.8258 157.412C87.3962 157.716 88.025 157.894 88.6699 157.935C90.4545 158.163 92.2464 158.323 94.0454 158.415C94.609 158.468 95.1774 158.439 95.7327 158.329C96.3922 158.15 96.9735 157.757 97.3848 157.211C97.7961 156.664 98.014 155.996 98.004 155.312C98.1024 156.165 98.2837 157.092 98.9015 157.683C99.5192 158.274 100.42 158.363 101.259 158.409C103.627 158.535 106.001 158.468 108.359 158.209C108.509 158.202 108.657 158.168 108.795 158.107C109.25 157.879 109.274 157.252 109.238 156.747C109.17 155.802 109.099 154.857 108.986 153.918C108.889 153.319 108.84 152.714 108.838 152.108C108.885 151.484 108.988 150.866 109.145 150.261C109.557 148.34 109.883 146.38 109.745 144.413C109.69 143.934 109.671 143.451 109.686 142.969C109.766 141.883 110.338 140.848 110.23 139.768C109.923 136.591 109.674 133.332 108.789 130.266C108.629 129.718 108.426 129.13 107.95 128.816C107.335 128.403 106.471 128.619 105.768 128.357C105.437 128.203 105.123 128.017 104.83 127.8C104.193 127.401 103.463 127.176 102.713 127.148C102.147 127.126 101.517 127.252 101.176 127.708C101.018 127.964 100.913 128.25 100.868 128.548C100.423 130.426 99.9003 132.282 99.3778 134.138L98.8769 135.917L97.5338 140.694C97.4016 141.202 97.4907 141.359 97.3555 141.839Z" fill="#FF4C01"/>
<path d="M105.214 123.201L134.944 154.49V157.144H121.688L99.3469 127.942" fill="#F1C0C0"/>
<path opacity="0.1" d="M105.214 123.201L134.944 154.49V157.144H121.688L99.3469 127.942" fill="black"/>
<path opacity="0.1" d="M99.8202 127.529L99.9155 127.563L121.879 154.49H134.944V157.144H121.688L99.3469 127.942L99.8202 127.529Z" fill="black"/>
<path d="M103.241 128.188C102.165 128.659 100.97 129.262 100.647 130.395C100.583 130.594 100.57 130.805 100.607 131.011C100.686 131.252 100.836 131.464 101.037 131.618C101.238 131.773 101.482 131.863 101.735 131.876C102.241 131.888 102.744 131.796 103.213 131.605L109.56 129.505C109.732 129.45 109.929 129.367 109.972 129.198C109.983 129.091 109.962 128.984 109.911 128.89C109.714 128.41 109.52 127.428 109.108 127.092C108.77 126.821 108.1 126.917 107.691 126.923C106.118 126.935 104.639 127.572 103.241 128.188Z" fill="#FF4C01"/>
<path d="M108.899 129.755C109.969 129.752 111.032 129.917 112.05 130.244C113.072 130.577 113.978 131.196 114.659 132.029C114.857 132.262 114.998 132.539 115.071 132.836C115.132 133.144 116.134 133.328 115.913 133.538C116.586 133.43 116.426 133.747 117.109 133.741C117.791 133.735 118.529 133.559 118.937 133.014C119.221 132.567 119.348 132.037 119.297 131.509C119.306 131.144 119.237 130.781 119.094 130.444C118.787 129.798 118.08 129.45 117.428 129.151L111.939 126.637C111.621 126.467 111.279 126.346 110.925 126.276C110.627 126.248 110.327 126.256 110.03 126.298L107.544 126.584C108.088 126.937 108.53 127.425 108.828 128.001C109.126 128.577 109.27 129.22 109.244 129.869" fill="#3F3D56"/>
</g>
<defs>
<clipPath id="clip0">
<rect width="362" height="223" fill="white"/>
</clipPath>
</defs>
</svg>
